<svg width="20" height="20" xmlns="http://www.w3.org/2000/svg">

 <g>
  <title>background</title>
  <rect fill="none" id="canvas_background" height="22" width="22" y="-1" x="-1"/>
 </g>
 <g>
  <title>Layer 1</title>
  <g stroke="null" id="svg_1">
   <g stroke="null" id="_x33__1_">
    <g stroke="null" id="svg_2">
     <path opacity="0.85" fill="#06d304" stroke="null" id="svg_3" d="m2.54086,4.35565l14.91829,0c1.02935,0 1.86479,-0.84195 1.86479,-1.88145s-0.83449,-1.88145 -1.86479,-1.88145l-14.91829,0c-1.03029,0 -1.86479,0.84195 -1.86479,1.88145s0.83449,1.88145 1.86479,1.88145zm14.91829,3.7629l-14.91829,0c-1.03029,0 -1.86479,0.84195 -1.86479,1.88145c0,1.03947 0.83449,1.88145 1.86479,1.88145l14.91829,0c1.02935,0 1.86479,-0.84198 1.86479,-1.88145c0,-1.0395 -0.83449,-1.88145 -1.86479,-1.88145zm0,7.5258l-14.91829,0c-1.03029,0 -1.86479,0.84195 -1.86479,1.88145c0,1.0395 0.83449,1.88145 1.86479,1.88145l14.91829,0c1.02935,0 1.86479,-0.84195 1.86479,-1.88145c0,-1.0395 -0.83449,-1.88145 -1.86479,-1.88145z"/>
    </g>
   </g>
  </g>
  <g id="svg_4"/>
  <g id="svg_5"/>
  <g id="svg_6"/>
  <g id="svg_7"/>
  <g id="svg_8"/>
  <g id="svg_9"/>
  <g id="svg_10"/>
  <g id="svg_11"/>
  <g id="svg_12"/>
  <g id="svg_13"/>
  <g id="svg_14"/>
  <g id="svg_15"/>
  <g id="svg_16"/>
  <g id="svg_17"/>
  <g id="svg_18"/>
 </g>
</svg>