<svg id="Layer_1" data-name="Layer 1" xmlns="http://www.w3.org/2000/svg" viewBox="0 0 64 64"><defs><style>.cls-1{fill:#d9ebf4;}.cls-2{fill:#c6e2f4;}.cls-26,.cls-27,.cls-3{fill:none;stroke:#041256;stroke-linecap:round;stroke-linejoin:round;}.cls-3{stroke-width:2px;}.cls-4{fill:#753d2c;}.cls-5{fill:#562b22;}.cls-6{fill:#8e4c3d;}.cls-7{fill:#ea6c78;}.cls-8{fill:#eaa2a9;}.cls-9{fill:#d15062;}.cls-10{fill:#ffd2d9;}.cls-11{fill:#4ba3af;}.cls-12{fill:#d38571;}.cls-13{fill:#e5a691;}.cls-14{fill:#f2b9a0;}.cls-15{fill:#ffcdc0;}.cls-16{fill:#d38d7a;}.cls-17{fill:#a6e8e8;}.cls-18{fill:#d38d7f;}.cls-19{fill:#d6957f;}.cls-20{fill:#041256;}.cls-21{fill:#7ea8aa;}.cls-22{fill:#658e8e;}.cls-23{fill:#9ac7cc;}.cls-24{fill:#59e2be;}.cls-25{fill:#8cf9da;}.cls-27{stroke-dasharray:0.5 2;}.cls-28{fill:#42cea6;}.cls-29{fill:#fff;}</style></defs><title>woman, user, account, gamer, virtual, reality, glasses</title><path class="cls-1" d="M55.79,20.73h2.43a.76.76,0,0,0,0-1.52H57a.46.46,0,0,1-.46-.46.46.46,0,0,0-.46-.46H53.66a.76.76,0,1,0,0,1.52h1.21a.46.46,0,0,1,.46.46A.46.46,0,0,0,55.79,20.73Z"/><path class="cls-1" d="M53.82,21.92H52.41a.26.26,0,0,0-.26.26.26.26,0,0,1-.26.26h-.7a.44.44,0,1,0,0,.88h1.41a.26.26,0,0,0,.26-.26.26.26,0,0,1,.26-.26h.7a.44.44,0,0,0,0-.88Z"/><path class="cls-1" d="M58.53,14.23H57.12a.26.26,0,0,0-.26.26.26.26,0,0,1-.26.26h-.7a.44.44,0,0,0,0,.88H57.3a.26.26,0,0,0,.26-.26.26.26,0,0,1,.26-.26h.7a.44.44,0,0,0,0-.88Z"/><circle class="cls-1" cx="55.94" cy="28.83" r="0.63"/><circle class="cls-1" cx="55.94" cy="23.78" r="0.61"/><circle class="cls-1" cx="58.97" cy="25.03" r="0.98"/><circle class="cls-1" cx="59.57" cy="17.42" r="0.32"/><circle class="cls-1" cx="49.57" cy="25.03" r="0.39"/><circle class="cls-1" cx="52.5" cy="26.24" r="1.02"/><circle class="cls-1" cx="48.53" cy="22.28" r="0.35"/><path class="cls-1" d="M16.56,33h0a.5.5,0,0,1,.5-.5h2.67a.83.83,0,0,1,.83.83h0a.83.83,0,0,1-.83.83H18.39a.5.5,0,0,0-.5.5h0a.5.5,0,0,1-.5.5H14.72a.83.83,0,0,1-.83-.83h0a.83.83,0,0,1,.83-.83h1.34A.5.5,0,0,0,16.56,33Z"/><path class="cls-1" d="M21.39,36.77h0a.29.29,0,0,0-.29-.29H19.55a.48.48,0,0,0-.48.48h0a.48.48,0,0,0,.48.48h.77a.29.29,0,0,1,.29.29h0a.29.29,0,0,0,.29.29h1.55a.48.48,0,0,0,.48-.48h0a.48.48,0,0,0-.48-.48h-.77A.29.29,0,0,1,21.39,36.77Z"/><circle class="cls-1" cx="18.09" cy="44.67" r="0.7"/><circle class="cls-1" cx="17.22" cy="38.52" r="0.67"/><circle class="cls-1" cx="13.89" cy="39.89" r="1.08"/><circle class="cls-1" cx="13.24" cy="31.52" r="0.35"/><circle class="cls-1" cx="24.22" cy="39.89" r="0.43"/><circle class="cls-1" cx="21" cy="45.54" r="1.12"/><circle class="cls-1" cx="25.36" cy="36.86" r="0.39"/><path class="cls-1" d="M51.54,35.44h0a.5.5,0,0,1,.5-.5h2.67a.83.83,0,0,1,.83.83h0a.83.83,0,0,1-.83.83H53.38a.5.5,0,0,0-.5.5h0a.5.5,0,0,1-.5.5H49.71a.83.83,0,0,1-.83-.83h0a.83.83,0,0,1,.83-.83H51A.5.5,0,0,0,51.54,35.44Z"/><path class="cls-1" d="M56.38,39.21h0a.29.29,0,0,0-.29-.29H54.54a.48.48,0,0,0-.48.48h0a.48.48,0,0,0,.48.48h.77a.29.29,0,0,1,.29.29h0a.29.29,0,0,0,.29.29h1.55a.48.48,0,0,0,.48-.48h0a.48.48,0,0,0-.48-.48h-.77A.29.29,0,0,1,56.38,39.21Z"/><circle class="cls-1" cx="53.08" cy="47.11" r="0.7"/><circle class="cls-1" cx="52.2" cy="40.96" r="0.67"/><circle class="cls-1" cx="48.87" cy="42.33" r="1.08"/><circle class="cls-1" cx="48.22" cy="33.96" r="0.35"/><circle class="cls-1" cx="59.2" cy="42.33" r="0.43"/><circle class="cls-1" cx="55.99" cy="43.66" r="1.12"/><circle class="cls-1" cx="60.35" cy="39.3" r="0.39"/><path class="cls-2" d="M3,60.5V33.22a.89.89,0,0,1,.89-.89h.93a.89.89,0,0,1,.89.89v2.27a.89.89,0,0,0,.89.89h3a.89.89,0,0,1,.89.89V47.65a.89.89,0,0,0,.89.89h1.85a.89.89,0,0,1,.89.89V56a.89.89,0,0,0,.89.89h.9a.89.89,0,0,0,.89-.89V54.83a.89.89,0,0,1,.89-.89h.81a.89.89,0,0,0,.89-.89V51.52a.89.89,0,0,1,.89-.89H25.1a.89.89,0,0,0,.89-.89v-.91a.89.89,0,0,1,.89-.89h15.4a.89.89,0,0,1,.63.26l4.14,4.14a.89.89,0,0,0,.63.26h1.24a.89.89,0,0,1,.89.89v3a.89.89,0,0,0,.89.89h.51a.89.89,0,0,0,.89-.89V56a.89.89,0,0,1,.89-.89h.65a.89.89,0,0,0,.89-.89.89.89,0,0,1,.89-.89h4.63a.89.89,0,0,1,.89.89V60.5Z"/><line class="cls-3" x1="3" y1="60.5" x2="61" y2="60.5"/><path class="cls-4" d="M19,28.06s.35,6.33-4.1,7.77S11.09,44.92,21,43.5c5.65-.8,8.4.32,9.72,1.45Z"/><path class="cls-5" d="M30.76,44.95,22.38,32.89c-.18,2-1,5.32-4,6.33l-.06,0a2.29,2.29,0,0,0,.88,4.43A16.5,16.5,0,0,0,21,43.5C26.69,42.7,29.44,43.82,30.76,44.95Z"/><path class="cls-6" d="M19,28.06s.2,3.88-1.84,6.26h0a1.63,1.63,0,0,0,3.08.73,10.42,10.42,0,0,0,1-3.82Z"/><path class="cls-6" d="M15.88,38.54a1.62,1.62,0,0,0,.62-1.26V35a4.92,4.92,0,0,1-1.58.86c-3.23,1-3.77,5.36,0,7.1A3.53,3.53,0,0,1,15.88,38.54Z"/><path class="cls-4" d="M30.76,44.95,32,46.66A3.48,3.48,0,0,0,30.76,44.95Z"/><path class="cls-3" d="M19,28.06s.35,6.33-4.1,7.77S11.09,44.92,21,43.5c5.65-.8,8.4.32,9.72,1.45Z"/><path class="cls-3" d="M30.76,44.95,32,46.66A3.48,3.48,0,0,0,30.76,44.95Z"/><path class="cls-4" d="M45,28.06s-.35,6.33,4.1,7.77S52.92,44.92,43,43.5c-5.65-.8-8.4.32-9.72,1.45Z"/><path class="cls-5" d="M33.24,44.95l8.38-12.06c.18,2,1,5.32,4,6.33l.06,0a2.29,2.29,0,0,1-.88,4.43A16.5,16.5,0,0,1,43,43.5C37.31,42.7,34.56,43.82,33.24,44.95Z"/><path class="cls-6" d="M45,28.06s-.2,3.88,1.84,6.26h0a1.63,1.63,0,0,1-3.08.73,10.42,10.42,0,0,1-1-3.82Z"/><path class="cls-6" d="M48.12,38.54a1.62,1.62,0,0,1-.62-1.26V35a4.92,4.92,0,0,0,1.58.86c3.23,1,3.77,5.36,0,7.1A3.53,3.53,0,0,0,48.12,38.54Z"/><path class="cls-4" d="M33.24,44.95,32,46.66A3.48,3.48,0,0,1,33.24,44.95Z"/><path class="cls-3" d="M45,28.06s-.35,6.33,4.1,7.77S52.92,44.92,43,43.5c-5.65-.8-8.4.32-9.72,1.45Z"/><path class="cls-3" d="M33.24,44.95,32,46.66A3.48,3.48,0,0,1,33.24,44.95Z"/><path class="cls-7" d="M38.68,39.42l-.4-4.48H25.72l-.4,4.48a4.26,4.26,0,0,1-3.09,3.75c-10,2.7-17.17,9.44-17.17,17.33H58.93c0-7.89-7.12-14.63-17.17-17.33A4.26,4.26,0,0,1,38.68,39.42Z"/><path class="cls-8" d="M29.95,61.5a1,1,0,0,1-1-1V51.89a17.46,17.46,0,0,1,1.46-7L31,43.5a1,1,0,1,1,1.83.8l-.6,1.37a15.47,15.47,0,0,0-1.3,6.22V60.5A1,1,0,0,1,29.95,61.5Z"/><path class="cls-9" d="M41.77,43.17a4.26,4.26,0,0,1-3.09-3.75l-.4-4.48H31.76l.19,2.16A4.26,4.26,0,0,0,35,40.86a29.08,29.08,0,0,1,10.73,5.27c5,4,2,12.06-4.39,12.06H37.74a2.42,2.42,0,0,1-2.42-2.42V53.4a15.57,15.57,0,0,1,1.3-6.22l.6-1.37a1,1,0,1,0-1.83-.8l-.6,1.37a17.57,17.57,0,0,0-1.46,7v2.36a2.42,2.42,0,0,1-2.42,2.42H5.29a13,13,0,0,0-.23,2.31H58.93C58.93,52.61,51.81,45.87,41.77,43.17Z"/><circle class="cls-10" cx="43.39" cy="53.98" r="2.31"/><path class="cls-7" d="M30.9,58.19h-2V60.5h2V58.18Z"/><path class="cls-8" d="M14.75,46.24C8.84,49.65,5.07,54.77,5.07,60.5H7.22c.47-4.08,2.86-7.79,6.54-10.71a2.65,2.65,0,0,0,1-2.08Z"/><path class="cls-7" d="M5.29,58.19a13,13,0,0,0-.23,2.31H7.22a13.22,13.22,0,0,1,.5-2.31Z"/><path class="cls-8" d="M38.28,34.94H25.72l-.4,4.42a4.34,4.34,0,0,1-3.14,3.82,32.43,32.43,0,0,0-5.24,1.9v1.23a.8.8,0,0,0,1.16.72,31.72,31.72,0,0,1,6.19-2.37,4.26,4.26,0,0,0,3.09-3.75l.4-4.48H38.41Z"/><path class="cls-11" d="M43.83,44.67a30.5,30.5,0,0,1,8.63,3.76,29,29,0,0,0-10.7-5.26l-.19-.07A4.13,4.13,0,0,0,43.83,44.67Z"/><path class="cls-12" d="M39.23,41.18a4.37,4.37,0,0,1-.56-1.76l-.4-4.48H25.72l-.4,4.48a4.37,4.37,0,0,1-.56,1.76,14.93,14.93,0,0,0,4.73,1.39,1.92,1.92,0,0,1,1.43,1l.36.68a.81.81,0,0,0,1.44,0l.36-.68a1.92,1.92,0,0,1,1.43-1A14.93,14.93,0,0,0,39.23,41.18Z"/><path class="cls-13" d="M31,42.08l-4.79-3.17-.93.48v0a4.37,4.37,0,0,1-.56,1.76,14.94,14.94,0,0,0,4.73,1.39,1.92,1.92,0,0,1,1.43,1l.36.68a.78.78,0,0,0,.26.27Z"/><path class="cls-3" d="M39.23,41.18a4.37,4.37,0,0,1-.56-1.76l-.4-4.48H25.72l-.4,4.48a4.37,4.37,0,0,1-.56,1.76,14.93,14.93,0,0,0,4.73,1.39,1.92,1.92,0,0,1,1.43,1l.36.68a.81.81,0,0,0,1.44,0l.36-.68a1.92,1.92,0,0,1,1.43-1A14.93,14.93,0,0,0,39.23,41.18Z"/><path class="cls-3" d="M38.68,39.42l-.4-4.48H25.72l-.4,4.48a4.26,4.26,0,0,1-3.09,3.75c-10,2.7-17.17,9.44-17.17,17.33H58.93c0-7.89-7.12-14.63-17.17-17.33A4.26,4.26,0,0,1,38.68,39.42Z"/><path class="cls-14" d="M32,39.3h0A11.39,11.39,0,0,1,20.61,27.92V22.11A8.13,8.13,0,0,1,28.75,14h6.51a8.13,8.13,0,0,1,8.13,8.13v5.81A11.39,11.39,0,0,1,32,39.3Z"/><path class="cls-15" d="M33.35,38.31A11.39,11.39,0,0,1,22,26.93V21.12a8.1,8.1,0,0,1,2.68-6,8.12,8.12,0,0,0-4,7v5.81a11.38,11.38,0,0,0,18.79,8.64A11.32,11.32,0,0,1,33.35,38.31Z"/><path class="cls-13" d="M43.39,27.92V22.11A8.13,8.13,0,0,0,35.25,14H28.75a8.13,8.13,0,0,0-8.13,8.13v.61l1.06,1.67,7.51,2.85A4.38,4.38,0,0,1,32,31.33v8A11.39,11.39,0,0,0,43.39,27.92Z"/><path class="cls-16" d="M33.28,28.75l.42.42a5.68,5.68,0,0,0,4,1.66h0a5.68,5.68,0,0,1,4,1.66l.47.47a11.32,11.32,0,0,0,1.19-5v-1.3Z"/><path class="cls-17" d="M38.93,14.86a8.11,8.11,0,0,1,3.22,6.47v5.81A11.39,11.39,0,0,1,32,38.45v.85A11.39,11.39,0,0,0,43.39,27.92V22.11A8.12,8.12,0,0,0,38.93,14.86Z"/><path class="cls-18" d="M35.25,14H28.75a8.13,8.13,0,0,0-8.13,8.13v.61l1.06,1.67.15.06.29-1.1a16.18,16.18,0,0,0,5.41-.4A21.93,21.93,0,0,1,24.3,24.4c-.47.17-.93.32-1.39.45l2.08.79a19.86,19.86,0,0,0,6.26-1.24,21.8,21.8,0,0,0,3.38-1.57h0l0,0,3-2.21a2.25,2.25,0,0,1,2.24-.26,2.56,2.56,0,0,1,1.53,2.34v.11l1.95,3.57V22.11A8.13,8.13,0,0,0,35.25,14Z"/><path class="cls-3" d="M32,39.3h0A11.39,11.39,0,0,1,20.61,27.92V22.11A8.13,8.13,0,0,1,28.75,14h6.51a8.13,8.13,0,0,1,8.13,8.13v5.81A11.39,11.39,0,0,1,32,39.3Z"/><path class="cls-19" d="M20.61,30h-.28a3.39,3.39,0,0,1-3.39-3.39h0a3.39,3.39,0,0,1,3.39-3.39h.28Z"/><path class="cls-14" d="M17.95,27.89a3.39,3.39,0,0,1,2.67-3.31V23.25h-.28a3.38,3.38,0,0,0-2.07,6.05A3.36,3.36,0,0,1,17.95,27.89Z"/><path class="cls-3" d="M20.61,30h-.28a3.39,3.39,0,0,1-3.39-3.39h0a3.39,3.39,0,0,1,3.39-3.39h.28Z"/><path class="cls-19" d="M43.39,30h.28a3.39,3.39,0,0,0,3.39-3.39h0a3.39,3.39,0,0,0-3.39-3.39h-.28Z"/><path class="cls-14" d="M46.05,27.89a3.39,3.39,0,0,0-2.67-3.31V23.25h.28a3.38,3.38,0,0,1,2.07,6.05A3.36,3.36,0,0,0,46.05,27.89Z"/><path class="cls-3" d="M43.39,30h.28a3.39,3.39,0,0,0,3.39-3.39h0a3.39,3.39,0,0,0-3.39-3.39h-.28Z"/><path class="cls-4" d="M32,9c-9.81,0-13.1,5.7-13.11,12.75h0v1.79L20.61,26,21,24.38l.24-.11a7.56,7.56,0,0,0,5.22.55l.79-.23a27.76,27.76,0,0,0,5.92-2.68l3.85-2.28a2.35,2.35,0,0,1,2.22-.36,2.56,2.56,0,0,1,1.64,2.38v.11a3,3,0,0,0,.62,1.82L43.39,26l1.73-2.58V21.82C45.11,14.76,41.83,9,32,9Z"/><path class="cls-6" d="M37.56,19.35c-.76.28-9.49,3.46-12.2,2S20,23.1,20,23.1l-.41,1.47,1,1.45L21,24.38l.24-.11a7.56,7.56,0,0,0,5.22.55l.79-.23a27.76,27.76,0,0,0,5.92-2.68l3.85-2.28A2.59,2.59,0,0,1,37.56,19.35Z"/><path class="cls-20" d="M21.28,24.28a10.87,10.87,0,0,0,3.07.39,9.7,9.7,0,0,0,2.95-.6c2-.61,3.89-1.42,5.92-2.15A15.91,15.91,0,0,1,27.61,25a13,13,0,0,1-1.6.39,6.58,6.58,0,0,1-1.68,0A6.18,6.18,0,0,1,21.28,24.28Z"/><path class="cls-5" d="M45.11,23.44V21.82a20.3,20.3,0,0,0-.11-2h-.43a3.72,3.72,0,0,1-2.16-.69h0a3.72,3.72,0,0,0-4-.23l-.82.45a2.24,2.24,0,0,1,1.65,0,2.56,2.56,0,0,1,1.64,2.38v.11a3,3,0,0,0,.62,1.82L43.39,26Z"/><path class="cls-20" d="M33.22,21.92A15.71,15.71,0,0,1,35,20.46c.6-.45,1.22-.86,1.86-1.25l0,0a2.79,2.79,0,0,1,1.49-.58,2.47,2.47,0,0,1,1.55.4,2.66,2.66,0,0,1,1,1.16,2.27,2.27,0,0,1,.13,1.43,2.73,2.73,0,0,0-1.51-1.87,1.87,1.87,0,0,0-1.05-.16,2.32,2.32,0,0,0-1,.4l0,0h0c-.65.37-1.31.72-2,1A15.71,15.71,0,0,1,33.22,21.92Z"/><path class="cls-6" d="M20,23.45v0h0c0-7,3.3-12.75,13.11-12.75,6.7,0,10.35,2.66,12,6.59C43.72,12.69,40,9.49,32.68,9.49c-9.81,0-13.1,5.7-13.11,12.75h0s0,0,0,0V24l.43.61Z"/><path class="cls-3" d="M43.39,26l1.73-2.58V21.82C45.11,14.76,41.83,9,32,9s-13.1,5.7-13.11,12.75h0v1.79L20.61,26"/><path class="cls-3" d="M32.91,43.9l-.6,1.37a16.57,16.57,0,0,0-1.38,6.62V60.5"/><path class="cls-21" d="M46.77,31.28l.3-.09.19-.08.23-.12.21-.13.09-.07a2.8,2.8,0,0,0,.52-.53h0a2.84,2.84,0,0,0,.21-.34l0,0a2.8,2.8,0,0,0,.16-.37,2.75,2.75,0,0,1-.87.15,2.68,2.68,0,0,1-.7-.1,2.79,2.79,0,0,1-1.69,1.82h.65a2.78,2.78,0,0,0,.51-.05Z"/><path class="cls-21" d="M45.13,23.07V22.8H43.39V23h1.08A2.76,2.76,0,0,1,45.13,23.07Z"/><path class="cls-21" d="M43.39,22.8h2.7a2.78,2.78,0,0,1,2.78,2.78v3a2.78,2.78,0,0,1-2.78,2.78h-2.7a0,0,0,0,1,0,0V22.8A0,0,0,0,1,43.39,22.8Z"/><path class="cls-22" d="M47.83,29.65a2.7,2.7,0,0,1-2.7-2.7V22.8H43.39v8.57h2.7a2.77,2.77,0,0,0,2.62-1.87A2.75,2.75,0,0,1,47.83,29.65Z"/><path class="cls-23" d="M46.09,22.8h-2.7V23h1.08a2.78,2.78,0,0,1,2.78,2.78v3a2.78,2.78,0,0,1-1.8,2.6h.65a2.78,2.78,0,0,0,2.78-2.78v-3A2.78,2.78,0,0,0,46.09,22.8Z"/><path class="cls-3" d="M43.39,22.8h2.7a2.78,2.78,0,0,1,2.78,2.78v3a2.78,2.78,0,0,1-2.78,2.78h-2.7a0,0,0,0,1,0,0V22.8A0,0,0,0,1,43.39,22.8Z"/><path class="cls-24" d="M33.07,24.63v1.59a2.16,2.16,0,0,0,2.16,2.16h3.65a2.16,2.16,0,0,0,1.62-.73l.39-.44a1.69,1.69,0,0,1,1.26-.57h1.24V22.8H34.9A1.83,1.83,0,0,0,33.07,24.63Z"/><polygon class="cls-25" points="36.04 28.06 34.38 28.06 36.75 24.09 38.41 24.09 36.04 28.06"/><polygon class="cls-25" points="39.18 24.09 36.8 28.06 37.28 28.06 39.65 24.09 39.18 24.09"/><polygon class="cls-25" points="41.46 24.09 39.08 28.06 39.56 28.06 41.93 24.09 41.46 24.09"/><polygon class="cls-25" points="40.6 24.09 38.23 28.06 38.41 28.06 40.79 24.09 40.6 24.09"/><path class="cls-25" d="M33.91,27.71V26.12a1.83,1.83,0,0,1,1.83-1.83h7.64V22.8H34.9a1.83,1.83,0,0,0-1.83,1.83v1.59a2.15,2.15,0,0,0,.87,1.72A2.14,2.14,0,0,1,33.91,27.71Z"/><path class="cls-3" d="M33.07,24.63v1.59a2.16,2.16,0,0,0,2.16,2.16h3.65a2.16,2.16,0,0,0,1.62-.73l.39-.44a1.69,1.69,0,0,1,1.26-.57h1.24V22.8H34.9A1.83,1.83,0,0,0,33.07,24.63Z"/><circle class="cls-3" cx="51.81" cy="18.9" r="1.07"/><circle class="cls-3" cx="18.89" cy="4.96" r="0.39"/><path class="cls-26" d="M45.9,5.62A2.28,2.28,0,0,0,44.29,5H18.89"/><path class="cls-26" d="M51.81,18.9V12.48a2.28,2.28,0,0,0-.67-1.61"/><line class="cls-27" x1="51.14" y1="10.86" x2="45.9" y2="5.62"/><circle class="cls-24" cx="9.7" cy="8.94" r="6.44"/><circle class="cls-28" cx="9.7" cy="8.94" r="4.12"/><circle class="cls-3" cx="9.7" cy="8.94" r="6.44"/><path class="cls-29" d="M9.7,7.38A3.1,3.1,0,0,0,7,8.94a3.08,3.08,0,0,0,5.36,0A3.1,3.1,0,0,0,9.7,7.38Z"/><path class="cls-24" d="M9.7,8v.89H8.81A.89.89,0,1,0,9.7,8Z"/><line class="cls-26" x1="7.44" y1="18.9" x2="14.13" y2="18.9"/><line class="cls-26" x1="7.44" y1="21.38" x2="14.13" y2="21.38"/><line class="cls-26" x1="7.44" y1="23.86" x2="10.13" y2="23.86"/><line class="cls-26" x1="12.24" y1="23.86" x2="12.24" y2="23.86"/></svg>