<svg id="Layer_1" data-name="Layer 1" xmlns="http://www.w3.org/2000/svg" viewBox="0 0 64 64"><defs><style>.cls-1{fill:#d9ebf4;}.cls-2{fill:#c6e2f4;}.cls-3{fill:none;stroke:#041256;stroke-linecap:round;stroke-linejoin:round;stroke-width:2px;}.cls-4{fill:#14918e;}.cls-5{fill:#3dc18b;}.cls-6{fill:#67dba9;}.cls-7{fill:#42567c;}.cls-8{fill:#56709b;}.cls-9{fill:#384666;}.cls-10{fill:#4098e2;}.cls-11{fill:#59c3f7;}.cls-12{fill:#041256;}.cls-13{fill:#a7aec1;}.cls-14{fill:#b8bdcc;}.cls-15{fill:#d9dde8;}.cls-16{fill:#83e7ea;}.cls-17{fill:#efab89;}.cls-18{fill:#fcc3a9;}.cls-19{fill:#dd8573;}.cls-20{fill:#172a72;}.cls-21{fill:#c15272;}.cls-22{fill:#db678e;}.cls-23{fill:#f47aa9;}.cls-24{fill:#1952af;}.cls-25{fill:#3d79d1;}.cls-26{fill:#104199;}.cls-27{fill:#dd9033;}.cls-28{fill:#ed9f4a;}.cls-29{fill:#fcbd7e;}.cls-30{fill:#4bb769;}.cls-31{fill:#6ad383;}.cls-32{fill:#348964;}</style></defs><title>team, group, people, management, business, work, employees</title><path class="cls-1" d="M18.37,10.7H20.8a.76.76,0,0,0,0-1.52H19.59a.46.46,0,0,1-.46-.46.46.46,0,0,0-.46-.46H16.25a.76.76,0,1,0,0,1.52h1.21a.46.46,0,0,1,.46.46A.46.46,0,0,0,18.37,10.7Z"/><path class="cls-1" d="M16.41,11.89H15a.26.26,0,0,0-.26.26.26.26,0,0,1-.26.26h-.7a.44.44,0,1,0,0,.88h1.41a.26.26,0,0,0,.26-.26.26.26,0,0,1,.26-.26h.7a.44.44,0,0,0,0-.88Z"/><path class="cls-1" d="M21.12,4.19H19.71a.26.26,0,0,0-.26.26.26.26,0,0,1-.26.26h-.7a.44.44,0,0,0,0,.88h1.41a.26.26,0,0,0,.26-.26.26.26,0,0,1,.26-.26h.7a.44.44,0,0,0,0-.88Z"/><circle class="cls-1" cx="18.53" cy="18.8" r="0.63"/><circle class="cls-1" cx="18.53" cy="13.75" r="0.61"/><circle class="cls-1" cx="21.56" cy="15" r="0.98"/><circle class="cls-1" cx="22.15" cy="7.38" r="0.32"/><circle class="cls-1" cx="12.16" cy="15" r="0.39"/><circle class="cls-1" cx="15.09" cy="16.21" r="1.02"/><circle class="cls-1" cx="11.12" cy="12.24" r="0.35"/><path class="cls-1" d="M50.55,27.38h0a.5.5,0,0,1,.5-.5h2.67a.83.83,0,0,1,.83.83h0a.83.83,0,0,1-.83.83H52.38a.5.5,0,0,0-.5.5h0a.5.5,0,0,1-.5.5H48.71a.83.83,0,0,1-.83-.83h0a.83.83,0,0,1,.83-.83H50A.5.5,0,0,0,50.55,27.38Z"/><path class="cls-1" d="M55.38,31.15h0a.29.29,0,0,0-.29-.29H53.54a.48.48,0,0,0-.48.48h0a.48.48,0,0,0,.48.48h.77a.29.29,0,0,1,.29.29h0a.29.29,0,0,0,.29.29h1.55a.48.48,0,0,0,.48-.48h0a.48.48,0,0,0-.48-.48h-.77A.29.29,0,0,1,55.38,31.15Z"/><circle class="cls-1" cx="52.09" cy="39.06" r="0.7"/><circle class="cls-1" cx="51.21" cy="32.9" r="0.67"/><circle class="cls-1" cx="47.88" cy="34.27" r="1.08"/><circle class="cls-1" cx="47.23" cy="25.91" r="0.35"/><circle class="cls-1" cx="58.21" cy="34.27" r="0.43"/><circle class="cls-1" cx="55" cy="35.61" r="1.12"/><circle class="cls-1" cx="59.35" cy="31.25" r="0.39"/><path class="cls-2" d="M3,60.83V33.55a.89.89,0,0,1,.89-.89h.93a.89.89,0,0,1,.89.89v2.27a.89.89,0,0,0,.89.89h3a.89.89,0,0,1,.89.89V48a.89.89,0,0,0,.89.89h1.85a.89.89,0,0,1,.89.89V56.3a.89.89,0,0,0,.89.89h.9a.89.89,0,0,0,.89-.89V55.16a.89.89,0,0,1,.89-.89h.81a.89.89,0,0,0,.89-.89V51.85a.89.89,0,0,1,.89-.89H25.1a.89.89,0,0,0,.89-.89v-.91a.89.89,0,0,1,.89-.89h15.4a.89.89,0,0,1,.63.26l4.14,4.14a.89.89,0,0,0,.63.26h1.24a.89.89,0,0,1,.89.89v3a.89.89,0,0,0,.89.89h.51a.89.89,0,0,0,.89-.89V56.3a.89.89,0,0,1,.89-.89h.65a.89.89,0,0,0,.89-.89.89.89,0,0,1,.89-.89h4.63a.89.89,0,0,1,.89.89v6.31Z"/><line class="cls-3" x1="3" y1="60.83" x2="61" y2="60.83"/><polyline class="cls-3" points="37.91 37.05 32 33.64 26.09 37.05"/><line class="cls-3" x1="32" y1="33.64" x2="32" y2="26.22"/><circle class="cls-4" cx="32" cy="15.39" r="12.22"/><circle class="cls-5" cx="32" cy="15.39" r="9.9"/><circle class="cls-6" cx="32" cy="15.39" r="8.55"/><path class="cls-7" d="M40.75,19.06a17.49,17.49,0,0,0-17.49,0,6.07,6.07,0,0,0-2.08,2,12.21,12.21,0,0,0,21.65,0A6.06,6.06,0,0,0,40.75,19.06Z"/><path class="cls-8" d="M23.25,21.38a17.49,17.49,0,0,1,17.49,0,5.93,5.93,0,0,1,1.27,1,12.23,12.23,0,0,0,.81-1.32,6.06,6.06,0,0,0-2.08-2,17.49,17.49,0,0,0-17.49,0,6.07,6.07,0,0,0-2.08,2A12.25,12.25,0,0,0,22,22.38,5.93,5.93,0,0,1,23.25,21.38Z"/><path class="cls-9" d="M40.75,19.06A17.48,17.48,0,0,0,29.47,16.9L26.05,19,28,24.93a.67.67,0,0,0,.64.45.67.67,0,0,1,.65.49l.21.74H27.14a12.21,12.21,0,0,0,15.68-5.54A6.06,6.06,0,0,0,40.75,19.06Z"/><path class="cls-7" d="M39.18,18.27c-.3-.14-.6-.26-.91-.38l-.38-.14q-.53-.19-1.07-.34l-.2-.06c-.45-.12-.91-.23-1.36-.32h0c-.43-.08-.87-.14-1.31-.19l-.21,0c-.42,0-.83-.07-1.25-.08h-.12a17.57,17.57,0,0,0-2.85.18h0L26.05,19l.32,1a17.49,17.49,0,0,1,14.38,1.41,5.93,5.93,0,0,1,1.27,1h0a12.26,12.26,0,0,0,.81-1.32,6.06,6.06,0,0,0-2.08-2c-.39-.23-.8-.43-1.21-.63Z"/><path class="cls-3" d="M40.75,19.06a17.49,17.49,0,0,0-17.49,0,6.07,6.07,0,0,0-2.08,2,12.21,12.21,0,0,0,21.65,0A6.06,6.06,0,0,0,40.75,19.06Z"/><path class="cls-10" d="M30.73,27.61h2.55a13.44,13.44,0,0,0-.76-3,.64.64,0,0,1,.14-.68,1.77,1.77,0,0,0,.46-1.19A1.79,1.79,0,0,0,32,21.13a1.79,1.79,0,0,0-1.12,1.66A1.77,1.77,0,0,0,31.35,24a.64.64,0,0,1,.14.68A13.43,13.43,0,0,0,30.73,27.61Z"/><path class="cls-11" d="M31.65,24a1.78,1.78,0,0,1,.5-2.78L32,21.13a1.79,1.79,0,0,0-1.12,1.66A1.77,1.77,0,0,0,31.35,24a.64.64,0,0,1,.14.68,13.44,13.44,0,0,0-.76,3H31a13.44,13.44,0,0,1,.76-3A.64.64,0,0,0,31.65,24Z"/><path class="cls-11" d="M31.79,24l-.33.19a.65.65,0,0,1,.07.24l.38-.21c.39-.23.75-.46,1.07-.68a1.75,1.75,0,0,0,.11-.37A14.47,14.47,0,0,1,31.79,24Z"/><path class="cls-11" d="M31.91,25.12l.63-.39,0-.07a.58.58,0,0,1,0-.17l-.69.42-.49.27-.1.32Z"/><path class="cls-11" d="M31.91,26.08c.33-.19.63-.38.9-.56l-.07-.24c-.29.19-.6.4-1,.6l-.8.43-.07.3C31.23,26.45,31.56,26.28,31.91,26.08Z"/><path class="cls-11" d="M33,26.07c-.34.24-.74.5-1.18.75s-.7.39-1,.54c0,.08,0,.16,0,.25h.08c.34-.16.71-.35,1.09-.58s.79-.48,1.11-.71Z"/><path class="cls-11" d="M32.53,27.61c.24-.15.47-.31.66-.45l0-.26c-.3.22-.66.47-1.07.71Z"/><path class="cls-12" d="M32,21.13a1.79,1.79,0,0,1,1.12,1.66A1.77,1.77,0,0,1,32.65,24a.64.64,0,0,0-.14.68,13.35,13.35,0,0,1,.75,2.89c-.39,0-.8.06-1.2.06h-.12c-.4,0-.81,0-1.2-.06a13.34,13.34,0,0,1,.75-2.89.64.64,0,0,0-.14-.68,1.77,1.77,0,0,1-.46-1.19A1.79,1.79,0,0,1,32,21.13m0-1a1,1,0,0,0-.38.07,2.78,2.78,0,0,0-1.15,4.29,14.84,14.84,0,0,0-.73,2.89,1,1,0,0,0,.89,1.15c.41,0,.85.06,1.3.07h.13c.45,0,.89,0,1.3-.07a1,1,0,0,0,.89-1.15,14.84,14.84,0,0,0-.73-2.89,2.78,2.78,0,0,0-1.15-4.29,1,1,0,0,0-.38-.07Z"/><path class="cls-12" d="M28.86,16.81A4.74,4.74,0,0,0,32,20.93a4.74,4.74,0,0,0,3.14-4.12A15.1,15.1,0,0,0,28.86,16.81Z"/><ellipse class="cls-12" cx="32" cy="17.07" rx="3.89" ry="1.74"/><path class="cls-13" d="M32,15c-2.15,0-3.89.78-3.89,1.74l.76.14c0-.76,1.41-1.38,3.13-1.38s3.14.62,3.14,1.38l.76-.14C35.89,15.75,34.15,15,32,15Z"/><path class="cls-14" d="M28.86,16.81v-.57a.27.27,0,0,0-.47-.18l-.77.88a.75.75,0,0,0-.17.62,6.72,6.72,0,0,0,2.82,4.51.64.64,0,0,0,.82-.12l.91-1A4.74,4.74,0,0,1,28.86,16.81Z"/><path class="cls-15" d="M30.53,21.81a6.72,6.72,0,0,1-2.82-4.51.75.75,0,0,1,.17-.62l.59-.68a.27.27,0,0,0-.09.07l-.77.88a.75.75,0,0,0-.17.62,6.72,6.72,0,0,0,2.82,4.51.64.64,0,0,0,.82-.12l.17-.19A.64.64,0,0,1,30.53,21.81Z"/><path class="cls-14" d="M35.14,16.81v-.57a.27.27,0,0,1,.47-.18l.77.88a.75.75,0,0,1,.17.62,6.72,6.72,0,0,1-2.82,4.51.64.64,0,0,1-.82-.12l-.91-1A4.74,4.74,0,0,0,35.14,16.81Z"/><path class="cls-16" d="M36.38,16.94l-.77-.88,0,0,.71.81a.75.75,0,0,1,.17.62A6.72,6.72,0,0,1,33.62,22a.64.64,0,0,1-.78-.09l.07.08a.64.64,0,0,0,.82.12,6.72,6.72,0,0,0,2.82-4.51A.75.75,0,0,0,36.38,16.94Z"/><path class="cls-12" d="M32,15a5.23,5.23,0,0,1,3.6,1.08h0l.77.88a.75.75,0,0,1,.17.62,6.72,6.72,0,0,1-2.82,4.51.63.63,0,0,1-.34.1.65.65,0,0,1-.48-.22l-.91-1-.91,1a.65.65,0,0,1-.48.22.63.63,0,0,1-.34-.1,6.72,6.72,0,0,1-2.82-4.51.75.75,0,0,1,.17-.62l.77-.88h0A5.23,5.23,0,0,1,32,15m0-2a7.09,7.09,0,0,0-5,1.66l-.1.11-.77.88a2.74,2.74,0,0,0-.64,2.28,8.7,8.7,0,0,0,3.73,5.87,2.64,2.64,0,0,0,2.79,0,2.64,2.64,0,0,0,2.79,0,8.7,8.7,0,0,0,3.73-5.87,2.74,2.74,0,0,0-.64-2.28l-.77-.88-.1-.1A7.07,7.07,0,0,0,32,13Z"/><circle class="cls-3" cx="32" cy="15.39" r="12.22"/><path class="cls-17" d="M38.24,13V9.55A6.38,6.38,0,0,0,33.5,3.39h0a6.38,6.38,0,0,0-3.27,0h0a6.38,6.38,0,0,0-4.74,6.16V13a5.38,5.38,0,0,0,2.69,4.66l1.52.88a4.34,4.34,0,0,0,4.34,0l1.52-.88A5.38,5.38,0,0,0,38.24,13Z"/><path class="cls-18" d="M36.66,16.79l-1.52.88a4.34,4.34,0,0,1-4.34,0l-1.52-.88a5.38,5.38,0,0,1-2.69-4.66V8.66a6.36,6.36,0,0,1,1.87-4.49,6.37,6.37,0,0,0-3,5.38V13a5.38,5.38,0,0,0,2.69,4.66l1.52.88a4.34,4.34,0,0,0,4.34,0l1.52-.88a5.36,5.36,0,0,0,1.2-1Z"/><path class="cls-19" d="M38.23,10.72A6.36,6.36,0,0,0,34.82,5.3h0c-.18-.09-.36-.18-.54-.26a5.49,5.49,0,0,0-.77-.28,6.39,6.39,0,0,0-5.75,1.29,6.62,6.62,0,0,0-2.26,5.11v.94h5A1.47,1.47,0,0,1,32,13.54v5.59a4.33,4.33,0,0,0,2-.57l1.52-.88A5.38,5.38,0,0,0,38.24,13V10.72Z"/><path class="cls-12" d="M34.82,3.92h0c-.18-.09-.36-.18-.54-.26a5.49,5.49,0,0,0-.77-.28,6.39,6.39,0,0,0-5.75,1.29,6.62,6.62,0,0,0-2.26,5.11v.94h5a4.34,4.34,0,0,0,3.23-1.44.46.46,0,0,1,.68,0,4.34,4.34,0,0,0,3.23,1.44h.65V9.55A6.36,6.36,0,0,0,34.82,3.92Z"/><path class="cls-20" d="M34.82,3.92h0c-.18-.09-.36-.18-.54-.26a5.49,5.49,0,0,0-.77-.28,6.37,6.37,0,0,0-2.37-.17h0a6,6,0,0,0-1.83.5L29,3.89a6.36,6.36,0,0,0-.56.31l-.34.25c-.15.11-.29.22-.43.34s-.22.21-.33.32-.22.24-.33.36-.21.26-.31.4-.16.25-.24.37-.18.31-.27.47-.11.24-.16.36-.15.36-.21.54-.05.22-.08.33a6.28,6.28,0,0,0-.15.63h0a6.37,6.37,0,0,0-.08,1v1.17h.91a6.4,6.4,0,0,1,.55-2.14h.46a4.59,4.59,0,0,0,3.95-2.24A2.67,2.67,0,0,1,34.22,5l.15,0a5.49,5.49,0,0,1,.77.28c.19.08.37.16.54.26h0a6.41,6.41,0,0,1,2.19,1.89A6.39,6.39,0,0,0,34.82,3.92Z"/><path class="cls-3" d="M38.24,13V9.55A6.38,6.38,0,0,0,33.5,3.39h0a6.38,6.38,0,0,0-3.27,0h0a6.38,6.38,0,0,0-4.74,6.16V13a5.38,5.38,0,0,0,2.69,4.66l1.52.88a4.34,4.34,0,0,0,4.34,0l1.52-.88A5.38,5.38,0,0,0,38.24,13Z"/><path class="cls-17" d="M24.64,10.93h.86a0,0,0,0,1,0,0v2.85a0,0,0,0,1,0,0h-.27a1.72,1.72,0,0,1-1.72-1.72v0a1.13,1.13,0,0,1,1.13-1.13Z"/><path class="cls-3" d="M24.64,10.93h.86a0,0,0,0,1,0,0v2.85a0,0,0,0,1,0,0h-.27a1.72,1.72,0,0,1-1.72-1.72v0a1.13,1.13,0,0,1,1.13-1.13Z"/><path class="cls-17" d="M40,10.93h.27a0,0,0,0,1,0,0v2.85a0,0,0,0,1,0,0h-.86a1.13,1.13,0,0,1-1.13-1.13v0A1.72,1.72,0,0,1,40,10.93Z" transform="translate(78.47 24.72) rotate(-180)"/><path class="cls-3" d="M40,10.93h.27a0,0,0,0,1,0,0v2.85a0,0,0,0,1,0,0h-.86a1.13,1.13,0,0,1-1.13-1.13v0A1.72,1.72,0,0,1,40,10.93Z" transform="translate(78.47 24.72) rotate(-180)"/><circle class="cls-21" cx="15.22" cy="44.39" r="12.22"/><circle class="cls-22" cx="15.22" cy="44.39" r="9.9"/><circle class="cls-23" cx="15.22" cy="44.39" r="8.55"/><path class="cls-24" d="M24,48.06a17.49,17.49,0,0,0-17.49,0,6.06,6.06,0,0,0-2.08,2,12.21,12.21,0,0,0,21.65,0A6.06,6.06,0,0,0,24,48.06Z"/><path class="cls-25" d="M6.47,50.38a17.49,17.49,0,0,1,17.49,0,5.93,5.93,0,0,1,1.27,1A12.23,12.23,0,0,0,26,50.06a6.06,6.06,0,0,0-2.08-2,17.49,17.49,0,0,0-17.49,0,6.06,6.06,0,0,0-2.08,2,12.25,12.25,0,0,0,.81,1.32A5.93,5.93,0,0,1,6.47,50.38Z"/><path class="cls-26" d="M24,48.06A17.48,17.48,0,0,0,12.69,45.9L9.28,48l1.94,5.92a.67.67,0,0,0,.64.45.67.67,0,0,1,.65.49l.21.74H10.36A12.21,12.21,0,0,0,26,50.06,6.06,6.06,0,0,0,24,48.06Z"/><path class="cls-24" d="M22.4,47.27c-.3-.14-.6-.26-.91-.38l-.38-.14q-.53-.19-1.07-.34l-.2-.06c-.45-.12-.91-.23-1.36-.32h0c-.43-.08-.87-.14-1.31-.19l-.21,0c-.42,0-.83-.07-1.25-.08h-.12a17.57,17.57,0,0,0-2.85.18h0L9.28,48l.32,1A17.49,17.49,0,0,1,24,50.38a5.93,5.93,0,0,1,1.27,1h0A12.26,12.26,0,0,0,26,50.06a6.06,6.06,0,0,0-2.08-2c-.39-.23-.8-.43-1.21-.63Z"/><path class="cls-3" d="M24,48.06a17.49,17.49,0,0,0-17.49,0,6.06,6.06,0,0,0-2.08,2,12.21,12.21,0,0,0,21.65,0A6.06,6.06,0,0,0,24,48.06Z"/><path class="cls-10" d="M13.95,56.61h2.55a13.43,13.43,0,0,0-.76-3,.64.64,0,0,1,.14-.68,1.77,1.77,0,0,0,.46-1.19,1.79,1.79,0,0,0-1.12-1.66,1.79,1.79,0,0,0-1.12,1.66A1.77,1.77,0,0,0,14.57,53a.64.64,0,0,1,.14.68A13.44,13.44,0,0,0,13.95,56.61Z"/><path class="cls-11" d="M14.87,53a1.78,1.78,0,0,1,.5-2.78l-.15-.08a1.79,1.79,0,0,0-1.12,1.66A1.77,1.77,0,0,0,14.57,53a.64.64,0,0,1,.14.68,13.44,13.44,0,0,0-.76,3h.3a13.44,13.44,0,0,1,.76-3A.64.64,0,0,0,14.87,53Z"/><path class="cls-11" d="M15,53l-.33.19a.65.65,0,0,1,.07.24l.38-.21c.4-.23.75-.46,1.07-.68a1.75,1.75,0,0,0,.11-.37A14.47,14.47,0,0,1,15,53Z"/><path class="cls-11" d="M15.13,54.12l.63-.39,0-.07a.58.58,0,0,1,0-.17l-.69.42-.49.27-.1.32Z"/><path class="cls-11" d="M15.13,55.08c.33-.19.63-.38.9-.56L16,54.27c-.29.19-.6.4-1,.6l-.8.43-.07.3C14.45,55.45,14.78,55.28,15.13,55.08Z"/><path class="cls-11" d="M16.18,55.07c-.34.24-.74.5-1.18.75s-.7.39-1,.54c0,.08,0,.16,0,.25H14c.34-.16.71-.35,1.09-.58s.79-.48,1.11-.71Z"/><path class="cls-11" d="M15.75,56.61c.24-.15.47-.31.66-.45l0-.26c-.3.22-.66.47-1.07.71Z"/><path class="cls-12" d="M15.22,50.13a1.79,1.79,0,0,1,1.12,1.66A1.77,1.77,0,0,1,15.87,53a.64.64,0,0,0-.14.68,13.34,13.34,0,0,1,.75,2.89c-.39,0-.8.06-1.2.06h-.12c-.4,0-.81,0-1.2-.06a13.34,13.34,0,0,1,.75-2.89.64.64,0,0,0-.14-.68,1.77,1.77,0,0,1-.46-1.19,1.79,1.79,0,0,1,1.12-1.66m0-1a1,1,0,0,0-.38.07A2.78,2.78,0,0,0,13.7,53.5,14.83,14.83,0,0,0,13,56.39a1,1,0,0,0,.89,1.15c.41,0,.85.06,1.3.07h.13c.45,0,.89,0,1.3-.07a1,1,0,0,0,.89-1.15,14.84,14.84,0,0,0-.73-2.89,2.78,2.78,0,0,0-1.15-4.29,1,1,0,0,0-.38-.07Z"/><path class="cls-12" d="M12.08,45.81a4.74,4.74,0,0,0,3.14,4.12,4.74,4.74,0,0,0,3.14-4.12A15.1,15.1,0,0,0,12.08,45.81Z"/><ellipse class="cls-12" cx="15.22" cy="46.07" rx="3.89" ry="1.74"/><path class="cls-13" d="M15.22,44c-2.15,0-3.89.78-3.89,1.74l.76.14c0-.76,1.41-1.38,3.13-1.38s3.14.62,3.14,1.38l.76-.14C19.12,44.75,17.37,44,15.22,44Z"/><path class="cls-14" d="M12.08,45.81v-.57a.27.27,0,0,0-.47-.18l-.77.88a.75.75,0,0,0-.17.62,6.72,6.72,0,0,0,2.82,4.51.64.64,0,0,0,.82-.12l.91-1A4.74,4.74,0,0,1,12.08,45.81Z"/><path class="cls-15" d="M13.76,50.81a6.72,6.72,0,0,1-2.82-4.51.75.75,0,0,1,.17-.62L11.7,45a.27.27,0,0,0-.09.07l-.77.88a.75.75,0,0,0-.17.62,6.72,6.72,0,0,0,2.82,4.51.64.64,0,0,0,.82-.12l.17-.19A.64.64,0,0,1,13.76,50.81Z"/><path class="cls-14" d="M18.36,45.81v-.57a.27.27,0,0,1,.47-.18l.77.88a.74.74,0,0,1,.17.62A6.72,6.72,0,0,1,17,51.07a.64.64,0,0,1-.82-.12l-.91-1A4.74,4.74,0,0,0,18.36,45.81Z"/><path class="cls-16" d="M19.6,45.94l-.77-.88,0,0,.71.81a.75.75,0,0,1,.17.62A6.72,6.72,0,0,1,16.85,51a.64.64,0,0,1-.78-.09l.07.08a.64.64,0,0,0,.82.12,6.72,6.72,0,0,0,2.82-4.51A.75.75,0,0,0,19.6,45.94Z"/><path class="cls-12" d="M15.22,44a5.23,5.23,0,0,1,3.6,1.08h0l.77.88a.75.75,0,0,1,.17.62A6.72,6.72,0,0,1,17,51.07a.63.63,0,0,1-.34.1.65.65,0,0,1-.48-.22l-.91-1-.91,1a.65.65,0,0,1-.48.22.63.63,0,0,1-.34-.1,6.72,6.72,0,0,1-2.82-4.51.75.75,0,0,1,.17-.62l.77-.88h0A5.23,5.23,0,0,1,15.22,44m0-2a7.09,7.09,0,0,0-5,1.66l-.12.13-.75.85A2.74,2.74,0,0,0,8.7,46.9a8.7,8.7,0,0,0,3.73,5.87,2.64,2.64,0,0,0,2.79,0,2.64,2.64,0,0,0,2.79,0,8.7,8.7,0,0,0,3.73-5.87,2.74,2.74,0,0,0-.64-2.28l-.77-.88-.1-.1a7.07,7.07,0,0,0-5-1.67Z"/><circle class="cls-3" cx="15.22" cy="44.39" r="12.22"/><path class="cls-17" d="M21.47,42V38.55a6.38,6.38,0,0,0-4.74-6.16h0a6.38,6.38,0,0,0-3.27,0h0a6.38,6.38,0,0,0-4.74,6.16V42a5.38,5.38,0,0,0,2.69,4.66l1.52.88a4.34,4.34,0,0,0,4.34,0l1.52-.88A5.38,5.38,0,0,0,21.47,42Z"/><path class="cls-18" d="M19.88,45.79l-1.52.88a4.34,4.34,0,0,1-4.34,0l-1.52-.88a5.38,5.38,0,0,1-2.69-4.66V37.66a6.36,6.36,0,0,1,1.87-4.49,6.37,6.37,0,0,0-3,5.38V42a5.38,5.38,0,0,0,2.69,4.66l1.52.88a4.34,4.34,0,0,0,4.34,0l1.52-.88a5.36,5.36,0,0,0,1.2-1Z"/><path class="cls-19" d="M21.45,39.72A6.36,6.36,0,0,0,18,34.3h0c-.18-.09-.36-.18-.54-.26a5.49,5.49,0,0,0-.77-.28A6.39,6.39,0,0,0,11,35.06a6.62,6.62,0,0,0-2.26,5.11v.94h5a1.47,1.47,0,0,1,1.54,1.44v5.59a4.33,4.33,0,0,0,2-.57l1.52-.88A5.38,5.38,0,0,0,21.47,42V39.72Z"/><path class="cls-12" d="M18,32.92h0c-.18-.09-.36-.18-.54-.26a5.49,5.49,0,0,0-.77-.28A6.39,6.39,0,0,0,11,33.67a6.62,6.62,0,0,0-2.26,5.11v.94h5a4.34,4.34,0,0,0,3.23-1.44.46.46,0,0,1,.68,0,4.34,4.34,0,0,0,3.23,1.44h.65V38.55A6.36,6.36,0,0,0,18,32.92Z"/><path class="cls-20" d="M18,32.92h0c-.18-.09-.36-.18-.54-.26a5.49,5.49,0,0,0-.77-.28,6.37,6.37,0,0,0-2.37-.17h0a6,6,0,0,0-1.83.5l-.31.16a6.37,6.37,0,0,0-.56.31l-.34.25c-.15.11-.29.22-.43.34s-.22.21-.33.32-.22.24-.33.36-.21.26-.31.4-.16.25-.24.37-.18.31-.26.47-.11.24-.16.36-.15.36-.21.54-.05.22-.08.33a6.31,6.31,0,0,0-.15.63h0a6.37,6.37,0,0,0-.08,1v1.17h.91a6.4,6.4,0,0,1,.55-2.14h.46a4.59,4.59,0,0,0,3.95-2.24A2.67,2.67,0,0,1,17.44,34l.15,0a5.49,5.49,0,0,1,.77.28c.19.08.37.16.54.26h0a6.41,6.41,0,0,1,2.19,1.89A6.39,6.39,0,0,0,18,32.92Z"/><path class="cls-3" d="M21.47,42V38.55a6.38,6.38,0,0,0-4.74-6.16h0a6.38,6.38,0,0,0-3.27,0h0a6.38,6.38,0,0,0-4.74,6.16V42a5.38,5.38,0,0,0,2.69,4.66l1.52.88a4.34,4.34,0,0,0,4.34,0l1.52-.88A5.38,5.38,0,0,0,21.47,42Z"/><path class="cls-17" d="M8.72,42.79H8.45a1.72,1.72,0,0,1-1.72-1.72h0a1.13,1.13,0,0,1,1.13-1.13h.86Z"/><path class="cls-3" d="M8.72,42.79H8.45a1.72,1.72,0,0,1-1.72-1.72h0a1.13,1.13,0,0,1,1.13-1.13h.86Z"/><path class="cls-17" d="M21.46,42.79h.27a1.72,1.72,0,0,0,1.72-1.72h0a1.13,1.13,0,0,0-1.13-1.13h-.86Z"/><path class="cls-3" d="M21.46,42.79h.27a1.72,1.72,0,0,0,1.72-1.72h0a1.13,1.13,0,0,0-1.13-1.13h-.86Z"/><circle class="cls-27" cx="48.78" cy="44.39" r="12.22"/><circle class="cls-28" cx="48.78" cy="44.39" r="9.9"/><circle class="cls-29" cx="48.78" cy="44.39" r="8.55"/><path class="cls-30" d="M57.53,48.06a17.49,17.49,0,0,0-17.49,0,6.07,6.07,0,0,0-2.08,2,12.21,12.21,0,0,0,21.65,0A6.07,6.07,0,0,0,57.53,48.06Z"/><path class="cls-31" d="M40,50.38a17.49,17.49,0,0,1,17.49,0,5.93,5.93,0,0,1,1.27,1,12.25,12.25,0,0,0,.81-1.32,6.07,6.07,0,0,0-2.08-2,17.49,17.49,0,0,0-17.49,0,6.07,6.07,0,0,0-2.08,2,12.23,12.23,0,0,0,.81,1.32A5.93,5.93,0,0,1,40,50.38Z"/><path class="cls-32" d="M57.53,48.06A17.48,17.48,0,0,0,46.25,45.9L42.83,48l1.94,5.92a.67.67,0,0,0,.64.45.67.67,0,0,1,.65.49l.21.74H43.92A12.21,12.21,0,0,0,59.6,50.06,6.07,6.07,0,0,0,57.53,48.06Z"/><path class="cls-30" d="M56,47.27c-.3-.14-.6-.26-.91-.38l-.38-.14q-.53-.19-1.07-.34l-.2-.06c-.45-.12-.91-.23-1.36-.32h0c-.43-.08-.87-.14-1.31-.19l-.21,0c-.42,0-.83-.07-1.25-.08H49.1a17.57,17.57,0,0,0-2.85.18h0L42.83,48l.32,1a17.49,17.49,0,0,1,14.38,1.41,5.93,5.93,0,0,1,1.27,1h0a12.26,12.26,0,0,0,.81-1.32,6.07,6.07,0,0,0-2.08-2c-.39-.23-.8-.43-1.2-.63Z"/><path class="cls-3" d="M57.53,48.06a17.49,17.49,0,0,0-17.49,0,6.07,6.07,0,0,0-2.08,2,12.21,12.21,0,0,0,21.65,0A6.07,6.07,0,0,0,57.53,48.06Z"/><path class="cls-10" d="M47.51,56.61h2.55a13.44,13.44,0,0,0-.76-3,.64.64,0,0,1,.14-.68,1.77,1.77,0,0,0,.46-1.19,1.79,1.79,0,0,0-1.12-1.66,1.79,1.79,0,0,0-1.12,1.66A1.77,1.77,0,0,0,48.13,53a.64.64,0,0,1,.14.68A13.44,13.44,0,0,0,47.51,56.61Z"/><path class="cls-11" d="M48.43,53a1.78,1.78,0,0,1,.5-2.78l-.15-.08a1.79,1.79,0,0,0-1.12,1.66A1.77,1.77,0,0,0,48.13,53a.64.64,0,0,1,.14.68,13.44,13.44,0,0,0-.76,3h.3a13.43,13.43,0,0,1,.76-3A.64.64,0,0,0,48.43,53Z"/><path class="cls-11" d="M48.56,53l-.33.19a.65.65,0,0,1,.07.24l.38-.21c.39-.23.75-.46,1.07-.68a1.75,1.75,0,0,0,.11-.37A14.47,14.47,0,0,1,48.56,53Z"/><path class="cls-11" d="M48.68,54.12l.63-.39,0-.07a.58.58,0,0,1,0-.17l-.69.42-.49.27-.1.32Z"/><path class="cls-11" d="M48.68,55.08c.33-.19.63-.38.9-.56l-.07-.24c-.29.19-.6.4-.95.6l-.8.43-.07.3C48,55.45,48.34,55.28,48.68,55.08Z"/><path class="cls-11" d="M49.74,55.07c-.34.24-.74.5-1.18.75s-.7.39-1,.54c0,.08,0,.16,0,.25h.08c.34-.16.71-.35,1.09-.58s.79-.48,1.11-.71Z"/><path class="cls-11" d="M49.31,56.61c.24-.15.47-.31.66-.45l0-.26c-.3.22-.66.47-1.07.71Z"/><path class="cls-12" d="M48.78,50.13a1.79,1.79,0,0,1,1.12,1.66A1.77,1.77,0,0,1,49.43,53a.64.64,0,0,0-.14.68A13.35,13.35,0,0,1,50,56.55c-.39,0-.8.06-1.2.06h-.12c-.4,0-.81,0-1.2-.06a13.34,13.34,0,0,1,.75-2.89.64.64,0,0,0-.14-.68,1.77,1.77,0,0,1-.46-1.19,1.79,1.79,0,0,1,1.12-1.66m0-1a1,1,0,0,0-.38.07,2.78,2.78,0,0,0-1.15,4.29,14.84,14.84,0,0,0-.73,2.89,1,1,0,0,0,.89,1.15c.41,0,.85.06,1.3.07h.13c.45,0,.89,0,1.3-.07A1,1,0,0,0,51,56.39a14.84,14.84,0,0,0-.73-2.89,2.78,2.78,0,0,0-1.15-4.29,1,1,0,0,0-.38-.07Z"/><path class="cls-12" d="M45.64,45.81a4.74,4.74,0,0,0,3.14,4.12,4.74,4.74,0,0,0,3.14-4.12A15.1,15.1,0,0,0,45.64,45.81Z"/><ellipse class="cls-12" cx="48.78" cy="46.07" rx="3.89" ry="1.74"/><path class="cls-13" d="M48.78,44c-2.15,0-3.89.78-3.89,1.74l.76.14c0-.76,1.41-1.38,3.13-1.38s3.14.62,3.14,1.38l.76-.14C52.67,44.75,50.93,44,48.78,44Z"/><path class="cls-14" d="M45.64,45.81v-.57a.27.27,0,0,0-.47-.18l-.77.88a.74.74,0,0,0-.17.62A6.72,6.72,0,0,0,47,51.07a.64.64,0,0,0,.82-.12l.91-1A4.74,4.74,0,0,1,45.64,45.81Z"/><path class="cls-15" d="M47.31,50.81a6.72,6.72,0,0,1-2.82-4.51.74.74,0,0,1,.17-.62l.59-.68a.27.27,0,0,0-.09.07l-.77.88a.75.75,0,0,0-.17.62A6.72,6.72,0,0,0,47,51.07a.64.64,0,0,0,.82-.12l.17-.19A.64.64,0,0,1,47.31,50.81Z"/><path class="cls-14" d="M51.92,45.81v-.57a.27.27,0,0,1,.47-.18l.77.88a.75.75,0,0,1,.17.62,6.72,6.72,0,0,1-2.82,4.51.64.64,0,0,1-.82-.12l-.91-1A4.74,4.74,0,0,0,51.92,45.81Z"/><path class="cls-16" d="M53.16,45.94l-.77-.88,0,0,.71.81a.75.75,0,0,1,.17.62A6.72,6.72,0,0,1,50.4,51a.64.64,0,0,1-.78-.09l.07.08a.64.64,0,0,0,.82.12,6.72,6.72,0,0,0,2.82-4.51A.75.75,0,0,0,53.16,45.94Z"/><path class="cls-12" d="M48.78,44a5.23,5.23,0,0,1,3.6,1.08h0l.77.88a.75.75,0,0,1,.17.62,6.72,6.72,0,0,1-2.82,4.51.63.63,0,0,1-.34.1.65.65,0,0,1-.48-.22l-.91-1-.91,1a.65.65,0,0,1-.48.22.63.63,0,0,1-.34-.1,6.72,6.72,0,0,1-2.82-4.51.75.75,0,0,1,.17-.62l.77-.88h0A5.23,5.23,0,0,1,48.78,44m0-2a7.09,7.09,0,0,0-5,1.66l-.1.1-.77.89a2.74,2.74,0,0,0-.64,2.28A8.7,8.7,0,0,0,46,52.77a2.64,2.64,0,0,0,2.79,0,2.64,2.64,0,0,0,2.79,0A8.7,8.7,0,0,0,55.3,46.9a2.74,2.74,0,0,0-.64-2.28l-.77-.88-.1-.1a7,7,0,0,0-5-1.67Z"/><circle class="cls-3" cx="48.78" cy="44.39" r="12.22"/><path class="cls-17" d="M55,42V38.55a6.38,6.38,0,0,0-4.74-6.16h0a6.38,6.38,0,0,0-3.27,0h0a6.38,6.38,0,0,0-4.74,6.16V42A5.38,5.38,0,0,0,45,46.68l1.52.88a4.34,4.34,0,0,0,4.34,0l1.52-.88A5.38,5.38,0,0,0,55,42Z"/><path class="cls-18" d="M53.44,45.79l-1.52.88a4.34,4.34,0,0,1-4.34,0l-1.52-.88a5.38,5.38,0,0,1-2.69-4.66V37.66a6.36,6.36,0,0,1,1.87-4.49,6.37,6.37,0,0,0-3,5.38V42A5.38,5.38,0,0,0,45,46.68l1.52.88a4.34,4.34,0,0,0,4.34,0l1.52-.88a5.36,5.36,0,0,0,1.2-1Z"/><path class="cls-19" d="M55,39.72A6.36,6.36,0,0,0,51.6,34.3h0c-.18-.09-.36-.18-.54-.26a5.5,5.5,0,0,0-.77-.28,6.39,6.39,0,0,0-5.75,1.29,6.62,6.62,0,0,0-2.26,5.11v.94h5a1.47,1.47,0,0,1,1.54,1.44v5.59a4.33,4.33,0,0,0,2-.57l1.52-.88A5.38,5.38,0,0,0,55,42V39.72Z"/><path class="cls-12" d="M51.6,32.92h0c-.18-.09-.36-.18-.54-.26a5.5,5.5,0,0,0-.77-.28,6.39,6.39,0,0,0-5.75,1.29,6.62,6.62,0,0,0-2.26,5.11v.94h5a4.34,4.34,0,0,0,3.23-1.44.46.46,0,0,1,.68,0,4.34,4.34,0,0,0,3.23,1.44H55V38.55A6.36,6.36,0,0,0,51.6,32.92Z"/><path class="cls-20" d="M51.6,32.92h0c-.18-.09-.36-.18-.54-.26a5.5,5.5,0,0,0-.77-.28,6.37,6.37,0,0,0-2.37-.17h0a6,6,0,0,0-1.83.5l-.31.16a6.36,6.36,0,0,0-.56.31l-.34.25c-.15.11-.29.22-.43.34s-.22.21-.33.32-.22.24-.33.36-.21.26-.31.4-.16.25-.24.37-.18.31-.27.47-.11.24-.16.36-.15.36-.21.54-.05.22-.08.33a6.25,6.25,0,0,0-.15.63h0a6.36,6.36,0,0,0-.08,1v1.17h.91a6.4,6.4,0,0,1,.55-2.14h.46a4.59,4.59,0,0,0,3.95-2.24A2.67,2.67,0,0,1,51,34l.15,0a5.5,5.5,0,0,1,.77.28c.19.08.37.16.54.26h0a6.41,6.41,0,0,1,2.19,1.89A6.39,6.39,0,0,0,51.6,32.92Z"/><path class="cls-3" d="M55,42V38.55a6.38,6.38,0,0,0-4.74-6.16h0a6.38,6.38,0,0,0-3.27,0h0a6.38,6.38,0,0,0-4.74,6.16V42A5.38,5.38,0,0,0,45,46.68l1.52.88a4.34,4.34,0,0,0,4.34,0l1.52-.88A5.38,5.38,0,0,0,55,42Z"/><path class="cls-17" d="M42.28,42.79H42a1.72,1.72,0,0,1-1.72-1.72h0a1.13,1.13,0,0,1,1.13-1.13h.86Z"/><path class="cls-3" d="M42.28,42.79H42a1.72,1.72,0,0,1-1.72-1.72h0a1.13,1.13,0,0,1,1.13-1.13h.86Z"/><path class="cls-17" d="M55,42.79h.27A1.72,1.72,0,0,0,57,41.07h0a1.13,1.13,0,0,0-1.13-1.13H55Z"/><path class="cls-3" d="M55,42.79h.27A1.72,1.72,0,0,0,57,41.07h0a1.13,1.13,0,0,0-1.13-1.13H55Z"/></svg>