<svg id="Layer_1" data-name="Layer 1" xmlns="http://www.w3.org/2000/svg" viewBox="0 0 64 64"><defs><style>.cls-1{fill:#d9ebf4;}.cls-2{fill:#c6e2f4;}.cls-3,.cls-7{fill:none;stroke-linecap:round;stroke-linejoin:round;stroke-width:2px;}.cls-3{stroke:#041256;}.cls-4{fill:#a6b3ba;}.cls-5{fill:#bec9ce;}.cls-6{fill:#dae2e5;}.cls-7{stroke:#6f758c;}.cls-8{fill:#db678e;}.cls-9{fill:#6ad383;}.cls-10{fill:#ed9f4a;}.cls-11{fill:#14918e;}.cls-12{fill:#3dc18b;}.cls-13{fill:#67dba9;}.cls-14{fill:#42567c;}.cls-15{fill:#56709b;}.cls-16{fill:#384666;}.cls-17{fill:#4098e2;}.cls-18{fill:#59c3f7;}.cls-19{fill:#041256;}.cls-20{fill:#a7aec1;}.cls-21{fill:#b8bdcc;}.cls-22{fill:#d9dde8;}.cls-23{fill:#83e7ea;}.cls-24{fill:#efab89;}.cls-25{fill:#fcc3a9;}.cls-26{fill:#dd8573;}.cls-27{fill:#172a72;}.cls-28{fill:#c15272;}.cls-29{fill:#f47aa9;}.cls-30{fill:#1952af;}.cls-31{fill:#3d79d1;}.cls-32{fill:#104199;}.cls-33{fill:#dd9033;}.cls-34{fill:#fcbd7e;}.cls-35{fill:#4bb769;}.cls-36{fill:#348964;}</style></defs><title>hierarchy, group, team, business, management</title><path class="cls-1" d="M51.66,12.18H49.23a.76.76,0,0,1,0-1.52h1.21a.46.46,0,0,0,.46-.46.46.46,0,0,1,.46-.46h2.43a.76.76,0,1,1,0,1.52H52.57a.46.46,0,0,0-.46.46A.46.46,0,0,1,51.66,12.18Z"/><path class="cls-1" d="M53.63,13.37H55a.26.26,0,0,1,.26.26.26.26,0,0,0,.26.26h.7a.44.44,0,0,1,0,.88H54.86a.26.26,0,0,1-.26-.26.26.26,0,0,0-.26-.26h-.7a.44.44,0,0,1,0-.88Z"/><path class="cls-1" d="M48.91,5.67h1.41a.26.26,0,0,1,.26.26.26.26,0,0,0,.26.26h.7a.44.44,0,0,1,0,.88H50.15a.26.26,0,0,1-.26-.26.26.26,0,0,0-.26-.26h-.7a.44.44,0,0,1,0-.88Z"/><circle class="cls-1" cx="51.51" cy="20.27" r="0.63"/><circle class="cls-1" cx="51.5" cy="15.23" r="0.61"/><circle class="cls-1" cx="48.47" cy="16.47" r="0.98"/><circle class="cls-1" cx="47.88" cy="8.86" r="0.32"/><circle class="cls-1" cx="57.87" cy="16.47" r="0.39"/><circle class="cls-1" cx="54.95" cy="17.69" r="1.02"/><circle class="cls-1" cx="58.91" cy="13.72" r="0.35"/><path class="cls-1" d="M13.38,10.21h0a.5.5,0,0,0-.5-.5H10.21a.83.83,0,0,0-.83.83h0a.83.83,0,0,0,.83.83h1.34a.5.5,0,0,1,.5.5h0a.5.5,0,0,0,.5.5h2.67a.83.83,0,0,0,.83-.83h0a.83.83,0,0,0-.83-.83H13.88A.5.5,0,0,1,13.38,10.21Z"/><path class="cls-1" d="M8.54,14h0a.29.29,0,0,1,.29-.29h1.55a.48.48,0,0,1,.48.48h0a.48.48,0,0,1-.48.48H9.61a.29.29,0,0,0-.29.29h0a.29.29,0,0,1-.29.29H7.48A.48.48,0,0,1,7,14.76H7a.48.48,0,0,1,.48-.48h.77A.29.29,0,0,0,8.54,14Z"/><circle class="cls-1" cx="11.84" cy="21.89" r="0.7"/><circle class="cls-1" cx="12.71" cy="15.74" r="0.67"/><circle class="cls-1" cx="16.05" cy="17.11" r="1.08"/><circle class="cls-1" cx="16.7" cy="8.74" r="0.35"/><circle class="cls-1" cx="5.71" cy="17.11" r="0.43"/><circle class="cls-1" cx="8.93" cy="18.44" r="1.12"/><circle class="cls-1" cx="4.57" cy="14.08" r="0.39"/><path class="cls-2" d="M61,61V33.72a.89.89,0,0,0-.89-.89h-.93a.89.89,0,0,0-.89.89V36a.89.89,0,0,1-.89.89h-3a.89.89,0,0,0-.89.89V48.15a.89.89,0,0,1-.89.89H50.74a.89.89,0,0,0-.89.89v6.54a.89.89,0,0,1-.89.89h-.9a.89.89,0,0,1-.89-.89V55.33a.89.89,0,0,0-.89-.89h-.81a.89.89,0,0,1-.89-.89V52a.89.89,0,0,0-.89-.89H38.9a.89.89,0,0,1-.89-.89v-.91a.89.89,0,0,0-.89-.89H21.71a.89.89,0,0,0-.63.26l-4.14,4.14a.89.89,0,0,1-.63.26H15.07a.89.89,0,0,0-.89.89v3a.89.89,0,0,1-.89.89h-.51a.89.89,0,0,1-.89-.89v-.52a.89.89,0,0,0-.89-.89h-.65a.89.89,0,0,1-.89-.89.89.89,0,0,0-.89-.89H3.94a.89.89,0,0,0-.89.89V61Z"/><line class="cls-3" x1="61" y1="61" x2="3" y2="61"/><circle class="cls-4" cx="32" cy="34.79" r="17.59"/><circle class="cls-5" cx="32" cy="34.79" r="14.25"/><circle class="cls-6" cx="32" cy="34.79" r="11.54"/><circle class="cls-7" cx="32" cy="34.79" r="17.59"/><circle class="cls-8" cx="32" cy="52.4" r="1.95"/><circle class="cls-3" cx="32" cy="52.4" r="1.95"/><circle class="cls-9" cx="16.74" cy="25.98" r="1.95" transform="translate(-14.13 27.49) rotate(-60)"/><circle class="cls-3" cx="16.74" cy="25.98" r="1.95" transform="translate(-14.13 27.49) rotate(-60)"/><circle class="cls-10" cx="47.26" cy="25.98" r="1.95" transform="translate(-6.66 27.11) rotate(-30)"/><circle class="cls-3" cx="47.26" cy="25.98" r="1.95" transform="translate(-6.66 27.11) rotate(-30)"/><circle class="cls-11" cx="32" cy="15.22" r="12.22"/><circle class="cls-12" cx="32" cy="15.22" r="9.9"/><circle class="cls-13" cx="32" cy="15.22" r="8.55"/><path class="cls-14" d="M40.75,18.89a17.49,17.49,0,0,0-17.49,0,6.07,6.07,0,0,0-2.08,2,12.21,12.21,0,0,0,21.65,0A6.06,6.06,0,0,0,40.75,18.89Z"/><path class="cls-15" d="M23.25,21.21a17.49,17.49,0,0,1,17.49,0,5.92,5.92,0,0,1,1.27,1,12.25,12.25,0,0,0,.81-1.32,6.06,6.06,0,0,0-2.08-2,17.49,17.49,0,0,0-17.49,0,6.07,6.07,0,0,0-2.08,2A12.26,12.26,0,0,0,22,22.21,5.92,5.92,0,0,1,23.25,21.21Z"/><path class="cls-16" d="M40.75,18.89a17.48,17.48,0,0,0-11.28-2.15l-3.41,2.1L28,24.75a.67.67,0,0,0,.64.45.67.67,0,0,1,.65.49l.21.74H27.14a12.21,12.21,0,0,0,15.68-5.55A6.06,6.06,0,0,0,40.75,18.89Z"/><path class="cls-14" d="M39.18,18.09c-.3-.14-.6-.26-.91-.38l-.38-.14q-.53-.19-1.07-.34l-.2-.06c-.45-.12-.91-.23-1.36-.32h0c-.43-.08-.87-.14-1.31-.19l-.21,0c-.42,0-.83-.07-1.25-.08h-.12a17.58,17.58,0,0,0-2.85.18h0l-3.41,2.1.32,1a17.49,17.49,0,0,1,14.38,1.41,5.92,5.92,0,0,1,1.27,1h0a12.26,12.26,0,0,0,.81-1.32,6.06,6.06,0,0,0-2.08-2c-.39-.23-.8-.43-1.21-.63Z"/><path class="cls-3" d="M40.75,18.89a17.49,17.49,0,0,0-17.49,0,6.07,6.07,0,0,0-2.08,2,12.21,12.21,0,0,0,21.65,0A6.06,6.06,0,0,0,40.75,18.89Z"/><path class="cls-17" d="M30.73,27.44h2.55a13.44,13.44,0,0,0-.76-3,.64.64,0,0,1,.14-.68,1.77,1.77,0,0,0,.46-1.19A1.79,1.79,0,0,0,32,21a1.79,1.79,0,0,0-1.12,1.66,1.77,1.77,0,0,0,.46,1.19.64.64,0,0,1,.14.68A13.43,13.43,0,0,0,30.73,27.44Z"/><path class="cls-18" d="M31.65,23.81a1.78,1.78,0,0,1,.5-2.78L32,21a1.79,1.79,0,0,0-1.12,1.66,1.77,1.77,0,0,0,.46,1.19.64.64,0,0,1,.14.68,13.44,13.44,0,0,0-.76,3H31a13.44,13.44,0,0,1,.76-3A.64.64,0,0,0,31.65,23.81Z"/><path class="cls-18" d="M31.79,23.78l-.33.19a.65.65,0,0,1,.07.24l.38-.21c.39-.23.75-.46,1.07-.68a1.75,1.75,0,0,0,.11-.37A14.49,14.49,0,0,1,31.79,23.78Z"/><path class="cls-18" d="M31.91,24.95l.63-.39,0-.07a.58.58,0,0,1,0-.17l-.69.42L31.3,25l-.1.32Z"/><path class="cls-18" d="M31.91,25.9c.33-.19.63-.38.9-.56l-.07-.24c-.29.19-.6.4-1,.6l-.8.43-.07.3C31.23,26.28,31.56,26.1,31.91,25.9Z"/><path class="cls-18" d="M33,25.9c-.34.24-.74.5-1.18.75s-.7.39-1,.54c0,.08,0,.16,0,.25h.08c.34-.16.71-.35,1.09-.58s.79-.48,1.11-.71Z"/><path class="cls-18" d="M32.53,27.44c.24-.15.47-.31.66-.45l0-.26c-.3.22-.66.47-1.07.71Z"/><path class="cls-19" d="M32,21a1.79,1.79,0,0,1,1.12,1.66,1.77,1.77,0,0,1-.46,1.19.64.64,0,0,0-.14.68,13.35,13.35,0,0,1,.75,2.89c-.39,0-.8.06-1.2.06h-.12c-.4,0-.81,0-1.2-.06a13.34,13.34,0,0,1,.75-2.89.64.64,0,0,0-.14-.68,1.77,1.77,0,0,1-.46-1.19A1.79,1.79,0,0,1,32,21m0-1a1,1,0,0,0-.38.07,2.78,2.78,0,0,0-1.15,4.29,14.84,14.84,0,0,0-.73,2.89,1,1,0,0,0,.89,1.15c.41,0,.85.06,1.3.07h.13c.45,0,.89,0,1.3-.07a1,1,0,0,0,.89-1.15,14.84,14.84,0,0,0-.73-2.89A2.78,2.78,0,0,0,32.38,20,1,1,0,0,0,32,20Z"/><path class="cls-19" d="M28.86,16.64A4.74,4.74,0,0,0,32,20.76a4.74,4.74,0,0,0,3.14-4.12A15.1,15.1,0,0,0,28.86,16.64Z"/><ellipse class="cls-19" cx="32" cy="16.9" rx="3.89" ry="1.74"/><path class="cls-20" d="M32,14.8c-2.15,0-3.89.78-3.89,1.74l.76.14c0-.76,1.41-1.38,3.13-1.38s3.14.62,3.14,1.38l.76-.14C35.89,15.58,34.15,14.8,32,14.8Z"/><path class="cls-21" d="M28.86,16.64v-.57a.27.27,0,0,0-.47-.18l-.77.88a.75.75,0,0,0-.17.62,6.72,6.72,0,0,0,2.82,4.51.64.64,0,0,0,.82-.12l.91-1A4.74,4.74,0,0,1,28.86,16.64Z"/><path class="cls-22" d="M30.53,21.63a6.72,6.72,0,0,1-2.82-4.51.75.75,0,0,1,.17-.62l.59-.68a.27.27,0,0,0-.09.07l-.77.88a.75.75,0,0,0-.17.62,6.72,6.72,0,0,0,2.82,4.51.64.64,0,0,0,.82-.12l.17-.19A.64.64,0,0,1,30.53,21.63Z"/><path class="cls-21" d="M35.14,16.64v-.57a.27.27,0,0,1,.47-.18l.77.88a.75.75,0,0,1,.17.62,6.72,6.72,0,0,1-2.82,4.51.64.64,0,0,1-.82-.12l-.91-1A4.74,4.74,0,0,0,35.14,16.64Z"/><path class="cls-23" d="M36.38,16.77l-.77-.88,0,0,.71.81a.75.75,0,0,1,.17.62,6.72,6.72,0,0,1-2.82,4.51.64.64,0,0,1-.78-.09l.07.08a.64.64,0,0,0,.82.12,6.72,6.72,0,0,0,2.82-4.51A.75.75,0,0,0,36.38,16.77Z"/><path class="cls-19" d="M32,14.8a5.23,5.23,0,0,1,3.6,1.08h0l.77.88a.75.75,0,0,1,.17.62,6.72,6.72,0,0,1-2.82,4.51.63.63,0,0,1-.34.1.65.65,0,0,1-.48-.22l-.91-1-.91,1a.65.65,0,0,1-.48.22.63.63,0,0,1-.34-.1,6.72,6.72,0,0,1-2.82-4.51.75.75,0,0,1,.17-.62l.77-.88h0A5.23,5.23,0,0,1,32,14.8m0-2a7.09,7.09,0,0,0-5,1.66l-.1.11-.77.88a2.74,2.74,0,0,0-.64,2.28,8.7,8.7,0,0,0,3.73,5.87,2.64,2.64,0,0,0,2.79,0,2.64,2.64,0,0,0,2.79,0,8.7,8.7,0,0,0,3.73-5.87,2.74,2.74,0,0,0-.64-2.28l-.77-.88-.1-.1a7.07,7.07,0,0,0-5-1.67Z"/><circle class="cls-3" cx="32" cy="15.22" r="12.22"/><path class="cls-24" d="M38.24,12.85V9.38A6.38,6.38,0,0,0,33.5,3.21h0a6.38,6.38,0,0,0-3.27,0h0a6.38,6.38,0,0,0-4.74,6.16v3.48a5.38,5.38,0,0,0,2.69,4.66l1.52.88a4.34,4.34,0,0,0,4.34,0l1.52-.88A5.38,5.38,0,0,0,38.24,12.85Z"/><path class="cls-25" d="M36.66,16.62l-1.52.88a4.34,4.34,0,0,1-4.34,0l-1.52-.88A5.38,5.38,0,0,1,26.6,12V8.49A6.36,6.36,0,0,1,28.46,4a6.37,6.37,0,0,0-3,5.38v3.48a5.38,5.38,0,0,0,2.69,4.66l1.52.88a4.34,4.34,0,0,0,4.34,0l1.52-.88a5.36,5.36,0,0,0,1.2-1Z"/><path class="cls-26" d="M38.23,10.55a6.36,6.36,0,0,0-3.41-5.42h0c-.18-.09-.36-.18-.54-.26a5.51,5.51,0,0,0-.77-.28,6.39,6.39,0,0,0-5.75,1.29A6.62,6.62,0,0,0,25.49,11v.94h5A1.47,1.47,0,0,1,32,13.37V19a4.33,4.33,0,0,0,2-.57l1.52-.88a5.38,5.38,0,0,0,2.69-4.66V10.55Z"/><path class="cls-19" d="M34.82,3.74h0c-.18-.09-.36-.18-.54-.26a5.49,5.49,0,0,0-.77-.28A6.39,6.39,0,0,0,27.75,4.5a6.62,6.62,0,0,0-2.26,5.11v.94h5a4.34,4.34,0,0,0,3.23-1.44.46.46,0,0,1,.68,0,4.34,4.34,0,0,0,3.23,1.44h.65V9.38A6.36,6.36,0,0,0,34.82,3.74Z"/><path class="cls-27" d="M34.82,3.74h0c-.18-.09-.36-.18-.54-.26a5.49,5.49,0,0,0-.77-.28A6.37,6.37,0,0,0,31.13,3h0a6,6,0,0,0-1.83.5L29,3.71a6.33,6.33,0,0,0-.56.31l-.34.25c-.15.11-.29.22-.43.34s-.22.21-.33.32-.22.24-.33.36-.21.26-.31.4-.16.25-.24.37-.18.31-.27.47-.11.24-.16.36-.15.36-.21.54-.05.22-.08.33a6.28,6.28,0,0,0-.15.63h0a6.37,6.37,0,0,0-.08,1v1.17h.91a6.4,6.4,0,0,1,.55-2.14h.46a4.59,4.59,0,0,0,3.95-2.24,2.67,2.67,0,0,1,2.86-1.35l.15,0a5.51,5.51,0,0,1,.77.28c.19.08.37.16.54.26h0a6.41,6.41,0,0,1,2.19,1.89A6.39,6.39,0,0,0,34.82,3.74Z"/><path class="cls-3" d="M38.24,12.85V9.38A6.38,6.38,0,0,0,33.5,3.21h0a6.38,6.38,0,0,0-3.27,0h0a6.38,6.38,0,0,0-4.74,6.16v3.48a5.38,5.38,0,0,0,2.69,4.66l1.52.88a4.34,4.34,0,0,0,4.34,0l1.52-.88A5.38,5.38,0,0,0,38.24,12.85Z"/><path class="cls-24" d="M25.5,13.62h-.27a1.72,1.72,0,0,1-1.72-1.72h0a1.13,1.13,0,0,1,1.13-1.13h.86Z"/><path class="cls-3" d="M25.5,13.62h-.27a1.72,1.72,0,0,1-1.72-1.72h0a1.13,1.13,0,0,1,1.13-1.13h.86Z"/><path class="cls-24" d="M38.24,13.62h.27a1.72,1.72,0,0,0,1.72-1.72h0a1.13,1.13,0,0,0-1.13-1.13h-.86Z"/><path class="cls-3" d="M38.24,13.62h.27a1.72,1.72,0,0,0,1.72-1.72h0a1.13,1.13,0,0,0-1.13-1.13h-.86Z"/><circle class="cls-28" cx="15.22" cy="44.22" r="12.22"/><circle class="cls-8" cx="15.22" cy="44.22" r="9.9"/><circle class="cls-29" cx="15.22" cy="44.22" r="8.55"/><path class="cls-30" d="M24,47.89a17.49,17.49,0,0,0-17.49,0,6.06,6.06,0,0,0-2.08,2,12.21,12.21,0,0,0,21.65,0A6.06,6.06,0,0,0,24,47.89Z"/><path class="cls-31" d="M6.47,50.21a17.49,17.49,0,0,1,17.49,0,5.93,5.93,0,0,1,1.27,1A12.25,12.25,0,0,0,26,49.89a6.06,6.06,0,0,0-2.08-2,17.49,17.49,0,0,0-17.49,0,6.06,6.06,0,0,0-2.08,2,12.26,12.26,0,0,0,.81,1.32A5.92,5.92,0,0,1,6.47,50.21Z"/><path class="cls-32" d="M24,47.89a17.48,17.48,0,0,0-11.28-2.15l-3.41,2.1,1.94,5.92a.67.67,0,0,0,.64.45.67.67,0,0,1,.65.49l.21.74H10.36A12.21,12.21,0,0,0,26,49.89,6.06,6.06,0,0,0,24,47.89Z"/><path class="cls-30" d="M22.4,47.09c-.3-.14-.6-.26-.91-.38l-.38-.14q-.53-.19-1.07-.34l-.2-.06c-.45-.12-.91-.23-1.36-.32h0c-.43-.08-.87-.14-1.31-.19l-.21,0c-.42,0-.83-.07-1.25-.08h-.12a17.58,17.58,0,0,0-2.85.18h0l-3.41,2.1.32,1A17.49,17.49,0,0,1,24,50.21a5.93,5.93,0,0,1,1.27,1h0A12.26,12.26,0,0,0,26,49.89a6.06,6.06,0,0,0-2.08-2c-.39-.23-.8-.43-1.21-.63Z"/><path class="cls-3" d="M24,47.89a17.49,17.49,0,0,0-17.49,0,6.06,6.06,0,0,0-2.08,2,12.21,12.21,0,0,0,21.65,0A6.06,6.06,0,0,0,24,47.89Z"/><path class="cls-17" d="M13.95,56.44h2.55a13.43,13.43,0,0,0-.76-3,.64.64,0,0,1,.14-.68,1.77,1.77,0,0,0,.46-1.19A1.79,1.79,0,0,0,15.22,50a1.79,1.79,0,0,0-1.12,1.66,1.77,1.77,0,0,0,.46,1.19.64.64,0,0,1,.14.68A13.44,13.44,0,0,0,13.95,56.44Z"/><path class="cls-18" d="M14.87,52.81a1.78,1.78,0,0,1,.5-2.78L15.22,50a1.79,1.79,0,0,0-1.12,1.66,1.77,1.77,0,0,0,.46,1.19.64.64,0,0,1,.14.68,13.44,13.44,0,0,0-.76,3h.3a13.44,13.44,0,0,1,.76-3A.64.64,0,0,0,14.87,52.81Z"/><path class="cls-18" d="M15,52.78l-.33.19a.65.65,0,0,1,.07.24l.38-.21c.4-.23.75-.46,1.07-.68a1.75,1.75,0,0,0,.11-.37A14.47,14.47,0,0,1,15,52.78Z"/><path class="cls-18" d="M15.13,53.95l.63-.39,0-.07a.58.58,0,0,1,0-.17l-.69.42-.49.27-.1.32Z"/><path class="cls-18" d="M15.13,54.9c.33-.19.63-.38.9-.56L16,54.1c-.29.19-.6.4-1,.6l-.8.43-.07.3C14.45,55.28,14.78,55.1,15.13,54.9Z"/><path class="cls-18" d="M16.18,54.9c-.34.24-.74.5-1.18.75s-.7.39-1,.54c0,.08,0,.16,0,.25H14c.34-.16.71-.35,1.09-.58s.79-.48,1.11-.71Z"/><path class="cls-18" d="M15.75,56.44c.24-.15.47-.31.66-.45l0-.26c-.3.22-.66.47-1.07.71Z"/><path class="cls-19" d="M15.22,50a1.79,1.79,0,0,1,1.12,1.66,1.77,1.77,0,0,1-.46,1.19.64.64,0,0,0-.14.68,13.34,13.34,0,0,1,.75,2.89c-.39,0-.8.06-1.2.06h-.12c-.4,0-.81,0-1.2-.06a13.34,13.34,0,0,1,.75-2.89.64.64,0,0,0-.14-.68,1.77,1.77,0,0,1-.46-1.19A1.79,1.79,0,0,1,15.22,50m0-1a1,1,0,0,0-.38.07,2.78,2.78,0,0,0-1.15,4.29A14.83,14.83,0,0,0,13,56.22a1,1,0,0,0,.89,1.15c.41,0,.85.06,1.3.07h.13c.45,0,.89,0,1.3-.07a1,1,0,0,0,.89-1.15,14.84,14.84,0,0,0-.73-2.89A2.78,2.78,0,0,0,15.6,49a1,1,0,0,0-.38-.07Z"/><path class="cls-19" d="M12.08,45.64a4.74,4.74,0,0,0,3.14,4.12,4.73,4.73,0,0,0,3.14-4.12A15.1,15.1,0,0,0,12.08,45.64Z"/><ellipse class="cls-19" cx="15.22" cy="45.9" rx="3.89" ry="1.74"/><path class="cls-20" d="M15.22,43.8c-2.15,0-3.89.78-3.89,1.74l.76.14c0-.76,1.41-1.38,3.13-1.38s3.14.62,3.14,1.38l.76-.14C19.12,44.58,17.37,43.8,15.22,43.8Z"/><path class="cls-21" d="M12.08,45.64v-.57a.27.27,0,0,0-.47-.18l-.77.88a.75.75,0,0,0-.17.62,6.72,6.72,0,0,0,2.82,4.51.64.64,0,0,0,.82-.12l.91-1A4.74,4.74,0,0,1,12.08,45.64Z"/><path class="cls-22" d="M13.76,50.63a6.72,6.72,0,0,1-2.82-4.51.75.75,0,0,1,.17-.62l.59-.68a.27.27,0,0,0-.09.07l-.77.88a.75.75,0,0,0-.17.62,6.72,6.72,0,0,0,2.82,4.51.64.64,0,0,0,.82-.12l.17-.19A.64.64,0,0,1,13.76,50.63Z"/><path class="cls-21" d="M18.36,45.64v-.57a.27.27,0,0,1,.47-.18l.77.88a.74.74,0,0,1,.17.62A6.72,6.72,0,0,1,17,50.9a.64.64,0,0,1-.82-.12l-.91-1A4.73,4.73,0,0,0,18.36,45.64Z"/><path class="cls-23" d="M19.6,45.77l-.77-.88,0,0,.71.81a.75.75,0,0,1,.17.62,6.72,6.72,0,0,1-2.82,4.51.64.64,0,0,1-.78-.09l.07.08a.64.64,0,0,0,.82.12,6.72,6.72,0,0,0,2.82-4.51A.75.75,0,0,0,19.6,45.77Z"/><path class="cls-19" d="M15.22,43.8a5.23,5.23,0,0,1,3.6,1.08h0l.77.88a.75.75,0,0,1,.17.62A6.72,6.72,0,0,1,17,50.9a.63.63,0,0,1-.34.1.65.65,0,0,1-.48-.22l-.91-1-.91,1a.65.65,0,0,1-.48.22.63.63,0,0,1-.34-.1,6.72,6.72,0,0,1-2.82-4.51.75.75,0,0,1,.17-.62l.77-.88h0a5.23,5.23,0,0,1,3.6-1.08m0-2a7.09,7.09,0,0,0-5,1.66l-.12.13-.75.86a2.74,2.74,0,0,0-.64,2.28,8.7,8.7,0,0,0,3.73,5.87,2.64,2.64,0,0,0,2.79,0,2.64,2.64,0,0,0,2.79,0,8.7,8.7,0,0,0,3.73-5.87,2.74,2.74,0,0,0-.64-2.28l-.77-.88-.1-.1a7.07,7.07,0,0,0-5-1.67Z"/><circle class="cls-3" cx="15.22" cy="44.22" r="12.22"/><path class="cls-24" d="M21.47,41.85V38.38a6.38,6.38,0,0,0-4.74-6.16h0a6.38,6.38,0,0,0-3.27,0h0a6.38,6.38,0,0,0-4.74,6.16v3.48a5.38,5.38,0,0,0,2.69,4.66l1.52.88a4.34,4.34,0,0,0,4.34,0l1.52-.88A5.38,5.38,0,0,0,21.47,41.85Z"/><path class="cls-25" d="M19.88,45.62l-1.52.88a4.34,4.34,0,0,1-4.34,0l-1.52-.88A5.38,5.38,0,0,1,9.82,41V37.49A6.36,6.36,0,0,1,11.69,33a6.37,6.37,0,0,0-3,5.38v3.48a5.38,5.38,0,0,0,2.69,4.66l1.52.88a4.34,4.34,0,0,0,4.34,0l1.52-.88a5.36,5.36,0,0,0,1.2-1Z"/><path class="cls-26" d="M21.45,39.55A6.36,6.36,0,0,0,18,34.13h0c-.18-.09-.36-.18-.54-.26a5.5,5.5,0,0,0-.77-.28A6.39,6.39,0,0,0,11,34.88,6.62,6.62,0,0,0,8.71,40v.94h5a1.47,1.47,0,0,1,1.54,1.44V48a4.33,4.33,0,0,0,2-.57l1.52-.88a5.38,5.38,0,0,0,2.69-4.66V39.55Z"/><path class="cls-19" d="M18,32.74h0c-.18-.09-.36-.18-.54-.26a5.49,5.49,0,0,0-.77-.28A6.39,6.39,0,0,0,11,33.5a6.62,6.62,0,0,0-2.26,5.11v.94h5a4.34,4.34,0,0,0,3.23-1.44.46.46,0,0,1,.68,0,4.34,4.34,0,0,0,3.23,1.44h.65V38.38A6.36,6.36,0,0,0,18,32.74Z"/><path class="cls-27" d="M18,32.74h0c-.18-.09-.36-.18-.54-.26a5.49,5.49,0,0,0-.77-.28A6.37,6.37,0,0,0,14.35,32h0a6,6,0,0,0-1.83.5l-.31.16a6.35,6.35,0,0,0-.56.31l-.34.25c-.15.11-.29.22-.43.34s-.22.21-.33.32-.22.24-.33.36-.21.26-.31.4-.16.25-.24.37-.18.31-.26.47-.11.24-.16.36-.15.36-.21.54-.05.22-.08.33a6.31,6.31,0,0,0-.15.63h0a6.37,6.37,0,0,0-.08,1v1.17h.91a6.4,6.4,0,0,1,.55-2.14h.46a4.59,4.59,0,0,0,3.95-2.24,2.67,2.67,0,0,1,2.86-1.35l.15,0a5.5,5.5,0,0,1,.77.28c.19.08.37.16.54.26h0a6.41,6.41,0,0,1,2.19,1.89A6.39,6.39,0,0,0,18,32.74Z"/><path class="cls-3" d="M21.47,41.85V38.38a6.38,6.38,0,0,0-4.74-6.16h0a6.38,6.38,0,0,0-3.27,0h0a6.38,6.38,0,0,0-4.74,6.16v3.48a5.38,5.38,0,0,0,2.69,4.66l1.52.88a4.34,4.34,0,0,0,4.34,0l1.52-.88A5.38,5.38,0,0,0,21.47,41.85Z"/><path class="cls-24" d="M8.72,42.62H8.45A1.72,1.72,0,0,1,6.73,40.9h0a1.13,1.13,0,0,1,1.13-1.13h.86Z"/><path class="cls-3" d="M8.72,42.62H8.45A1.72,1.72,0,0,1,6.73,40.9h0a1.13,1.13,0,0,1,1.13-1.13h.86Z"/><path class="cls-24" d="M21.46,42.62h.27a1.72,1.72,0,0,0,1.72-1.72h0a1.13,1.13,0,0,0-1.13-1.13h-.86Z"/><path class="cls-3" d="M21.46,42.62h.27a1.72,1.72,0,0,0,1.72-1.72h0a1.13,1.13,0,0,0-1.13-1.13h-.86Z"/><circle class="cls-33" cx="48.78" cy="44.22" r="12.22"/><circle class="cls-10" cx="48.78" cy="44.22" r="9.9"/><circle class="cls-34" cx="48.78" cy="44.22" r="8.55"/><path class="cls-35" d="M57.53,47.89a17.49,17.49,0,0,0-17.49,0,6.06,6.06,0,0,0-2.08,2,12.21,12.21,0,0,0,21.65,0A6.07,6.07,0,0,0,57.53,47.89Z"/><path class="cls-9" d="M40,50.21a17.49,17.49,0,0,1,17.49,0,5.92,5.92,0,0,1,1.27,1,12.26,12.26,0,0,0,.81-1.32,6.07,6.07,0,0,0-2.08-2,17.49,17.49,0,0,0-17.49,0,6.06,6.06,0,0,0-2.08,2,12.25,12.25,0,0,0,.81,1.32A5.92,5.92,0,0,1,40,50.21Z"/><path class="cls-36" d="M57.53,47.89a17.48,17.48,0,0,0-11.28-2.15l-3.41,2.1,1.94,5.92a.67.67,0,0,0,.64.45.67.67,0,0,1,.65.49l.21.74H43.92A12.21,12.21,0,0,0,59.6,49.89,6.07,6.07,0,0,0,57.53,47.89Z"/><path class="cls-35" d="M56,47.09c-.3-.14-.6-.26-.91-.38l-.38-.14q-.53-.19-1.07-.34l-.2-.06c-.45-.12-.91-.23-1.36-.32h0c-.43-.08-.87-.14-1.31-.19l-.21,0c-.42,0-.83-.07-1.25-.08H49.1a17.58,17.58,0,0,0-2.85.18h0l-3.41,2.1.32,1a17.49,17.49,0,0,1,14.38,1.41,5.92,5.92,0,0,1,1.27,1h0a12.26,12.26,0,0,0,.81-1.32,6.07,6.07,0,0,0-2.08-2c-.39-.23-.8-.43-1.21-.63Z"/><path class="cls-3" d="M57.53,47.89a17.49,17.49,0,0,0-17.49,0,6.06,6.06,0,0,0-2.08,2,12.21,12.21,0,0,0,21.65,0A6.07,6.07,0,0,0,57.53,47.89Z"/><path class="cls-17" d="M47.51,56.44h2.55a13.44,13.44,0,0,0-.76-3,.64.64,0,0,1,.14-.68,1.77,1.77,0,0,0,.46-1.19A1.79,1.79,0,0,0,48.78,50a1.79,1.79,0,0,0-1.12,1.66,1.77,1.77,0,0,0,.46,1.19.64.64,0,0,1,.14.68A13.44,13.44,0,0,0,47.51,56.44Z"/><path class="cls-18" d="M48.43,52.81a1.78,1.78,0,0,1,.5-2.78L48.78,50a1.79,1.79,0,0,0-1.12,1.66,1.77,1.77,0,0,0,.46,1.19.64.64,0,0,1,.14.68,13.44,13.44,0,0,0-.76,3h.3a13.43,13.43,0,0,1,.76-3A.64.64,0,0,0,48.43,52.81Z"/><path class="cls-18" d="M48.56,52.78l-.33.19a.65.65,0,0,1,.07.24l.38-.21c.4-.23.75-.46,1.07-.68a1.74,1.74,0,0,0,.11-.37A14.47,14.47,0,0,1,48.56,52.78Z"/><path class="cls-18" d="M48.68,53.95l.63-.39,0-.07a.58.58,0,0,1,0-.17l-.69.42-.49.27-.1.32Z"/><path class="cls-18" d="M48.68,54.9c.33-.19.63-.38.9-.56l-.07-.24c-.29.19-.6.4-1,.6l-.8.43-.07.3C48,55.28,48.34,55.1,48.68,54.9Z"/><path class="cls-18" d="M49.74,54.9c-.34.24-.74.5-1.18.75s-.7.39-1,.54c0,.08,0,.16,0,.25h.08c.34-.16.71-.35,1.09-.58s.79-.48,1.11-.71Z"/><path class="cls-18" d="M49.31,56.44c.24-.15.47-.31.66-.45l0-.26c-.3.22-.66.47-1.07.71Z"/><path class="cls-19" d="M48.78,50a1.79,1.79,0,0,1,1.12,1.66,1.77,1.77,0,0,1-.46,1.19.64.64,0,0,0-.14.68A13.35,13.35,0,0,1,50,56.38c-.39,0-.8.06-1.2.06h-.12c-.4,0-.81,0-1.2-.06a13.34,13.34,0,0,1,.75-2.89.64.64,0,0,0-.14-.68,1.77,1.77,0,0,1-.46-1.19A1.79,1.79,0,0,1,48.78,50m0-1a1,1,0,0,0-.38.07,2.78,2.78,0,0,0-1.15,4.29,14.84,14.84,0,0,0-.73,2.89,1,1,0,0,0,.89,1.15c.41,0,.85.06,1.3.07h.13c.45,0,.89,0,1.3-.07A1,1,0,0,0,51,56.22a14.84,14.84,0,0,0-.73-2.89A2.78,2.78,0,0,0,49.16,49a1,1,0,0,0-.38-.07Z"/><path class="cls-19" d="M45.64,45.64a4.73,4.73,0,0,0,3.14,4.12,4.74,4.74,0,0,0,3.14-4.12A15.1,15.1,0,0,0,45.64,45.64Z"/><ellipse class="cls-19" cx="48.78" cy="45.9" rx="3.89" ry="1.74"/><path class="cls-20" d="M48.78,43.8c-2.15,0-3.89.78-3.89,1.74l.76.14c0-.76,1.41-1.38,3.13-1.38s3.14.62,3.14,1.38l.76-.14C52.67,44.58,50.93,43.8,48.78,43.8Z"/><path class="cls-21" d="M45.64,45.64v-.57a.27.27,0,0,0-.47-.18l-.77.88a.74.74,0,0,0-.17.62A6.72,6.72,0,0,0,47,50.9a.64.64,0,0,0,.82-.12l.91-1A4.73,4.73,0,0,1,45.64,45.64Z"/><path class="cls-22" d="M47.31,50.63a6.72,6.72,0,0,1-2.82-4.51.75.75,0,0,1,.17-.62l.59-.68a.27.27,0,0,0-.09.07l-.77.88a.75.75,0,0,0-.17.62A6.72,6.72,0,0,0,47,50.9a.64.64,0,0,0,.82-.12l.17-.19A.64.64,0,0,1,47.31,50.63Z"/><path class="cls-21" d="M51.92,45.64v-.57a.27.27,0,0,1,.47-.18l.77.88a.75.75,0,0,1,.17.62,6.72,6.72,0,0,1-2.82,4.51.64.64,0,0,1-.82-.12l-.91-1A4.74,4.74,0,0,0,51.92,45.64Z"/><path class="cls-23" d="M53.16,45.77l-.77-.88,0,0,.71.81a.75.75,0,0,1,.17.62,6.72,6.72,0,0,1-2.82,4.51.64.64,0,0,1-.78-.09l.07.08a.64.64,0,0,0,.82.12,6.72,6.72,0,0,0,2.82-4.51A.75.75,0,0,0,53.16,45.77Z"/><path class="cls-19" d="M48.78,43.8a5.23,5.23,0,0,1,3.6,1.08h0l.77.88a.75.75,0,0,1,.17.62,6.72,6.72,0,0,1-2.82,4.51.63.63,0,0,1-.34.1.65.65,0,0,1-.48-.22l-.91-1-.91,1a.65.65,0,0,1-.48.22.63.63,0,0,1-.34-.1,6.72,6.72,0,0,1-2.82-4.51.75.75,0,0,1,.17-.62l.77-.88h0a5.23,5.23,0,0,1,3.6-1.08m0-2a7.09,7.09,0,0,0-5,1.66l-.1.11-.77.88a2.74,2.74,0,0,0-.64,2.28A8.7,8.7,0,0,0,46,52.59a2.64,2.64,0,0,0,2.79,0,2.64,2.64,0,0,0,2.79,0,8.7,8.7,0,0,0,3.73-5.87,2.74,2.74,0,0,0-.64-2.28l-.77-.88-.1-.1a7,7,0,0,0-5-1.67Z"/><circle class="cls-3" cx="48.78" cy="44.22" r="12.22"/><path class="cls-24" d="M55,41.85V38.38a6.38,6.38,0,0,0-4.74-6.16h0a6.38,6.38,0,0,0-3.27,0h0a6.38,6.38,0,0,0-4.74,6.16v3.48A5.38,5.38,0,0,0,45,46.51l1.52.88a4.34,4.34,0,0,0,4.34,0l1.52-.88A5.38,5.38,0,0,0,55,41.85Z"/><path class="cls-25" d="M53.44,45.62l-1.52.88a4.34,4.34,0,0,1-4.34,0l-1.52-.88A5.38,5.38,0,0,1,43.37,41V37.49A6.36,6.36,0,0,1,45.24,33a6.37,6.37,0,0,0-3,5.38v3.48A5.38,5.38,0,0,0,45,46.51l1.52.88a4.34,4.34,0,0,0,4.34,0l1.52-.88a5.36,5.36,0,0,0,1.2-1Z"/><path class="cls-26" d="M55,39.55a6.36,6.36,0,0,0-3.41-5.42h0c-.18-.09-.36-.18-.54-.26a5.51,5.51,0,0,0-.77-.28,6.39,6.39,0,0,0-5.75,1.29A6.62,6.62,0,0,0,42.27,40v.94h5a1.47,1.47,0,0,1,1.54,1.44V48a4.33,4.33,0,0,0,2-.57l1.52-.88A5.38,5.38,0,0,0,55,41.85V39.55Z"/><path class="cls-19" d="M51.6,32.74h0c-.18-.09-.36-.18-.54-.26a5.5,5.5,0,0,0-.77-.28,6.39,6.39,0,0,0-5.75,1.29,6.62,6.62,0,0,0-2.26,5.11v.94h5a4.34,4.34,0,0,0,3.23-1.44.46.46,0,0,1,.68,0,4.34,4.34,0,0,0,3.23,1.44H55V38.38A6.36,6.36,0,0,0,51.6,32.74Z"/><path class="cls-27" d="M51.6,32.74h0c-.18-.09-.36-.18-.54-.26a5.5,5.5,0,0,0-.77-.28A6.37,6.37,0,0,0,47.91,32h0a6,6,0,0,0-1.83.5l-.31.16a6.33,6.33,0,0,0-.56.31l-.34.25c-.15.11-.29.22-.43.34s-.22.21-.33.32-.22.24-.33.36-.21.26-.31.4-.16.25-.24.37-.18.31-.27.47-.11.24-.16.36-.15.36-.21.54-.05.22-.08.33a6.26,6.26,0,0,0-.15.63h0a6.36,6.36,0,0,0-.08,1v1.17h.91a6.4,6.4,0,0,1,.55-2.14h.46a4.59,4.59,0,0,0,3.95-2.24A2.67,2.67,0,0,1,51,33.81l.15,0a5.51,5.51,0,0,1,.77.28c.19.08.37.16.54.26h0a6.41,6.41,0,0,1,2.19,1.89A6.39,6.39,0,0,0,51.6,32.74Z"/><path class="cls-3" d="M55,41.85V38.38a6.38,6.38,0,0,0-4.74-6.16h0a6.38,6.38,0,0,0-3.27,0h0a6.38,6.38,0,0,0-4.74,6.16v3.48A5.38,5.38,0,0,0,45,46.51l1.52.88a4.34,4.34,0,0,0,4.34,0l1.52-.88A5.38,5.38,0,0,0,55,41.85Z"/><path class="cls-24" d="M42.28,42.62H42a1.72,1.72,0,0,1-1.72-1.72h0a1.13,1.13,0,0,1,1.13-1.13h.86Z"/><path class="cls-3" d="M42.28,42.62H42a1.72,1.72,0,0,1-1.72-1.72h0a1.13,1.13,0,0,1,1.13-1.13h.86Z"/><path class="cls-24" d="M55,42.62h.27A1.72,1.72,0,0,0,57,40.9h0a1.13,1.13,0,0,0-1.13-1.13H55Z"/><path class="cls-3" d="M55,42.62h.27A1.72,1.72,0,0,0,57,40.9h0a1.13,1.13,0,0,0-1.13-1.13H55Z"/></svg>