<svg id="Layer_1" data-name="Layer 1" xmlns="http://www.w3.org/2000/svg" viewBox="0 0 64 64"><defs><style>.cls-1{fill:#d9ebf4;}.cls-2{fill:#c6e2f4;}.cls-3,.cls-8{fill:none;stroke-linecap:round;stroke-linejoin:round;}.cls-3{stroke:#041256;stroke-width:2px;}.cls-4{fill:#53e5aa;}.cls-5{fill:#6ea8cc;}.cls-6{fill:#92f7d2;}.cls-7{fill:#ccffea;}.cls-8{stroke:#fff;}.cls-9{fill:#c6dbd2;}.cls-10{fill:#daefe6;}.cls-11{fill:#fff;}.cls-12{fill:#ef7052;}.cls-13{fill:#ff9971;}.cls-14{fill:#ffd6ae;}</style></defs><title>chat, communication, conversation, text, message</title><path class="cls-1" d="M51,21.59H48.59a.76.76,0,0,1,0-1.52h1.21a.46.46,0,0,0,.46-.46.46.46,0,0,1,.46-.46h2.43a.76.76,0,1,1,0,1.52H51.93a.46.46,0,0,0-.46.46A.46.46,0,0,1,51,21.59Z"/><path class="cls-1" d="M53,22.78H54.4a.26.26,0,0,1,.26.26.26.26,0,0,0,.26.26h.7a.44.44,0,0,1,0,.88H54.22a.26.26,0,0,1-.26-.26.26.26,0,0,0-.26-.26H53a.44.44,0,0,1,0-.88Z"/><path class="cls-1" d="M48.27,15.08h1.41a.26.26,0,0,1,.26.26.26.26,0,0,0,.26.26h.7a.44.44,0,0,1,0,.88H49.51a.26.26,0,0,1-.26-.26A.26.26,0,0,0,49,16h-.7a.44.44,0,1,1,0-.88Z"/><circle class="cls-1" cx="60.53" cy="24.5" r="0.63"/><circle class="cls-1" cx="50.86" cy="24.64" r="0.61"/><circle class="cls-1" cx="47.83" cy="25.89" r="0.98"/><circle class="cls-1" cx="47.24" cy="18.27" r="0.32"/><circle class="cls-1" cx="57.23" cy="25.88" r="0.39"/><circle class="cls-1" cx="54.31" cy="27.1" r="1.02"/><circle class="cls-1" cx="58.27" cy="23.13" r="0.35"/><path class="cls-1" d="M13.35,27h0a.5.5,0,0,0-.5-.5H10.18a.83.83,0,0,0-.83.83h0a.83.83,0,0,0,.83.83h1.33a.5.5,0,0,1,.5.5h0a.5.5,0,0,0,.5.5h2.67a.83.83,0,0,0,.83-.83h0a.83.83,0,0,0-.83-.83H13.85A.5.5,0,0,1,13.35,27Z"/><path class="cls-1" d="M8.52,30.81h0a.29.29,0,0,1,.29-.29h1.55a.48.48,0,0,1,.48.48h0a.48.48,0,0,1-.48.48H9.58a.29.29,0,0,0-.29.29h0a.29.29,0,0,1-.29.29H7.45A.48.48,0,0,1,7,31.58H7a.48.48,0,0,1,.48-.48h.77A.29.29,0,0,0,8.52,30.81Z"/><circle class="cls-1" cx="11.81" cy="38.71" r="0.7"/><circle class="cls-1" cx="12.69" cy="32.56" r="0.67"/><circle class="cls-1" cx="16.02" cy="33.93" r="1.08"/><circle class="cls-1" cx="16.67" cy="25.56" r="0.35"/><circle class="cls-1" cx="5.69" cy="33.93" r="0.43"/><circle class="cls-1" cx="8.91" cy="35.26" r="1.12"/><circle class="cls-1" cx="4.55" cy="30.9" r="0.39"/><path class="cls-2" d="M60.79,61V33.72a.89.89,0,0,0-.89-.89H59a.89.89,0,0,0-.89.89V36a.89.89,0,0,1-.89.89h-3a.89.89,0,0,0-.89.89V48.15a.89.89,0,0,1-.89.89H50.57a.89.89,0,0,0-.89.89v6.54a.89.89,0,0,1-.89.89h-.9a.89.89,0,0,1-.89-.89V55.34a.89.89,0,0,0-.89-.89H45.3a.89.89,0,0,1-.89-.89V52a.89.89,0,0,0-.89-.89H38.73a.89.89,0,0,1-.89-.89v-.91a.89.89,0,0,0-.89-.89H21.55a.89.89,0,0,0-.63.26l-4.14,4.14a.89.89,0,0,1-.63.26H14.91A.89.89,0,0,0,14,54v3a.89.89,0,0,1-.89.89h-.51a.89.89,0,0,1-.89-.89v-.52a.89.89,0,0,0-.89-.89h-.65a.89.89,0,0,1-.89-.89.89.89,0,0,0-.89-.89H3.77a.89.89,0,0,0-.89.89V61Z"/><line class="cls-3" x1="60.83" y1="61" x2="2.83" y2="61"/><path class="cls-4" d="M51.24,3h-40A4.59,4.59,0,0,0,6.66,7.59V8.76a.93.93,0,0,1-.59.86L3.34,10.68a.79.79,0,0,0,0,1.48l2.72,1.05a.93.93,0,0,1,.59.86v1.18a4.59,4.59,0,0,0,4.59,4.59h40a4.59,4.59,0,0,0,4.59-4.59V7.59A4.59,4.59,0,0,0,51.24,3Z"/><path class="cls-5" d="M7.2,7.93a.93.93,0,0,0,.59-.86V5.89a4.56,4.56,0,0,1,.32-1.64A4.56,4.56,0,0,0,6.66,7.59v.56Z"/><path class="cls-5" d="M52.38,18.14h-40a4.59,4.59,0,0,1-4.59-4.59V12.38a.93.93,0,0,0-.59-.86L4.48,10.46a.81.81,0,0,1-.23-.13l-.91.35a.79.79,0,0,0,0,1.48l2.72,1.05a.93.93,0,0,1,.59.86v1.18a4.59,4.59,0,0,0,4.59,4.59h40a4.58,4.58,0,0,0,4.27-2.95A4.56,4.56,0,0,1,52.38,18.14Z"/><path class="cls-6" d="M30.15,3H11.24A4.58,4.58,0,0,0,7,6a4.54,4.54,0,0,1,1.47-.26h20A1.73,1.73,0,0,0,30.15,4Z"/><path class="cls-6" d="M51.24,3H32.18V4a1.73,1.73,0,0,0,1.73,1.73H48.43A4.59,4.59,0,0,1,53,10.31V18a4.55,4.55,0,0,1-.31,1.61,4.57,4.57,0,0,0,3.12-4.33V7.59A4.59,4.59,0,0,0,51.24,3Z"/><path class="cls-7" d="M51.24,3H49.56a4.59,4.59,0,0,1,4.59,4.59v7.66a4.51,4.51,0,0,1-1.15,3,4.68,4.68,0,0,1-.28,1.32,4.57,4.57,0,0,0,3.12-4.33V7.59A4.59,4.59,0,0,0,51.24,3Z"/><path class="cls-6" d="M3.34,12.15l.15.06a.92.92,0,0,0,.36-.73v-1l-.5.19A.79.79,0,0,0,3.34,12.15Z"/><path class="cls-3" d="M51.24,3h-40A4.59,4.59,0,0,0,6.66,7.59V8.76a.93.93,0,0,1-.59.86L3.34,10.68a.79.79,0,0,0,0,1.48l2.72,1.05a.93.93,0,0,1,.59.86v1.18a4.59,4.59,0,0,0,4.59,4.59h40a4.59,4.59,0,0,0,4.59-4.59V7.59A4.59,4.59,0,0,0,51.24,3Z"/><line class="cls-8" x1="17.38" y1="9.93" x2="36.73" y2="9.93"/><line class="cls-8" x1="17.38" y1="12.9" x2="22.8" y2="12.9"/><line class="cls-8" x1="25.38" y1="12.9" x2="26.16" y2="12.9"/><line class="cls-8" x1="28.34" y1="12.9" x2="28.34" y2="12.9"/><path class="cls-9" d="M20.08,24.86H53.75a3.86,3.86,0,0,1,3.86,3.86v1a.78.78,0,0,0,.5.73l2.29.89a.67.67,0,0,1,0,1.24l-2.29.89a.78.78,0,0,0-.5.73v1A3.86,3.86,0,0,1,53.75,39H20.08a3.86,3.86,0,0,1-3.86-3.86V28.73A3.86,3.86,0,0,1,20.08,24.86Z"/><path class="cls-5" d="M57.16,29a.78.78,0,0,1-.5-.73v-1a3.84,3.84,0,0,0-.27-1.38,3.84,3.84,0,0,1,1.23,2.81v.47Z"/><path class="cls-5" d="M19.12,37.61H52.79a3.86,3.86,0,0,0,3.86-3.86v-1a.78.78,0,0,1,.5-.73l2.29-.89a.67.67,0,0,0,.19-.11l.77.3a.67.67,0,0,1,0,1.24l-2.29.89a.78.78,0,0,0-.5.73v1A3.86,3.86,0,0,1,53.75,39H20.08a3.86,3.86,0,0,1-3.6-2.48A3.84,3.84,0,0,0,19.12,37.61Z"/><path class="cls-10" d="M37.84,24.86H53.75a3.85,3.85,0,0,1,3.61,2.51,3.82,3.82,0,0,0-1.24-.22H39.3a1.46,1.46,0,0,1-1.46-1.46Z"/><path class="cls-10" d="M20.08,24.86H36.13v.83a1.46,1.46,0,0,1-1.46,1.46H22.45A3.86,3.86,0,0,0,18.59,31v6.45a3.83,3.83,0,0,0,.26,1.35,3.85,3.85,0,0,1-2.62-3.64V28.73A3.86,3.86,0,0,1,20.08,24.86Z"/><path class="cls-11" d="M20.08,24.86H21.5a3.86,3.86,0,0,0-3.86,3.86v6.45a3.8,3.8,0,0,0,1,2.53,3.94,3.94,0,0,0,.23,1.11,3.85,3.85,0,0,1-2.62-3.64V28.73A3.86,3.86,0,0,1,20.08,24.86Z"/><path class="cls-6" d="M60.41,32.57l-.12,0A.78.78,0,0,1,60,32v-.84l.42.16A.67.67,0,0,1,60.41,32.57Z"/><path class="cls-3" d="M20.08,24.86H53.75a3.86,3.86,0,0,1,3.86,3.86v1a.78.78,0,0,0,.5.73l2.29.89a.67.67,0,0,1,0,1.24l-2.29.89a.78.78,0,0,0-.5.73v1A3.86,3.86,0,0,1,53.75,39H20.08a3.86,3.86,0,0,1-3.86-3.86V28.73A3.86,3.86,0,0,1,20.08,24.86Z"/><path class="cls-12" d="M54.09,44.17h-40A4.59,4.59,0,0,0,9.5,48.75v1.18a.93.93,0,0,1-.59.86L6.18,51.85a.79.79,0,0,0,0,1.48l2.72,1.05a.93.93,0,0,1,.59.86v1.18A4.59,4.59,0,0,0,14.09,61h40a4.59,4.59,0,0,0,4.59-4.59V48.75A4.59,4.59,0,0,0,54.09,44.17Z"/><path class="cls-5" d="M10,49.1a.93.93,0,0,0,.59-.86V47.06A4.56,4.56,0,0,1,11,45.42,4.56,4.56,0,0,0,9.5,48.75v.56Z"/><path class="cls-5" d="M55.23,59.31h-40a4.59,4.59,0,0,1-4.59-4.59V53.54a.93.93,0,0,0-.59-.86L7.32,51.63a.81.81,0,0,1-.23-.13l-.91.35a.79.79,0,0,0,0,1.48l2.72,1.05a.93.93,0,0,1,.59.86v1.18A4.59,4.59,0,0,0,14.09,61h40a4.58,4.58,0,0,0,4.27-2.95A4.56,4.56,0,0,1,55.23,59.31Z"/><path class="cls-13" d="M33,44.17H14.09a4.58,4.58,0,0,0-4.28,3,4.54,4.54,0,0,1,1.47-.26h20A1.73,1.73,0,0,0,33,45.15Z"/><path class="cls-13" d="M54.09,44.17H35v1a1.73,1.73,0,0,0,1.73,1.73H51.27a4.59,4.59,0,0,1,4.59,4.59v7.66a4.55,4.55,0,0,1-.31,1.61,4.57,4.57,0,0,0,3.12-4.33V48.75A4.59,4.59,0,0,0,54.09,44.17Z"/><path class="cls-14" d="M54.09,44.17H52.4A4.59,4.59,0,0,1,57,48.75v7.66a4.51,4.51,0,0,1-1.15,3,4.68,4.68,0,0,1-.28,1.32,4.57,4.57,0,0,0,3.12-4.33V48.75A4.59,4.59,0,0,0,54.09,44.17Z"/><path class="cls-6" d="M6.18,53.32l.15.06a.92.92,0,0,0,.36-.73v-1l-.5.19A.79.79,0,0,0,6.18,53.32Z"/><path class="cls-3" d="M54.09,44.17h-40A4.59,4.59,0,0,0,9.5,48.75v1.18a.93.93,0,0,1-.59.86L6.18,51.85a.79.79,0,0,0,0,1.48l2.72,1.05a.93.93,0,0,1,.59.86v1.18A4.59,4.59,0,0,0,14.09,61h40a4.59,4.59,0,0,0,4.59-4.59V48.75A4.59,4.59,0,0,0,54.09,44.17Z"/><circle class="cls-11" cx="31.61" cy="31.95" r="0.73"/><circle class="cls-11" cx="36.73" cy="31.95" r="0.73"/><circle class="cls-11" cx="41.85" cy="31.95" r="0.73"/><circle class="cls-11" cx="21.8" cy="52.58" r="3.42"/><circle class="cls-12" cx="21.8" cy="51.56" r="1.21"/><path class="cls-12" d="M21.8,53.38a4.52,4.52,0,0,0-3.55,1.74,4.49,4.49,0,0,0,7.11,0A4.52,4.52,0,0,0,21.8,53.38Z"/><line class="cls-8" x1="30.15" y1="51.1" x2="49.5" y2="51.1"/><line class="cls-8" x1="30.15" y1="54.07" x2="35.56" y2="54.07"/><line class="cls-8" x1="38.14" y1="54.07" x2="38.92" y2="54.07"/><line class="cls-8" x1="41.11" y1="54.07" x2="41.11" y2="54.07"/></svg>