<svg id="Layer_1" data-name="Layer 1" xmlns="http://www.w3.org/2000/svg" viewBox="0 0 64 64"><defs><style>.cls-1{fill:#d9ebf4;}.cls-2{fill:#c6e2f4;}.cls-3,.cls-9{fill:none;stroke-linecap:round;stroke-linejoin:round;stroke-width:2px;}.cls-3{stroke:#041256;}.cls-4{fill:#b6c2d3;}.cls-5{fill:#cedbea;}.cls-6{fill:#80f9ea;}.cls-7{fill:#fff;}.cls-8{fill:#a6b5c9;}.cls-9{stroke:#f9f9f9;}.cls-10{fill:#95a9bf;}.cls-11{fill:#19a59e;}.cls-12{fill:#158189;}.cls-13{fill:#47d18f;}.cls-14{fill:#92ffc6;}</style></defs><title>upload, cloud, transfer, storage, data</title><path class="cls-1" d="M6.89,42.84h0a.49.49,0,0,1,.49-.49H10a.82.82,0,0,1,.82.82h0A.82.82,0,0,1,10,44H8.69a.49.49,0,0,0-.49.49h0a.49.49,0,0,1-.49.49H5.1a.82.82,0,0,1-.82-.82h0a.82.82,0,0,1,.82-.82H6.4A.49.49,0,0,0,6.89,42.84Z"/><path class="cls-1" d="M11.63,46.53h0a.28.28,0,0,0-.28-.28H9.83a.47.47,0,0,0-.47.47h0a.47.47,0,0,0,.47.47h.76a.28.28,0,0,1,.28.28h0a.28.28,0,0,0,.28.28h1.52a.47.47,0,0,0,.47-.47h0a.47.47,0,0,0-.47-.47h-.76A.28.28,0,0,1,11.63,46.53Z"/><circle class="cls-1" cx="17.95" cy="48.1" r="0.68"/><circle class="cls-1" cx="7.54" cy="48.25" r="0.66"/><circle class="cls-1" cx="4.28" cy="49.59" r="1.06"/><circle class="cls-1" cx="3.64" cy="41.39" r="0.34"/><circle class="cls-1" cx="14.4" cy="49.59" r="0.42"/><circle class="cls-1" cx="11.25" cy="50.9" r="1.1"/><circle class="cls-1" cx="15.52" cy="46.63" r="0.38"/><path class="cls-1" d="M57.11,8.5h0A.49.49,0,0,0,56.61,8H54a.82.82,0,0,0-.82.82h0a.82.82,0,0,0,.82.82h1.31a.49.49,0,0,1,.49.49h0a.49.49,0,0,0,.49.49H58.9a.82.82,0,0,0,.82-.82h0A.82.82,0,0,0,58.9,9H57.6A.49.49,0,0,1,57.11,8.5Z"/><path class="cls-1" d="M52.37,12.19h0a.28.28,0,0,1,.28-.28h1.52a.47.47,0,0,1,.47.47h0a.47.47,0,0,1-.47.47h-.76a.28.28,0,0,0-.28.28h0a.28.28,0,0,1-.28.28H51.33a.47.47,0,0,1-.47-.47h0a.47.47,0,0,1,.47-.47h.76A.28.28,0,0,0,52.37,12.19Z"/><circle class="cls-1" cx="46.05" cy="13.75" r="0.68"/><circle class="cls-1" cx="56.46" cy="13.91" r="0.66"/><circle class="cls-1" cx="59.72" cy="15.25" r="1.06"/><circle class="cls-1" cx="60.36" cy="7.05" r="0.34"/><circle class="cls-1" cx="49.6" cy="15.25" r="0.42"/><circle class="cls-1" cx="52.75" cy="16.56" r="1.1"/><circle class="cls-1" cx="48.48" cy="12.28" r="0.38"/><path class="cls-2" d="M58.19,32v2.27a.89.89,0,0,1-.89.89h-3a.89.89,0,0,0-.89.89V46.4a.89.89,0,0,1-.89.89H50.69a.89.89,0,0,0-.89.89v6.54a.89.89,0,0,1-.89.89H48a.89.89,0,0,1-.89-.89V53.58a.89.89,0,0,0-.89-.89h-.81a.89.89,0,0,1-.89-.89V50.27a.89.89,0,0,0-.89-.89H38.85a.89.89,0,0,1-.89-.89v-.91a.89.89,0,0,0-.89-.89H21.67a.89.89,0,0,0-.63.26L16.9,51.08a.89.89,0,0,1-.63.26H15a.89.89,0,0,0-.89.89v3a.89.89,0,0,1-.89.89h-.51a.89.89,0,0,1-.89-.89v-.52a.89.89,0,0,0-.89-.89H10.3a.89.89,0,0,1-.89-.89h0a.89.89,0,0,0-.89-.89H3.89a.89.89,0,0,0-.89.89v7.17a.89.89,0,0,0,.9.89L60,60.62a.89.89,0,0,0,.89-.89V32a.89.89,0,0,0-.89-.89h-.93A.89.89,0,0,0,58.19,32Z"/><line class="cls-3" x1="2.99" y1="61" x2="61.01" y2="61"/><circle class="cls-4" cx="32" cy="23.16" r="20.16"/><path class="cls-5" d="M13.12,25.45a20.15,20.15,0,0,1,37.05-11A20.14,20.14,0,1,0,15.1,34.13,20,20,0,0,1,13.12,25.45Z"/><path class="cls-6" d="M39.34,4.4a20.15,20.15,0,0,1-17,36.43,20.15,20.15,0,1,0,17-36.43Z"/><path class="cls-5" d="M32,3a20.11,20.11,0,0,0-6.27,1V5.13A2.43,2.43,0,0,0,29,7.4a20.09,20.09,0,0,1,18.64,3A20.11,20.11,0,0,0,32,3Z"/><path class="cls-7" d="M29.42,3.18l-1,.15-.94.19-.7.18c-.35.1-.71.19-1.05.3h0V5.13a2.35,2.35,0,0,0,.5,1.45A20,20,0,0,1,43.07,7.84a20.31,20.31,0,0,1,4.46,2.52,20.21,20.21,0,0,0-7.06-5.49l-.16-.07q-.52-.24-1.06-.45L39,4.26q-.59-.22-1.19-.4l-.07,0c-.43-.13-.87-.24-1.31-.34l-.28-.06-1-.19-.42-.06-1-.11-.4,0c-.45,0-.9,0-1.36,0-.62,0-1.24,0-1.84.09Z"/><path class="cls-5" d="M23.46,6.56V4.92a20.12,20.12,0,0,0-3.6,34.3A20.11,20.11,0,0,1,21,12.51,8.58,8.58,0,0,0,23.46,6.56Z"/><path class="cls-7" d="M11.93,25c0,.33.06.65.11,1,0,.14,0,.29.06.43q.08.5.18,1c0,.11,0,.23.07.34a20,20,0,0,0,.79,2.61l.06.15q.21.55.46,1.08l.14.29q.22.46.46.9l.18.33c.16.28.33.56.51.84l.13.21A20.08,20.08,0,0,1,23.33,7.92a8.06,8.06,0,0,0,.13-1.36V4.92A20.24,20.24,0,0,0,19.9,7.06l-.1.08q-.53.41-1,.85l0,0a20.32,20.32,0,0,0-1.81,1.81l-.17.19c-.24.27-.46.55-.68.84l-.38.5c-.19.26-.38.53-.56.8s-.42.67-.61,1-.32.59-.48.89-.31.62-.45.94-.19.44-.28.66q-.23.56-.42,1.14c-.05.16-.12.32-.17.49q-.25.82-.43,1.66c0,.16-.06.33-.09.49q-.12.67-.21,1.35c0,.18,0,.35-.06.53-.06.61-.09,1.22-.09,1.84,0,.47,0,.93.05,1.39C11.9,24.68,11.92,24.82,11.93,25Z"/><path class="cls-8" d="M49.8,22.43A11.23,11.23,0,0,0,38.58,33.65V44.88H49.8a11.23,11.23,0,0,0,0-22.45Z"/><path class="cls-9" d="M49.8,22.43a11.23,11.23,0,0,0-10.34,6.86"/><path class="cls-6" d="M49.8,22.43c-.37,0-.73,0-1.09.06a11.22,11.22,0,0,1-1.09,22.4H49.8a11.23,11.23,0,0,0,0-22.45Z"/><path class="cls-3" d="M61,33.65A11.23,11.23,0,0,0,45.84,23.15"/><path class="cls-8" d="M30.22,27.5A13.84,13.84,0,1,0,16.81,44.73H43.89a5.91,5.91,0,0,0,5.91-5.91h0a7.92,7.92,0,0,0-7.92-7.92H34.48A4.42,4.42,0,0,1,30.22,27.5Z"/><path class="cls-9" d="M28.17,23.16A13.83,13.83,0,0,0,15.23,17.3"/><path class="cls-9" d="M30.22,27.64q-.1-.38-.21-.75"/><path class="cls-4" d="M8.6,33.11a13.81,13.81,0,0,1,16.7-13,13.78,13.78,0,0,0-9-2.91A13.83,13.83,0,0,0,14,44.59,13.8,13.8,0,0,1,8.6,33.11Z"/><path class="cls-7" d="M5.29,32.11A14,14,0,0,1,18.57,18.82,13.77,13.77,0,0,1,24.77,20l.53.1a13.78,13.78,0,0,0-9-2.91A14,14,0,0,0,3,30.5,13.82,13.82,0,0,0,10.1,43.13,13.79,13.79,0,0,1,5.29,32.11Z"/><path class="cls-10" d="M48.43,34.91A9.42,9.42,0,0,0,40.68,31H38.89a11.22,11.22,0,0,0-.32,2.61v5.91a5.31,5.31,0,0,0,5.31,5.31h0C48.45,44.88,51.8,39.71,48.43,34.91Z"/><path class="cls-3" d="M52.13,22.67A20.14,20.14,0,0,0,12.56,17.9,14,14,0,0,0,3,30.5,13.83,13.83,0,0,0,16.81,44.88h33a11.22,11.22,0,0,0,2.33-22.21Z"/><path class="cls-3" d="M26.39,21.07a13.79,13.79,0,0,0-10.12-3.85,13.45,13.45,0,0,0-3.71.67A14,14,0,0,0,3,30.5"/><path class="cls-11" d="M44.81,41,33,29.26a1.46,1.46,0,0,0-2.06,0L19.19,41a1.46,1.46,0,0,0,1,2.49h0A1.46,1.46,0,0,1,21.68,45V61H42.32V45a1.46,1.46,0,0,1,1.46-1.46h0A1.46,1.46,0,0,0,44.81,41Z"/><path class="cls-12" d="M33,29.26A1.44,1.44,0,0,0,32,28.84V61H42.32V45a1.46,1.46,0,0,1,1.46-1.46,1.46,1.46,0,0,0,1-2.49Z"/><path class="cls-6" d="M44.81,41,33,29.26A1.44,1.44,0,0,0,32,28.84L43.12,41a1.46,1.46,0,0,1-1,2.49A1.46,1.46,0,0,0,40.64,45V61h1.69V45a1.46,1.46,0,0,1,1.46-1.46A1.46,1.46,0,0,0,44.81,41Z"/><path class="cls-13" d="M24.62,61V46.11a1.46,1.46,0,0,0-1.46-1.46,1.46,1.46,0,0,1-1-2.49L33.91,30.38a1.36,1.36,0,0,1,.14-.1l-1-1a1.46,1.46,0,0,0-2.06,0L19.19,41a1.46,1.46,0,0,0,1,2.49A1.46,1.46,0,0,1,21.68,45V61Z"/><path class="cls-14" d="M23.35,44.67l-.19,0a1.43,1.43,0,0,1-1.41-1.15A1.45,1.45,0,0,1,20.9,41L32.68,29.26a1.37,1.37,0,0,1,.18-.12,1.44,1.44,0,0,0-1.88.12L19.19,41a1.46,1.46,0,0,0,1,2.49A1.46,1.46,0,0,1,21.68,45V61h1.71V45A1.46,1.46,0,0,0,23.35,44.67Z"/><path class="cls-11" d="M32.53,28.94a1.45,1.45,0,0,0-.43-.08H32v3.5l2-2a1.36,1.36,0,0,1,.14-.1l-1-1a1.44,1.44,0,0,0-.44-.29Z"/><path class="cls-3" d="M44.81,41,33,29.26a1.46,1.46,0,0,0-2.06,0L19.19,41a1.46,1.46,0,0,0,1,2.49h0A1.46,1.46,0,0,1,21.68,45V61H42.32V45a1.46,1.46,0,0,1,1.46-1.46h0A1.46,1.46,0,0,0,44.81,41Z"/></svg>