<svg id="Layer_1" data-name="Layer 1" xmlns="http://www.w3.org/2000/svg" viewBox="0 0 64 64"><defs><style>.cls-1{fill:#d9ebf4;}.cls-2{fill:#c6e2f4;}.cls-17,.cls-3{fill:none;}.cls-3{stroke:#041256;stroke-linecap:round;stroke-linejoin:round;stroke-width:2px;}.cls-4{fill:#dbd9d9;}.cls-5{fill:#c1bfbf;}.cls-6{fill:#c5fff0;}.cls-7{fill:#ededed;}.cls-8{fill:#fff;}.cls-9{fill:#5d86d8;}.cls-10{fill:#77a3e8;}.cls-11{fill:#4a76ce;}.cls-12{fill:#3268bf;}.cls-13{fill:#77bc94;}.cls-14{fill:#8dc9a8;}.cls-15{fill:#66af83;}.cls-16{fill:#a3e2be;}.cls-17{stroke:#a3e2be;stroke-miterlimit:10;stroke-width:0.5px;}.cls-18{fill:#96b8ea;}.cls-19{fill:#b8f4d0;}.cls-20{fill:#c3e2f4;}.cls-21{fill:#b7d4ea;}.cls-22{fill:#6aefa6;}.cls-23{fill:#dcf3ff;}.cls-24{fill:#88b5d1;}.cls-25{fill:#5995b2;}.cls-26{fill:#53e096;}.cls-27{fill:#65d2db;}.cls-28{fill:#54cdd3;}.cls-29{fill:#41cea2;}.cls-30{fill:#7ee5e8;}.cls-31{fill:#449ecc;}.cls-32{fill:#0a8787;}</style></defs><title>international, global, earth, conversation, chat, communication</title><path class="cls-1" d="M10.87,30.61H8.44a.76.76,0,0,1,0-1.52H9.66a.46.46,0,0,0,.46-.46.46.46,0,0,1,.46-.46H13a.76.76,0,0,1,0,1.52H11.78a.46.46,0,0,0-.46.46A.46.46,0,0,1,10.87,30.61Z"/><path class="cls-1" d="M12.84,31.8h1.41a.26.26,0,0,1,.26.26.26.26,0,0,0,.26.26h.7a.44.44,0,0,1,0,.88H14.07a.26.26,0,0,1-.26-.26.26.26,0,0,0-.26-.26h-.7a.44.44,0,0,1,0-.88Z"/><path class="cls-1" d="M8.12,24.1H9.53a.26.26,0,0,1,.26.26.26.26,0,0,0,.26.26h.7a.44.44,0,0,1,0,.88H9.36a.26.26,0,0,1-.26-.26A.26.26,0,0,0,8.83,25h-.7a.44.44,0,0,1,0-.88Z"/><circle class="cls-1" cx="20.38" cy="33.52" r="0.63"/><circle class="cls-1" cx="10.71" cy="33.66" r="0.61"/><circle class="cls-1" cx="7.68" cy="34.91" r="0.98"/><circle class="cls-1" cx="7.09" cy="27.29" r="0.32"/><circle class="cls-1" cx="17.08" cy="34.91" r="0.39"/><circle class="cls-1" cx="14.16" cy="36.12" r="1.02"/><circle class="cls-1" cx="18.12" cy="32.15" r="0.35"/><path class="cls-1" d="M13.6,9.63h0a.5.5,0,0,0-.5-.5H10.43a.83.83,0,0,0-.83.83h0a.83.83,0,0,0,.83.83h1.33a.5.5,0,0,1,.5.5h0a.5.5,0,0,0,.5.5h2.67a.83.83,0,0,0,.83-.83h0a.83.83,0,0,0-.83-.83H14.1A.5.5,0,0,1,13.6,9.63Z"/><path class="cls-1" d="M8.77,13.4h0a.29.29,0,0,1,.29-.29H10.6a.48.48,0,0,1,.48.48h0a.48.48,0,0,1-.48.48H9.83a.29.29,0,0,0-.29.29h0a.29.29,0,0,1-.29.29H7.7a.48.48,0,0,1-.48-.48h0a.48.48,0,0,1,.48-.48h.77A.29.29,0,0,0,8.77,13.4Z"/><circle class="cls-1" cx="12.06" cy="21.31" r="0.7"/><circle class="cls-1" cx="12.94" cy="15.15" r="0.67"/><circle class="cls-1" cx="16.27" cy="16.52" r="1.08"/><circle class="cls-1" cx="16.92" cy="8.15" r="0.35"/><circle class="cls-1" cx="5.94" cy="16.52" r="0.43"/><circle class="cls-1" cx="9.15" cy="17.85" r="1.12"/><circle class="cls-1" cx="4.79" cy="13.49" r="0.39"/><path class="cls-2" d="M61,61V33.75a.89.89,0,0,0-.89-.89h-.93a.89.89,0,0,0-.89.89V36a.89.89,0,0,1-.89.89h-3a.89.89,0,0,0-.89.89V48.18a.89.89,0,0,1-.89.89H50.74a.89.89,0,0,0-.89.89V56.5a.89.89,0,0,1-.89.89h-.9a.89.89,0,0,1-.89-.89V55.36a.89.89,0,0,0-.89-.89h-.81a.89.89,0,0,1-.89-.89V52a.89.89,0,0,0-.89-.89H38.9a.89.89,0,0,1-.89-.89v-.91a.89.89,0,0,0-.89-.89H21.71a.89.89,0,0,0-.63.26l-4.14,4.14a.89.89,0,0,1-.63.26H15.07a.89.89,0,0,0-.89.89v3a.89.89,0,0,1-.89.89h-.51a.89.89,0,0,1-.89-.89V56.5a.89.89,0,0,0-.89-.89h-.65a.89.89,0,0,1-.89-.89.89.89,0,0,0-.89-.89H3.94a.89.89,0,0,0-.89.89V61Z"/><line class="cls-3" x1="61" y1="61.03" x2="3" y2="61.03"/><path class="cls-4" d="M57.25,38.62a23.06,23.06,0,1,0-6.69,6.69,3.15,3.15,0,0,1,3.18-.18L58,47.35a1,1,0,0,0,1.28-1.28L57.06,41.8A3.15,3.15,0,0,1,57.25,38.62Z"/><path class="cls-5" d="M56.18,22.17l-7.93-7.93L28.51,38.75l4.87,4.87a6.11,6.11,0,0,1,1.79,4.32v1h0a23,23,0,0,0,15.38-3.59,3.14,3.14,0,0,1,3.17-.18L58,47.35a1,1,0,0,0,1.28-1.28L57.06,41.8a3.13,3.13,0,0,1,.17-3.16,22.72,22.72,0,0,0,1.45-2.55A12.24,12.24,0,0,0,56.18,22.17Z"/><path class="cls-6" d="M57.06,41.8a3.15,3.15,0,0,1,.18-3.18A23,23,0,0,0,49.57,6.14,23,23,0,0,1,55.8,37.71a3.15,3.15,0,0,0-.18,3.18l2.22,4.27a1,1,0,0,1-1.28,1.28l-4.27-2.22a3.15,3.15,0,0,0-3.18.18A23,23,0,0,1,34.05,48a22.63,22.63,0,0,1-9-2.94A22.7,22.7,0,0,0,35.5,48.94a23,23,0,0,0,15.05-3.63,3.15,3.15,0,0,1,3.18-.18L58,47.35a1,1,0,0,0,1.28-1.28Z"/><path class="cls-7" d="M17.36,29.6A23.05,23.05,0,0,1,42.19,4.76,22.76,22.76,0,0,1,52.65,8.3,23,23,0,1,0,25.8,45.58,23,23,0,0,1,17.36,29.6Z"/><path class="cls-8" d="M16.36,28.77A23.05,23.05,0,0,1,41.19,3.93,22.72,22.72,0,0,1,51,7.06,22.79,22.79,0,0,0,39.81,3a23,23,0,0,0-14,42.54l-.53-.45A23,23,0,0,1,16.36,28.77Z"/><path class="cls-3" d="M57.25,38.62a23.06,23.06,0,1,0-6.69,6.69,3.15,3.15,0,0,1,3.18-.18L58,47.35a1,1,0,0,0,1.28-1.28L57.06,41.8A3.15,3.15,0,0,1,57.25,38.62Z"/><circle class="cls-9" cx="37.95" cy="26.02" r="14.92"/><circle class="cls-9" cx="37.95" cy="27.36" r="12.97"/><path class="cls-10" d="M50.24,17.57l-1.11.85a1.41,1.41,0,0,0-.31,1.89l0,0a1.39,1.39,0,0,0,2,.33l.79-.6A14.89,14.89,0,0,0,50.24,17.57Z"/><path class="cls-10" d="M50.23,23.18A13,13,0,1,1,46,17.24a1.4,1.4,0,0,0,1.73,0l1.4-1.07a14.9,14.9,0,1,0,2.72,4.52l-1.19.91A1.39,1.39,0,0,0,50.23,23.18Z"/><circle class="cls-11" cx="37.95" cy="28.24" r="12.09"/><path class="cls-12" d="M49.44,26.14c-.26.2-.52.4-.8.58a1,1,0,0,1-1.58-.67,11.67,11.67,0,0,0-.8-2.84,1,1,0,0,0-.38-.38l-2.31-1.32a1,1,0,0,0-.82-.1,5.81,5.81,0,0,1-.58.14,1,1,0,0,0-.81,1.2c.11.58.25,1.34.37,2.16a1,1,0,0,0,1.25.86h0a1,1,0,0,1,1.27.86,35.48,35.48,0,0,1,.25,7.31,1,1,0,0,0,.48,1l2.55,1.57a1,1,0,0,1,.29.29,12,12,0,0,0,1.56-10.63Z"/><path class="cls-12" d="M38.23,35h0a.81.81,0,0,0,1.47-.2,15.64,15.64,0,0,0,.51-4.13,17.06,17.06,0,0,0-.28-3.14.9.9,0,0,0-1.23-.65h0a10.45,10.45,0,0,1-2,.58.88.88,0,0,0-.71.76,17.9,17.9,0,0,0-.16,2.44,17,17,0,0,0,.29,3.19.81.81,0,0,0,.7.66l.8.09A.81.81,0,0,1,38.23,35Z"/><path class="cls-12" d="M26.3,29.39c0,2.86.53,5.85,2.19,7.92l2.56-2.06a2.3,2.3,0,0,0,.85-2.08A11.67,11.67,0,0,1,32,29a2.37,2.37,0,0,0-.4-2l-.22-.28a2.31,2.31,0,0,1-.31-2.28A24.59,24.59,0,0,1,32.89,21a2.32,2.32,0,0,0,.23-2L33,18.59A12.08,12.08,0,0,0,26.3,29.39Z"/><path class="cls-13" d="M47.7,37.31a14.93,14.93,0,0,0,4.5-15.69,15.17,15.17,0,0,1-3.56,3.46,1,1,0,0,1-1.58-.67,11.67,11.67,0,0,0-.8-2.84,1,1,0,0,0-.38-.38l-2.31-1.32a1,1,0,0,0-.82-.1,5.83,5.83,0,0,1-.58.14,1,1,0,0,0-.81,1.2c.11.58.25,1.34.37,2.16a1,1,0,0,0,1.25.86h0A1,1,0,0,1,44.3,25a35.48,35.48,0,0,1,.25,7.31,1,1,0,0,0,.48,1l2.55,1.57A1,1,0,0,1,48,36Z"/><path class="cls-14" d="M52.83,24.93c0-.09,0-.17,0-.26,0-.25-.05-.5-.09-.75s0-.26-.06-.39-.07-.4-.11-.6-.06-.28-.09-.42-.1-.38-.15-.57l-.09-.32a17.42,17.42,0,0,1-1.82,2.06,13,13,0,0,1,.49,4.81,12.82,12.82,0,0,1-2.84,7,1,1,0,0,1,0,.5l-.33,1.3a15.06,15.06,0,0,0,3.55-4.51l.07-.14c.17-.35.33-.7.48-1.07l.05-.13c.12-.31.23-.62.33-.94l.09-.29q.15-.51.26-1c0-.11,0-.22.06-.33.06-.33.12-.66.16-1l0-.14q0-.44.07-.87c0-.09,0-.17,0-.26s0-.41,0-.61S52.85,25.27,52.83,24.93Z"/><path class="cls-15" d="M49.44,24.49c-.26.2-.52.4-.8.58a1,1,0,0,1-1.58-.67,11.67,11.67,0,0,0-.8-2.84,1,1,0,0,0-.38-.38l-2.31-1.32a1,1,0,0,0-.82-.1,5.83,5.83,0,0,1-.58.14,1,1,0,0,0-.81,1.2c.11.58.25,1.34.37,2.16a1,1,0,0,0,1.25.86h0A1,1,0,0,1,44.3,25a35.48,35.48,0,0,1,.25,7.31,1,1,0,0,0,.48,1l2.55,1.57a1,1,0,0,1,.29.29,12,12,0,0,0,1.56-10.63Z"/><path class="cls-15" d="M38.16,34h0a.81.81,0,0,0,1.47-.2,15.64,15.64,0,0,0,.51-4.13,17.07,17.07,0,0,0-.28-3.14.9.9,0,0,0-1.23-.65h0a10.45,10.45,0,0,1-2,.58.88.88,0,0,0-.71.76,17.9,17.9,0,0,0-.16,2.44,17,17,0,0,0,.29,3.19.81.81,0,0,0,.7.66l.8.09A.81.81,0,0,1,38.16,34Z"/><path class="cls-13" d="M23,26a14.87,14.87,0,0,0,4.44,10.62l3.15-2.54A2.3,2.3,0,0,0,31.47,32a11.66,11.66,0,0,1,.14-4.15,2.37,2.37,0,0,0-.4-2L31,25.6a2.31,2.31,0,0,1-.31-2.28,24.58,24.58,0,0,1,1.78-3.52,2.32,2.32,0,0,0,.23-2l-1.73-5A14.91,14.91,0,0,0,23,26Z"/><path class="cls-15" d="M25.86,28.24a12,12,0,0,0,2.66,7.55l2.1-1.7A2.3,2.3,0,0,0,31.47,32a11.66,11.66,0,0,1,.14-4.15,2.37,2.37,0,0,0-.4-2L31,25.6a2.31,2.31,0,0,1-.31-2.28,24.58,24.58,0,0,1,1.78-3.52,2.32,2.32,0,0,0,.23-2l-.13-.39A12.08,12.08,0,0,0,25.86,28.24Z"/><path class="cls-13" d="M29.34,35.13a12.94,12.94,0,0,1-1.44-5.86,16.9,16.9,0,0,0,3.47,1.58c0-.22,0-.43,0-.63a15.83,15.83,0,0,1-3.47-1.65A22.42,22.42,0,0,1,32,16l-.24-.7a22.51,22.51,0,0,0-4.51,12.87,8.66,8.66,0,0,1-3.57-5.07,14.07,14.07,0,0,1,7.55-9.34l-.19-.56a15,15,0,0,0-5.41,4.41,14.82,14.82,0,0,0-2.43,6.05,9.65,9.65,0,0,0,4,5.22,13.55,13.55,0,0,0,1.56,6.68Z"/><path class="cls-14" d="M27.47,36.64l.8-.65A12.95,12.95,0,0,1,32,15.85l-1-3a15.11,15.11,0,0,0-6.44,6.69l0,.08q-.27.56-.49,1.15l0,0c-.15.39-.27.79-.38,1.19,0,.1-.05.2-.08.31q-.11.43-.2.87,0,.22-.08.44c0,.3-.08.59-.11.89,0,.12,0,.24,0,.36s0,.17,0,.26c0,.24,0,.48,0,.72s0,.27,0,.41,0,.24,0,.35,0,.3,0,.46,0,.23,0,.35,0,.3.05.45,0,.22,0,.34.05.31.08.46,0,.21.06.32.07.32.11.48,0,.19.07.28q.09.37.21.73l.11.33.14.39.15.38.13.33.18.38.14.3.2.39.15.28.22.38.16.26.25.38.16.24.27.38.17.22.3.38.16.19.33.38.15.16.37.38Z"/><path class="cls-10" d="M52.81,23A15,15,0,0,0,39.43,11.66a22.3,22.3,0,0,0-3,0A15,15,0,0,0,23.1,23v.12a9.4,9.4,0,0,0,4.18,5.74c0,8.59,5.53,11.66,10.68,11.66S48.6,37.45,48.63,28.86a9.4,9.4,0,0,0,4.18-5.74V23ZM38,39.93c-1.51,0-3.24-2.25-3.64-8.34a21.24,21.24,0,0,0,7.29,0C41.19,37.69,39.46,39.93,38,39.93Zm0-8.61A21.1,21.1,0,0,1,34.28,31c0-.69-.06-1.42-.06-2.21,0-8,1.92-16.41,3.73-16.41s3.73,8.44,3.73,16.41c0,.79,0,1.51-.06,2.21A21.1,21.1,0,0,1,38,31.32ZM36.72,12.53c-2,2.42-3.11,10.32-3.11,16.26,0,.73,0,1.42.05,2.08a17,17,0,0,1-5.77-2.31C28,21.73,31.78,13.7,36.72,12.53Zm2.46,0c4.94,1.18,8.75,9.21,8.84,16a17,17,0,0,1-5.77,2.31c0-.67.05-1.36.05-2.08C42.3,22.85,41.14,14.95,39.18,12.53ZM23.71,23.07A14.3,14.3,0,0,1,35.22,12.43c-4.49,2.14-7.74,9.26-7.94,15.72A8.66,8.66,0,0,1,23.71,23.07Zm4.19,6.19a17.92,17.92,0,0,0,5.79,2.21c.26,4.17,1.15,7.06,2.54,8.32C31.17,39.09,28.06,35.2,27.9,29.27ZM39.68,39.8c1.38-1.26,2.27-4.15,2.54-8.32A17.92,17.92,0,0,0,48,29.27C47.84,35.2,44.73,39.09,39.68,39.8Zm8.94-11.66c-.2-6.46-3.45-13.58-7.94-15.71A14.3,14.3,0,0,1,52.2,23.07,8.66,8.66,0,0,1,48.62,28.14Z"/><path class="cls-16" d="M52.68,23.63a14.85,14.85,0,0,0-.47-2l-.31.4c.11.35.21.7.3,1.06a8.66,8.66,0,0,1-3.57,5.07,22.47,22.47,0,0,0-.3-2.94,1,1,0,0,1-.63,0,21.24,21.24,0,0,1,.33,3.4,15.79,15.79,0,0,1-3.38,1.62c0,.21,0,.42,0,.63A16.85,16.85,0,0,0,48,29.27a13.46,13.46,0,0,1-1.09,5.16l.55.34a14.19,14.19,0,0,0,1.17-5.9A9.65,9.65,0,0,0,52.68,23.63Z"/><path class="cls-16" d="M41.74,23.26a1,1,0,0,0,.32.61c-.11-1.24-.26-2.47-.45-3.66a1,1,0,0,0-.25.88C41.48,21.68,41.62,22.44,41.74,23.26Z"/><path class="cls-9" d="M27.27,28.86c0,4.23,1.36,7.12,3.34,9a12,12,0,0,0,14.68,0c2-1.84,3.32-4.73,3.34-9A12.71,12.71,0,0,0,50,27.76c0-.26,0-.52,0-.78a11.52,11.52,0,0,1-1.35,1.16,23.87,23.87,0,0,0-1.71-8A12.15,12.15,0,0,0,45.69,19,23.25,23.25,0,0,1,48,28.56a17,17,0,0,1-5.77,2.31c0-.67.05-1.36.05-2.08a52.73,52.73,0,0,0-1.44-12.27l-.67-.15a50.9,50.9,0,0,1,1.49,12.42c0,.79,0,1.51-.06,2.21a21,21,0,0,1-7.35,0c0-.69-.06-1.42-.06-2.21a50.9,50.9,0,0,1,1.49-12.42l-.67.15a52.73,52.73,0,0,0-1.44,12.27c0,.73,0,1.42.05,2.08a17,17,0,0,1-5.77-2.31A23.25,23.25,0,0,1,30.21,19,12.16,12.16,0,0,0,29,20.14a23.87,23.87,0,0,0-1.71,8A11.52,11.52,0,0,1,25.93,27c0,.26,0,.52,0,.78A12.71,12.71,0,0,0,27.27,28.86Zm14.94,2.62A17.92,17.92,0,0,0,48,29.27c-.16,5.94-3.28,9.82-8.33,10.54C41.06,38.54,42,35.65,42.21,31.48ZM38,31.91a21.63,21.63,0,0,0,3.64-.31c-.4,6.1-2.13,8.34-3.64,8.34s-3.24-2.25-3.64-8.34A21.63,21.63,0,0,0,38,31.91Zm-4.26-.43c.26,4.17,1.15,7.06,2.54,8.32-5.05-.71-8.17-4.6-8.33-10.54A17.92,17.92,0,0,0,33.69,31.48Z"/><path class="cls-14" d="M41.74,23.26a1,1,0,0,0,.32.61c-.11-1.23-.26-2.46-.45-3.65a1,1,0,0,0-.24.88C41.48,21.68,41.62,22.44,41.74,23.26Z"/><path class="cls-14" d="M47.46,34.76a14.15,14.15,0,0,0,1.17-5.9A12.71,12.71,0,0,0,50,27.76c0-.22,0-.44,0-.66V27a11.53,11.53,0,0,1-1.34,1.16,22.25,22.25,0,0,0-.3-2.94,1,1,0,0,1-.64,0,21.25,21.25,0,0,1,.33,3.4,15.79,15.79,0,0,1-3.38,1.62c0,.21,0,.42,0,.63A16.85,16.85,0,0,0,48,29.27a13.46,13.46,0,0,1-1.09,5.16Z"/><path class="cls-17" d="M47.7,37.31a14.93,14.93,0,0,0,4.5-15.69,15.17,15.17,0,0,1-3.56,3.46,1,1,0,0,1-1.58-.67,11.67,11.67,0,0,0-.8-2.84,1,1,0,0,0-.38-.38l-2.31-1.32a1,1,0,0,0-.82-.1,5.83,5.83,0,0,1-.58.14,1,1,0,0,0-.81,1.2c.11.58.25,1.34.37,2.16a1,1,0,0,0,1.25.86h0A1,1,0,0,1,44.3,25a35.48,35.48,0,0,1,.25,7.31,1,1,0,0,0,.48,1l2.55,1.57A1,1,0,0,1,48,36Z"/><path class="cls-14" d="M35.84,31.21c0,.2,0,.4.06.59.67.07,1.35.1,2,.1s1.38,0,2.05-.1c0-.19,0-.39.05-.59a20.15,20.15,0,0,1-4.22,0Z"/><path class="cls-17" d="M38.16,34h0a.81.81,0,0,0,1.47-.2,15.64,15.64,0,0,0,.51-4.13,17.07,17.07,0,0,0-.28-3.14.9.9,0,0,0-1.23-.65h0a10.45,10.45,0,0,1-2,.58.88.88,0,0,0-.71.76,17.9,17.9,0,0,0-.16,2.44,17,17,0,0,0,.29,3.19.81.81,0,0,0,.7.66l.8.09A.81.81,0,0,1,38.16,34Z"/><path class="cls-16" d="M29.34,35.13a12.94,12.94,0,0,1-1.44-5.86,16.9,16.9,0,0,0,3.47,1.58c0-.22,0-.43,0-.63a15.83,15.83,0,0,1-3.47-1.65A22.42,22.42,0,0,1,32,16l-.24-.7a22.51,22.51,0,0,0-4.51,12.87,8.66,8.66,0,0,1-3.57-5.07,14.07,14.07,0,0,1,7.55-9.34l-.19-.56a15,15,0,0,0-5.41,4.41,14.82,14.82,0,0,0-2.43,6.05,9.65,9.65,0,0,0,4,5.22,13.55,13.55,0,0,0,1.56,6.68Z"/><path class="cls-14" d="M29,20.15a23.8,23.8,0,0,0-1.71,8A11.52,11.52,0,0,1,25.94,27q0,.38-.05.77a12.61,12.61,0,0,0,1.39,1.1,13.55,13.55,0,0,0,1.56,6.68l.51-.41a12.94,12.94,0,0,1-1.44-5.86,16.9,16.9,0,0,0,3.47,1.58c0-.22,0-.43,0-.63a15.83,15.83,0,0,1-3.47-1.65A23.22,23.22,0,0,1,30.2,19,12.18,12.18,0,0,0,29,20.15Z"/><path class="cls-18" d="M25,26.85c0-.27,0-.54.05-.81V26a7.35,7.35,0,0,1-1.35-2.9A14.3,14.3,0,0,1,35.22,12.43a11.32,11.32,0,0,0-4.34,4.08,13,13,0,0,1,1.35-.79,8.55,8.55,0,0,1,4.49-3.2,7.68,7.68,0,0,0-1.08,2.08l.67-.1c.52-1.33,1.08-2.12,1.64-2.12s1.12.8,1.64,2.12l.67.1a7.67,7.67,0,0,0-1.08-2.07,8.56,8.56,0,0,1,4.51,3.21A13,13,0,0,1,45,16.5a11.31,11.31,0,0,0-4.33-4.07,14.73,14.73,0,0,1,7.94,4.19l.48-.37a15.42,15.42,0,0,0-9.67-4.59,22.3,22.3,0,0,0-3,0,15.32,15.32,0,0,0-10.69,5.77,14.76,14.76,0,0,0-2.55,6.21A8.32,8.32,0,0,0,25,26.85Z"/><path class="cls-19" d="M31.26,13.73l-.2-.56a15.06,15.06,0,0,0-5.25,4.22l-.05.07-.19.28q-.19.28-.37.57l-.23.39c-.1.18-.2.37-.3.56s-.23.45-.33.69-.17.39-.25.58-.14.36-.2.54-.14.43-.21.65-.15.53-.22.81-.08.33-.11.5-.08.4-.12.61h0A8.32,8.32,0,0,0,25,26.85h0c0-.26,0-.53.05-.8V26a7.35,7.35,0,0,1-1.35-2.89A14.07,14.07,0,0,1,31.26,13.73Z"/><path class="cls-16" d="M31.79,15.27q-.48.58-.91,1.24l.18-.11.33-.2.61-.34Z"/><path class="cls-17" d="M23,26a14.87,14.87,0,0,0,4.44,10.62l3.15-2.54A2.3,2.3,0,0,0,31.47,32a11.66,11.66,0,0,1,.14-4.15,2.37,2.37,0,0,0-.4-2L31,25.6a2.31,2.31,0,0,1-.31-2.28,24.58,24.58,0,0,1,1.78-3.52,2.32,2.32,0,0,0,.23-2l-1.73-5A14.91,14.91,0,0,0,23,26Z"/><path class="cls-19" d="M51.9,20.72l-.37.29a13.69,13.69,0,0,1,.67,2.07A7.35,7.35,0,0,1,50.84,26q0,.43.06.88a8.32,8.32,0,0,0,1.77-3.21A14.88,14.88,0,0,0,51.9,20.72Z"/><path class="cls-18" d="M38.52,40.32a12.93,12.93,0,0,1-6.59-1.47,11.65,11.65,0,0,0,12.19-.09A12.79,12.79,0,0,1,38.52,40.32Z"/><circle class="cls-3" cx="37.95" cy="26.02" r="14.92"/><circle class="cls-15" cx="35.45" cy="22.76" r="0.51"/><circle class="cls-17" cx="35.45" cy="22.76" r="0.51"/><path class="cls-20" d="M17.33,44.14H31.47a3.47,3.47,0,0,1,3.47,3.47V56a3.47,3.47,0,0,1-3.47,3.47H29.63a.24.24,0,0,0-.19.4,3.37,3.37,0,0,0,.72.67.22.22,0,0,1-.08.39,3.37,3.37,0,0,1-3.32-1,1.42,1.42,0,0,0-1-.48h-8.4A3.47,3.47,0,0,1,13.86,56V47.61A3.47,3.47,0,0,1,17.33,44.14Z"/><path class="cls-21" d="M17.33,44.14H31.47a3.47,3.47,0,0,1,3.47,3.47V56a3.47,3.47,0,0,1-3.47,3.47H29.63a.24.24,0,0,0-.19.4,3.36,3.36,0,0,0,.72.67.22.22,0,0,1-.08.39,3.37,3.37,0,0,1-3.32-1,1.41,1.41,0,0,0-1-.47H24.4V51.12a3.79,3.79,0,0,0-1.81-3.23l-6-3.68A3.48,3.48,0,0,1,17.33,44.14Z"/><path class="cls-22" d="M15.61,47.95v2.4a1.08,1.08,0,0,1-1.08,1.08h-.67V47.61a3.47,3.47,0,0,1,3.47-3.47H31.47a3.47,3.47,0,0,1,3.23,2.21A3.44,3.44,0,0,0,33.22,46H17.55A1.94,1.94,0,0,0,15.61,47.95Z"/><path class="cls-23" d="M32.29,44.25l.41.13.21.08a3.44,3.44,0,0,1,.36.2l.17.1a3.49,3.49,0,0,1,.42.34l.21.23.17.2c.07.09.13.18.19.28l.11.2a3.47,3.47,0,0,1,.16.33h0A3.44,3.44,0,0,0,33.22,46H19.53l-2.92-1.79h.08a3.48,3.48,0,0,1,.64-.06H31.47a3.48,3.48,0,0,1,.63.06Z"/><path class="cls-23" d="M14.53,52.7a1.08,1.08,0,0,1,1.08,1.08v4.07a3.45,3.45,0,0,0,.25,1.26,3.47,3.47,0,0,1-2-3.14V52.7Z"/><path class="cls-21" d="M17.33,44.14a3.47,3.47,0,0,0-3.47,3.47V56h7.5a3.47,3.47,0,0,0,3.47-3.47V44.14Z"/><path class="cls-20" d="M15.61,53.79a1.08,1.08,0,0,0-1.08-1.08h-.67V56h1.76Z"/><path class="cls-24" d="M17.33,43.45a3.47,3.47,0,0,0-3.47,3.47v8.37h7.5a3.47,3.47,0,0,0,3.47-3.47V43.45Z"/><circle class="cls-25" cx="20.6" cy="51.94" r="0.59"/><circle class="cls-25" cx="24.4" cy="51.94" r="0.59"/><circle class="cls-25" cx="28.2" cy="51.94" r="0.59"/><path class="cls-3" d="M17.33,44.14H31.47a3.47,3.47,0,0,1,3.47,3.47V56a3.47,3.47,0,0,1-3.47,3.47H29.63a.24.24,0,0,0-.19.4,3.37,3.37,0,0,0,.72.67.22.22,0,0,1-.08.39,3.37,3.37,0,0,1-3.32-1,1.42,1.42,0,0,0-1-.48h-8.4A3.47,3.47,0,0,1,13.86,56V47.61A3.47,3.47,0,0,1,17.33,44.14Z"/><path class="cls-26" d="M20.61,38.78H6.47A3.47,3.47,0,0,0,3,42.26v8.37a3.47,3.47,0,0,0,3.47,3.47H8.31a.24.24,0,0,1,.19.4,3.36,3.36,0,0,1-.72.67.22.22,0,0,0,.08.39,3.37,3.37,0,0,0,3.32-1,1.42,1.42,0,0,1,1-.48h8.4a3.47,3.47,0,0,0,3.47-3.47V42.26A3.47,3.47,0,0,0,20.61,38.78Z"/><path class="cls-22" d="M22.33,42.59V45a1.08,1.08,0,0,0,1.08,1.08h.67V42.26a3.47,3.47,0,0,0-3.47-3.47H6.47A3.47,3.47,0,0,0,3.25,41a3.44,3.44,0,0,1,1.47-.34H20.39A1.94,1.94,0,0,1,22.33,42.59Z"/><path class="cls-27" d="M17.33,44.14a3.47,3.47,0,0,0-3.47,3.47v6.49h6.75a3.47,3.47,0,0,0,3.47-3.47V44.14Z"/><path class="cls-28" d="M18.28,46a2.67,2.67,0,0,0-2.67,2.67v5.43h5a3.47,3.47,0,0,0,3.47-3.47V46Z"/><path class="cls-29" d="M20.61,38.78H6.47A3.47,3.47,0,0,0,3,42.26v8.37a3.47,3.47,0,0,0,3.47,3.47H8.31a.24.24,0,0,1,.19.4,3.36,3.36,0,0,1-.72.67.22.22,0,0,0,.08.39,3.37,3.37,0,0,0,3.32-1,1.41,1.41,0,0,1,1-.47h1.33V45.77a3.79,3.79,0,0,1,1.81-3.23l6-3.68A3.48,3.48,0,0,0,20.61,38.78Z"/><path class="cls-30" d="M22.33,45a1.08,1.08,0,0,0,1.08,1.08h.67V44.14H22.33Z"/><path class="cls-31" d="M24.08,50.63V43.47H17.33a4.14,4.14,0,0,0-4.14,4.14v6.49h7.42A3.47,3.47,0,0,0,24.08,50.63Zm-9.56-3a2.81,2.81,0,0,1,2.81-2.81h6.09v5.83a2.81,2.81,0,0,1-2.81,2.81H14.52Z"/><path class="cls-26" d="M5.65,38.89,5.24,39,5,39.1a3.44,3.44,0,0,0-.36.2l-.17.1a3.5,3.5,0,0,0-.42.34c-.07.07-.14.15-.21.23l-.17.2c-.07.09-.13.18-.19.28l-.11.2a3.47,3.47,0,0,0-.16.33h0a3.44,3.44,0,0,1,1.47-.34h13.7l2.92-1.79h-.08a3.48,3.48,0,0,0-.64-.06H6.47a3.48,3.48,0,0,0-.63.06Z"/><path class="cls-27" d="M23.41,47.35a1.08,1.08,0,0,0-1.08,1.08V52.5a3.45,3.45,0,0,1-.25,1.26,3.47,3.47,0,0,0,2-3.14V47.35Z"/><path class="cls-3" d="M20.61,38.78H6.47A3.47,3.47,0,0,0,3,42.26v8.37a3.47,3.47,0,0,0,3.47,3.47H8.31a.24.24,0,0,1,.19.4,3.36,3.36,0,0,1-.72.67.22.22,0,0,0,.08.39,3.37,3.37,0,0,0,3.32-1,1.42,1.42,0,0,1,1-.48h8.4a3.47,3.47,0,0,0,3.47-3.47V42.26A3.47,3.47,0,0,0,20.61,38.78Z"/><circle class="cls-32" cx="9.75" cy="46.65" r="0.59"/><circle class="cls-32" cx="13.54" cy="46.65" r="0.59"/><circle class="cls-32" cx="17.34" cy="46.65" r="0.59"/></svg>