<svg id="Layer_1" data-name="Layer 1" xmlns="http://www.w3.org/2000/svg" viewBox="0 0 64 64"><defs><style>.cls-1{fill:#d9ebf4;}.cls-2{fill:#c6e2f4;}.cls-3{fill:none;stroke:#041256;stroke-linecap:round;stroke-linejoin:round;stroke-width:2px;}.cls-4{fill:#3faabc;}.cls-5{fill:#61c6c1;}.cls-6{fill:#2e97af;}.cls-7{fill:#2f8cad;}.cls-8{fill:#3a4568;}.cls-9{fill:#505a82;}.cls-10{fill:#283656;}.cls-11{fill:#1f2f4f;}.cls-12{fill:#c45582;}.cls-13{fill:#041256;}.cls-14{fill:#86b0f2;}.cls-15{fill:#a7ccf9;}.cls-16{fill:#92bbf4;}.cls-17{fill:#659bdb;}.cls-18{fill:#5284ce;}.cls-19{fill:#fff;}.cls-20{fill:#406fb5;}.cls-21{fill:#61bbe2;}</style></defs><title>virtual, reality, projection, person, user, gamer</title><path class="cls-1" d="M55.79,21.23h2.43a.76.76,0,0,0,0-1.52H57a.46.46,0,0,1-.46-.46.46.46,0,0,0-.46-.46H53.66a.76.76,0,1,0,0,1.52h1.21a.46.46,0,0,1,.46.46A.46.46,0,0,0,55.79,21.23Z"/><path class="cls-1" d="M53.82,22.42H52.41a.26.26,0,0,0-.26.26.26.26,0,0,1-.26.26h-.7a.44.44,0,1,0,0,.88h1.41a.26.26,0,0,0,.26-.26.26.26,0,0,1,.26-.26h.7a.44.44,0,0,0,0-.88Z"/><path class="cls-1" d="M58.53,14.73H57.12a.26.26,0,0,0-.26.26.26.26,0,0,1-.26.26h-.7a.44.44,0,0,0,0,.88H57.3a.26.26,0,0,0,.26-.26.26.26,0,0,1,.26-.26h.7a.44.44,0,0,0,0-.88Z"/><circle class="cls-1" cx="55.94" cy="29.33" r="0.63"/><circle class="cls-1" cx="55.94" cy="24.28" r="0.61"/><circle class="cls-1" cx="58.97" cy="25.53" r="0.98"/><circle class="cls-1" cx="59.57" cy="17.92" r="0.32"/><circle class="cls-1" cx="49.57" cy="25.53" r="0.39"/><circle class="cls-1" cx="52.5" cy="26.74" r="1.02"/><circle class="cls-1" cx="48.53" cy="22.78" r="0.35"/><path class="cls-1" d="M8,19.46H8a.5.5,0,0,1,.5-.5h2.67a.83.83,0,0,1,.83.83h0a.83.83,0,0,1-.83.83H9.89a.5.5,0,0,0-.5.5h0a.5.5,0,0,1-.5.5H6.21a.83.83,0,0,1-.83-.83h0A.83.83,0,0,1,6.21,20H7.55A.5.5,0,0,0,8,19.46Z"/><path class="cls-1" d="M12.88,23.23h0a.29.29,0,0,0-.29-.29H11a.48.48,0,0,0-.48.48h0a.48.48,0,0,0,.48.48h.77a.29.29,0,0,1,.29.29h0a.29.29,0,0,0,.29.29h1.55a.48.48,0,0,0,.48-.48h0a.48.48,0,0,0-.48-.48h-.77A.29.29,0,0,1,12.88,23.23Z"/><circle class="cls-1" cx="9.59" cy="31.14" r="0.7"/><circle class="cls-1" cx="8.71" cy="24.98" r="0.67"/><circle class="cls-1" cx="5.38" cy="26.35" r="1.08"/><circle class="cls-1" cx="4.73" cy="17.99" r="0.35"/><circle class="cls-1" cx="15.71" cy="26.35" r="0.43"/><circle class="cls-1" cx="12.5" cy="32" r="1.12"/><circle class="cls-1" cx="16.85" cy="23.33" r="0.39"/><path class="cls-1" d="M51.54,35.94h0a.5.5,0,0,1,.5-.5h2.67a.83.83,0,0,1,.83.83h0a.83.83,0,0,1-.83.83H53.38a.5.5,0,0,0-.5.5h0a.5.5,0,0,1-.5.5H49.71a.83.83,0,0,1-.83-.83h0a.83.83,0,0,1,.83-.83H51A.5.5,0,0,0,51.54,35.94Z"/><path class="cls-1" d="M56.38,39.71h0a.29.29,0,0,0-.29-.29H54.54a.48.48,0,0,0-.48.48h0a.48.48,0,0,0,.48.48h.77a.29.29,0,0,1,.29.29h0a.29.29,0,0,0,.29.29h1.55a.48.48,0,0,0,.48-.48h0a.48.48,0,0,0-.48-.48h-.77A.29.29,0,0,1,56.38,39.71Z"/><circle class="cls-1" cx="53.08" cy="47.61" r="0.7"/><circle class="cls-1" cx="52.2" cy="41.46" r="0.67"/><circle class="cls-1" cx="48.87" cy="42.83" r="1.08"/><circle class="cls-1" cx="48.22" cy="34.46" r="0.35"/><circle class="cls-1" cx="59.2" cy="42.83" r="0.43"/><circle class="cls-1" cx="55.99" cy="44.16" r="1.12"/><circle class="cls-1" cx="60.35" cy="39.8" r="0.39"/><path class="cls-2" d="M3,61V33.72a.89.89,0,0,1,.89-.89h.93a.89.89,0,0,1,.89.89V36a.89.89,0,0,0,.89.89h3a.89.89,0,0,1,.89.89V48.15a.89.89,0,0,0,.89.89h1.85a.89.89,0,0,1,.89.89v6.54a.89.89,0,0,0,.89.89h.9a.89.89,0,0,0,.89-.89V55.33a.89.89,0,0,1,.89-.89h.81a.89.89,0,0,0,.89-.89V52a.89.89,0,0,1,.89-.89H25.1a.89.89,0,0,0,.89-.89v-.91a.89.89,0,0,1,.89-.89h15.4a.89.89,0,0,1,.63.26l4.14,4.14a.89.89,0,0,0,.63.26h1.24a.89.89,0,0,1,.89.89v3a.89.89,0,0,0,.89.89h.51a.89.89,0,0,0,.89-.89v-.52a.89.89,0,0,1,.89-.89h.65a.89.89,0,0,0,.89-.89.89.89,0,0,1,.89-.89h4.63a.89.89,0,0,1,.89.89V61Z"/><line class="cls-3" x1="3" y1="61" x2="61" y2="61"/><path class="cls-4" d="M48.68,44H15.32a5.13,5.13,0,0,0-3.84,1.73L3.86,54.34A3.42,3.42,0,0,0,3,56.6v1A3.42,3.42,0,0,0,6.42,61H57.58A3.42,3.42,0,0,0,61,57.58v-1a3.42,3.42,0,0,0-.86-2.27l-7.62-8.61A5.13,5.13,0,0,0,48.68,44Z"/><polygon class="cls-5" points="24.8 44 3 56.58 3 56.59 5.12 60.26 5.78 59.89 4.41 57.51 27.8 44 24.8 44"/><polygon class="cls-5" points="45.59 44 43.34 44 42.59 44 40.68 44 40.35 44 37.69 44 15.89 56.58 15.89 56.59 18.01 60.26 18.67 59.89 17.29 57.51 18.63 56.73 20.67 60.26 21.33 59.89 19.95 57.51 20.98 56.91 22.92 60.26 23.58 59.89 22.2 57.51 45.59 44"/><rect class="cls-5" x="12.28" y="57.66" width="0.18" height="2.43" transform="translate(-27.78 14.08) rotate(-30)"/><polygon class="cls-5" points="32.08 44.37 34.44 44.37 35.08 44 32.08 44 10.28 56.58 10.28 56.59 10.44 56.86 32.08 44.37"/><path class="cls-6" d="M61,56.6a3.42,3.42,0,0,0-.86-2.27l-7.62-8.61A5.13,5.13,0,0,0,48.68,44h-19L22.2,45l4.37,1.2a7.49,7.49,0,0,1,5.51,7.22V61H57.58A3.42,3.42,0,0,0,61,57.58Z"/><path class="cls-7" d="M35.54,59.25V54.09a6.76,6.76,0,0,1,6.76-6.76H53.94l-1.42-1.6A5.13,5.13,0,0,0,48.68,44h-19L22.2,45l4.37,1.2a7.49,7.49,0,0,1,5.51,7.22V61H57.58a3.41,3.41,0,0,0,3-1.75Z"/><path class="cls-4" d="M31.89,51.91,45.59,44H37.69l-7.62,4.4A7.46,7.46,0,0,1,31.89,51.91Z"/><path class="cls-5" d="M5.4,56.3l6.75-7.63a.55.55,0,0,0-.41-.92h-2L3.86,54.34A3.42,3.42,0,0,0,3,56.6v1a3.41,3.41,0,0,0,1.7,2.94,3.38,3.38,0,0,1-.16-1v-1A3.42,3.42,0,0,1,5.4,56.3Z"/><path class="cls-5" d="M60.14,54.34l-7.62-8.61A5.13,5.13,0,0,0,48.68,44H15.32a5.13,5.13,0,0,0-3.84,1.73l-1,1.18h2.46a2.71,2.71,0,0,0,1.43-.42A3.53,3.53,0,0,1,16.17,46H50.22a5.13,5.13,0,0,1,3.84,1.73l6.58,7.44A3.4,3.4,0,0,0,60.14,54.34Z"/><ellipse class="cls-7" cx="26.75" cy="44.61" rx="0.56" ry="0.2"/><polygon class="cls-7" points="42.2 45.96 45.59 44 43.34 44 42.59 44 40.68 44 40.35 44 37.69 44 34.29 45.96 42.2 45.96"/><path class="cls-8" d="M60.14,54.34l-.42-.48a3.32,3.32,0,0,1-2.81,1.56H7.09a3.3,3.3,0,0,1-2.45-1.08.53.53,0,0,0-.79,0h0A3.42,3.42,0,0,0,3,56.6v1A3.42,3.42,0,0,0,6.42,61H57.58A3.42,3.42,0,0,0,61,57.58v-1A3.42,3.42,0,0,0,60.14,54.34Z"/><circle class="cls-9" cx="9.8" cy="58.14" r="0.66"/><path class="cls-10" d="M60.14,54.34l-.42-.48a3.32,3.32,0,0,1-2.81,1.56H7.09a3.3,3.3,0,0,1-2.45-1.08.54.54,0,0,0-.8,0A3.42,3.42,0,0,0,3,56.6v1a3.36,3.36,0,0,0,0,.37,3.41,3.41,0,0,1,.81-1.85.54.54,0,0,1,.8,0,3.3,3.3,0,0,0,2.45,1.08H30.15a1.92,1.92,0,0,1,1.92,1.92h0A1.92,1.92,0,0,0,34,61H57.58A3.42,3.42,0,0,0,61,57.58v-1A3.42,3.42,0,0,0,60.14,54.34Z"/><path class="cls-11" d="M60.14,54.34l-.42-.48a3.32,3.32,0,0,1-2.81,1.56H33.56a1.49,1.49,0,0,0-1.49,1.49v2.21l0,.18A1.91,1.91,0,0,0,34,61h.87a4.37,4.37,0,0,1,4.37-4.37H61v1.43a3.38,3.38,0,0,0,0-.48v-1A3.42,3.42,0,0,0,60.14,54.34Z"/><path class="cls-9" d="M60.65,55.13a4.14,4.14,0,0,0-.21-.39,3.41,3.41,0,0,0-.29-.4h0l-.42-.48-.09.12,1,1.15Z"/><path class="cls-9" d="M3.1,58.35a3.4,3.4,0,0,0,.14.47l.1.21a3.4,3.4,0,0,0,.18.33l.17.25.11.14a3.47,3.47,0,0,0,.53.51h0a3.5,3.5,0,0,0,.36.24h0a3.38,3.38,0,0,1-.16-1v-1A3.42,3.42,0,0,1,5.4,56.3l.88-1a3.32,3.32,0,0,1-1.63-1,.53.53,0,0,0-.79,0l-.1.13A3.35,3.35,0,0,0,3,56.6v1a3.42,3.42,0,0,0,.06.61Z"/><path class="cls-8" d="M3.85,56.1a.54.54,0,0,1,.8,0,3.35,3.35,0,0,0,.56.48c.06-.09.12-.18.2-.27l.88-1A3.26,3.26,0,0,1,5.55,55l-.29-.17-.19-.13a3.23,3.23,0,0,1-.43-.39.54.54,0,0,0-.79,0l-.09.13a3.56,3.56,0,0,0-.41.66l-.05.11a3.27,3.27,0,0,0-.24.74h0A3.41,3.41,0,0,0,3,56.6v1a2.91,2.91,0,0,0,0,.37A3.41,3.41,0,0,1,3.85,56.1Z"/><path class="cls-3" d="M48.68,44H15.32a5.13,5.13,0,0,0-3.84,1.73L3.86,54.34A3.42,3.42,0,0,0,3,56.6v1A3.42,3.42,0,0,0,6.42,61H57.58A3.42,3.42,0,0,0,61,57.58v-1a3.42,3.42,0,0,0-.86-2.27l-7.62-8.61A5.13,5.13,0,0,0,48.68,44Z"/><path class="cls-3" d="M4.28,53.86l-.42.48A3.42,3.42,0,0,0,3,56.6v1A3.42,3.42,0,0,0,6.42,61H57.58A3.42,3.42,0,0,0,61,57.58v-1a3.42,3.42,0,0,0-.86-2.27l-.42-.48"/><path class="cls-3" d="M34.8,45a23.57,23.57,0,0,0,7-1H22.2a23.57,23.57,0,0,0,7,1Z"/><ellipse class="cls-7" cx="26.75" cy="44.61" rx="0.56" ry="0.2"/><ellipse class="cls-12" cx="28.74" cy="44.61" rx="0.56" ry="0.2"/><circle class="cls-11" cx="9.8" cy="58.05" r="0.62"/><path class="cls-8" d="M47.28,59.13h0a.6.6,0,0,1-.6-.6v-1a.6.6,0,0,1,.6-.6h0a.6.6,0,0,1,.6.6v1A.6.6,0,0,1,47.28,59.13Z"/><path class="cls-13" d="M47.28,58.9h0a.6.6,0,0,1-.6-.6v-1a.6.6,0,0,1,.6-.6h0a.6.6,0,0,1,.6.6v1A.6.6,0,0,1,47.28,58.9Z"/><path class="cls-8" d="M49.17,59.13h0a.6.6,0,0,1-.6-.6v-1a.6.6,0,0,1,.6-.6h0a.6.6,0,0,1,.6.6v1A.6.6,0,0,1,49.17,59.13Z"/><path class="cls-13" d="M49.17,58.9h0a.6.6,0,0,1-.6-.6v-1a.6.6,0,0,1,.6-.6h0a.6.6,0,0,1,.6.6v1A.6.6,0,0,1,49.17,58.9Z"/><path class="cls-8" d="M51.06,59.13h0a.6.6,0,0,1-.6-.6v-1a.6.6,0,0,1,.6-.6h0a.6.6,0,0,1,.6.6v1A.6.6,0,0,1,51.06,59.13Z"/><path class="cls-13" d="M51.06,58.9h0a.6.6,0,0,1-.6-.6v-1a.6.6,0,0,1,.6-.6h0a.6.6,0,0,1,.6.6v1A.6.6,0,0,1,51.06,58.9Z"/><path class="cls-8" d="M53,59.13h0a.6.6,0,0,1-.6-.6v-1A.6.6,0,0,1,53,57h0a.6.6,0,0,1,.6.6v1A.6.6,0,0,1,53,59.13Z"/><path class="cls-13" d="M53,58.9h0a.6.6,0,0,1-.6-.6v-1a.6.6,0,0,1,.6-.6h0a.6.6,0,0,1,.6.6v1A.6.6,0,0,1,53,58.9Z"/><path class="cls-8" d="M54.84,59.13h0a.6.6,0,0,1-.6-.6v-1a.6.6,0,0,1,.6-.6h0a.6.6,0,0,1,.6.6v1A.6.6,0,0,1,54.84,59.13Z"/><path class="cls-13" d="M54.84,58.9h0a.6.6,0,0,1-.6-.6v-1a.6.6,0,0,1,.6-.6h0a.6.6,0,0,1,.6.6v1A.6.6,0,0,1,54.84,58.9Z"/><path class="cls-14" d="M42.28,47.14,61,3H3L21.72,47.14a2,2,0,0,1-1.2,2.68c-.38.11-.58.23-.58.35,0,.64,5.4,1.15,12.06,1.15s12.06-.52,12.06-1.15c0-.12-.2-.24-.58-.35A2,2,0,0,1,42.28,47.14Z"/><path class="cls-14" d="M42.28,47.14,61,3H3L21.72,47.14a2,2,0,0,1-1.2,2.68c-.38.11-.58.23-.58.35,0,.64,5.4,1.15,12.06,1.15s12.06-.52,12.06-1.15c0-.12-.2-.24-.58-.35A2,2,0,0,1,42.28,47.14Z"/><path class="cls-15" d="M39.11,47.14,52.06,3H11.94l13,44.14a2.31,2.31,0,0,1-.83,2.68c-.26.11-.4.23-.4.35,0,.64,3.74,1.15,8.34,1.15s8.34-.52,8.34-1.15c0-.12-.14-.24-.4-.35A2.31,2.31,0,0,1,39.11,47.14Z"/><path class="cls-16" d="M25.94,50.18c0-.12.1-.24.29-.35.56-.33.83-1.61.6-2.68L22.39,26.27a3.24,3.24,0,0,0-3.16-2.56H18l6.87,23.43a2.31,2.31,0,0,1-.83,2.68c-.26.11-.4.23-.4.35,0,.64,3.74,1.15,8.34,1.15C28.65,51.33,25.94,50.82,25.94,50.18Z"/><path class="cls-16" d="M39.94,49.83a2.31,2.31,0,0,1-.83-2.68L52.06,3H46.57L37.16,47.14c-.23,1.07,0,2.35.6,2.68.19.11.29.23.29.35,0,.64-2.71,1.15-6.06,1.15,4.61,0,8.34-.52,8.34-1.15C40.35,50.06,40.2,49.94,39.94,49.83Z"/><path class="cls-17" d="M43.61,44H20.39l1.33,3.14a2,2,0,0,1-1.2,2.68c-.38.11-.58.23-.58.35,0,.64,5.4,1.15,12.06,1.15s12.06-.52,12.06-1.15c0-.12-.2-.24-.58-.35a2,2,0,0,1-1.2-2.68Z"/><path class="cls-16" d="M40.35,50.18c0-.12-.14-.24-.4-.35a2.31,2.31,0,0,1-.83-2.68L40,44H24l.92,3.14a2.31,2.31,0,0,1-.83,2.68c-.26.11-.4.23-.4.35,0,.64,3.74,1.15,8.34,1.15S40.35,50.82,40.35,50.18Z"/><path class="cls-14" d="M39.94,49.83a2.31,2.31,0,0,1-.83-2.68L40,44h-2.2l-.67,3.14c-.23,1.07,0,2.35.6,2.68.19.11.29.23.29.35,0,.64-2.71,1.15-6.06,1.15,4.61,0,8.34-.52,8.34-1.15C40.35,50.06,40.2,49.94,39.94,49.83Z"/><path class="cls-14" d="M25.94,50.18c0-.12.1-.24.29-.35.56-.33.83-1.61.6-2.68L26.17,44H24l.92,3.14a2.31,2.31,0,0,1-.83,2.68c-.26.11-.4.23-.4.35,0,.64,3.74,1.15,8.34,1.15C28.65,51.33,25.94,50.82,25.94,50.18Z"/><polygon class="cls-18" points="20.81 45 43.19 45 44.03 43 19.97 43 20.81 45"/><rect class="cls-14" x="25.01" y="43" width="14.2" height="2"/><polygon class="cls-17" points="38.05 43 37.62 45 39.74 45 40.33 43 38.05 43"/><polygon class="cls-17" points="23.68 43 24.26 45 26.38 45 25.95 43 23.68 43"/><path class="cls-19" d="M3,3c4.37,9.77,8.64,19.59,12.89,29.41,2.15,4.93,4.22,9.79,6.34,14.8a2.5,2.5,0,0,1-.46,2.32,2.29,2.29,0,0,1-1,.71,3.3,3.3,0,0,0-.41.15s-.06.08,0-.06a.35.35,0,0,0,0-.31l0,0h0a3.11,3.11,0,0,0,.77.24c.31.06.63.12,1,.16.65.09,1.31.16,2,.21,2.65.21,5.31.27,8,.27s5.33-.06,8-.27c.66-.05,1.32-.12,2-.21.32,0,.65-.1,1-.16a3.11,3.11,0,0,0,.77-.24h0l0,.05a.35.35,0,0,0,0,.31c.09.14.07.07,0,.06a3.31,3.31,0,0,0-.41-.15,2.29,2.29,0,0,1-1-.71,2.5,2.5,0,0,1-.46-2.32c2.12-5,4.19-9.88,6.34-14.8l6.4-14.73L61,3,55,17.88,48.82,32.71,42.64,47.48a1.59,1.59,0,0,0,.29,1.46,1.36,1.36,0,0,0,.61.42,3.9,3.9,0,0,1,.53.2.82.82,0,0,1,.4.38.61.61,0,0,1,0,.55l-.12.15-.1.08a3.36,3.36,0,0,1-1.12.4c-.34.07-.68.13-1,.18-.68.1-1.35.17-2,.23-2.69.23-5.37.31-8.06.31s-5.37-.09-8.06-.32c-.67-.06-1.34-.13-2-.23-.34,0-.68-.11-1-.18a3.36,3.36,0,0,1-1.12-.4l-.1-.08-.12-.15a.61.61,0,0,1,0-.55.82.82,0,0,1,.4-.38,3.9,3.9,0,0,1,.53-.2,1.36,1.36,0,0,0,.61-.42,1.59,1.59,0,0,0,.29-1.46L15.19,32.71C11.08,22.82,7,12.93,3,3Z"/><circle class="cls-15" cx="6.49" cy="29.89" r="0.55"/><circle class="cls-15" cx="6.62" cy="31.26" r="0.12"/><circle class="cls-15" cx="10.48" cy="28.89" r="0.89"/><circle class="cls-15" cx="14.21" cy="37.84" r="0.27"/><circle class="cls-15" cx="53.2" cy="31.29" r="0.85"/><circle class="cls-15" cx="50.91" cy="34.29" r="0.17"/><circle class="cls-15" cx="57.09" cy="34.28" r="0.53"/><circle class="cls-15" cx="59.2" cy="32.25" r="0.87"/><circle class="cls-15" cx="49.33" cy="40.25" r="0.44"/><circle class="cls-15" cx="12.6" cy="34.78" r="0.66"/><circle class="cls-15" cx="9.7" cy="34.78" r="0.32"/><circle class="cls-15" cx="15.14" cy="40.46" r="0.66"/><circle class="cls-15" cx="47.58" cy="39.72" r="0.3"/><circle class="cls-15" cx="54.45" cy="34.15" r="0.4"/><path class="cls-16" d="M20.57,17.72,17.43,3H11.94L17.4,21.63h0A3.24,3.24,0,0,0,20.57,17.72Z"/><circle class="cls-19" cx="18.02" cy="25.27" r="1.54"/><circle class="cls-19" cx="17.23" cy="21.67" r="0.38"/><circle class="cls-19" cx="18.28" cy="17.68" r="0.27"/><circle class="cls-19" cx="47.28" cy="22.86" r="0.81"/><circle class="cls-19" cx="45.09" cy="28.06" r="0.3"/><circle class="cls-19" cx="47.71" cy="26.09" r="0.43"/><circle class="cls-19" cx="49.67" cy="24.79" r="0.48"/><path class="cls-20" d="M40.61,15.94H23.39a1.3,1.3,0,0,0-.24,2.58l4.26.81a.76.76,0,0,1,.62.81l-.08.92a24.54,24.54,0,0,1-1.73,7.23l-1.88,4.61a1.65,1.65,0,0,0,.43,1.9,1.63,1.63,0,0,0,2.46-.45l3-5.32a2,2,0,0,1,3.57,0l3,5.32a1.63,1.63,0,0,0,2.46.45,1.65,1.65,0,0,0,.43-1.9L37.79,28.3a24.54,24.54,0,0,1-1.73-7.23L36,20.14a.76.76,0,0,1,.62-.81l4.26-.81a1.3,1.3,0,0,0-.24-2.58Z"/><path class="cls-21" d="M22.67,18a1.3,1.3,0,0,1,1.3-1.3H41.2a1.26,1.26,0,0,1,.66.2,1.28,1.28,0,0,0-1.24-1H23.39a1.3,1.3,0,0,0-.66,2.42A1.27,1.27,0,0,1,22.67,18Z"/><path class="cls-21" d="M34.37,29.83a2,2,0,0,0-.43-.51l2.83,5a1.61,1.61,0,0,0,.4.46Z"/><path class="cls-21" d="M24.92,33.69l1.88-4.61a24.54,24.54,0,0,0,1.73-7.23l.08-.92a.76.76,0,0,0-.58-.8h0l-.08.92a24.55,24.55,0,0,1-1.73,7.23l-1.88,4.61a1.65,1.65,0,0,0,.43,1.9l.12.08A1.73,1.73,0,0,1,24.92,33.69Z"/><path class="cls-13" d="M40.61,15.94a1.3,1.3,0,0,1,.24,2.58l-4.26.81a.76.76,0,0,0-.62.81l.08.92a24.55,24.55,0,0,0,1.73,7.23l1.88,4.61a1.62,1.62,0,0,1-1.48,2.28,1.62,1.62,0,0,1-1.41-.83l-3-5.32a2,2,0,0,0-3.57,0l-3,5.32a1.62,1.62,0,0,1-1.41.83,1.62,1.62,0,0,1-1.48-2.28l1.88-4.61a24.55,24.55,0,0,0,1.73-7.23l.08-.92a.76.76,0,0,0-.62-.81l-4.26-.81a1.3,1.3,0,0,1,.24-2.58H40.61m0-2H23.39a3.3,3.3,0,0,0-.62,6.54l3.16.6a22.52,22.52,0,0,1-1.57,6.45l-1.88,4.61a3.62,3.62,0,0,0,3.33,5A3.63,3.63,0,0,0,29,35.34L32,30l1.82-1L32,30l3,5.32a3.63,3.63,0,0,0,3.16,1.85,3.62,3.62,0,0,0,3.33-5l-1.88-4.61a22.52,22.52,0,0,1-1.57-6.45l3.16-.6a3.3,3.3,0,0,0-.62-6.54Z"/><path class="cls-20" d="M36.09,12.15a1.27,1.27,0,0,0-.94-1.22v-.07a2.61,2.61,0,0,0-2.61-2.61H31.46a2.61,2.61,0,0,0-2.61,2.61v.07A1.26,1.26,0,0,0,29,13.4a3.14,3.14,0,0,0,3,2.2h0a3.14,3.14,0,0,0,3-2.2A1.27,1.27,0,0,0,36.09,12.15Z"/><path class="cls-21" d="M28.6,12.54a1.27,1.27,0,0,1,.94-1.22v-.07a2.61,2.61,0,0,1,2.61-2.61h1.08a2.59,2.59,0,0,1,.91.17,2.58,2.58,0,0,0-1.6-.56H31.46a2.61,2.61,0,0,0-2.61,2.61v.07a1.25,1.25,0,0,0,.07,2.44A1.24,1.24,0,0,1,28.6,12.54Z"/><path class="cls-21" d="M29.71,13.79a1.31,1.31,0,0,1-.67-.33,3.15,3.15,0,0,0,1.77,1.89A3.17,3.17,0,0,1,29.71,13.79Z"/><path class="cls-13" d="M32.54,8.25a2.61,2.61,0,0,1,2.61,2.61v.07A1.26,1.26,0,0,1,35,13.4a3.13,3.13,0,0,1-6,0,1.26,1.26,0,0,1-.16-2.47v-.07a2.61,2.61,0,0,1,2.61-2.61h1.08m0-2H31.46A4.62,4.62,0,0,0,27,9.72,3.26,3.26,0,0,0,27.51,15a5.12,5.12,0,0,0,9,0A3.26,3.26,0,0,0,37,9.72a4.62,4.62,0,0,0-4.46-3.47Z"/></svg>