<svg id="Layer_1" data-name="Layer 1" xmlns="http://www.w3.org/2000/svg" viewBox="0 0 64 64"><defs><style>.cls-1{fill:#d9ebf4;}.cls-2{fill:#c6e2f4;}.cls-12,.cls-3,.cls-9{fill:none;}.cls-11,.cls-12,.cls-3{stroke:#041256;stroke-linecap:round;stroke-linejoin:round;}.cls-3{stroke-width:2px;}.cls-4{fill:#b8cce8;}.cls-5{fill:#cedff4;}.cls-6{fill:#fff;}.cls-7{fill:#326acc;}.cls-8{fill:#4c8dd3;}.cls-9{stroke:#1e439e;stroke-miterlimit:10;}.cls-10{fill:#9eb9d8;}.cls-11{fill:#041256;}.cls-12{stroke-width:0.75px;}</style></defs><title>laptop, computer, electronic, device, technology</title><path class="cls-1" d="M48.74,11.33H46.31a.76.76,0,1,1,0-1.52h1.21A.46.46,0,0,0,48,9.36a.46.46,0,0,1,.46-.46h2.43a.76.76,0,1,1,0,1.52H49.65a.46.46,0,0,0-.46.46A.46.46,0,0,1,48.74,11.33Z"/><path class="cls-1" d="M50.71,12.53h1.41a.26.26,0,0,1,.26.26.26.26,0,0,0,.26.26h.7a.44.44,0,0,1,0,.88H51.94a.26.26,0,0,1-.26-.26.26.26,0,0,0-.26-.26h-.7a.44.44,0,1,1,0-.88Z"/><path class="cls-1" d="M46,4.83H47.4a.26.26,0,0,1,.26.26.26.26,0,0,0,.26.26h.7a.44.44,0,1,1,0,.88H47.23A.26.26,0,0,1,47,6a.26.26,0,0,0-.26-.26H46a.44.44,0,0,1,0-.88Z"/><circle class="cls-1" cx="58.25" cy="14.24" r="0.63"/><circle class="cls-1" cx="48.58" cy="14.38" r="0.61"/><circle class="cls-1" cx="45.55" cy="15.63" r="0.98"/><circle class="cls-1" cx="44.96" cy="8.02" r="0.32"/><circle class="cls-1" cx="54.95" cy="15.63" r="0.39"/><circle class="cls-1" cx="52.03" cy="16.85" r="1.02"/><circle class="cls-1" cx="55.99" cy="12.88" r="0.35"/><path class="cls-1" d="M13.13,13.6h0a.5.5,0,0,0-.5-.5H10a.83.83,0,0,0-.83.83h0a.83.83,0,0,0,.83.83H11.3a.5.5,0,0,1,.5.5h0a.5.5,0,0,0,.5.5H15a.83.83,0,0,0,.83-.83h0A.83.83,0,0,0,15,14.1H13.63A.5.5,0,0,1,13.13,13.6Z"/><path class="cls-1" d="M8.3,17.37h0a.29.29,0,0,1,.29-.29h1.55a.48.48,0,0,1,.48.48h0a.48.48,0,0,1-.48.48H9.36a.29.29,0,0,0-.29.29h0a.29.29,0,0,1-.29.29H7.23a.48.48,0,0,1-.48-.48h0a.48.48,0,0,1,.48-.48H8A.29.29,0,0,0,8.3,17.37Z"/><circle class="cls-1" cx="11.6" cy="25.28" r="0.7"/><circle class="cls-1" cx="12.47" cy="19.12" r="0.67"/><circle class="cls-1" cx="15.8" cy="20.49" r="1.08"/><circle class="cls-1" cx="16.45" cy="12.12" r="0.35"/><circle class="cls-1" cx="5.47" cy="20.49" r="0.43"/><circle class="cls-1" cx="8.69" cy="21.83" r="1.12"/><circle class="cls-1" cx="4.33" cy="17.46" r="0.39"/><path class="cls-2" d="M61,59.17V31.89a.89.89,0,0,0-.89-.89h-.93a.89.89,0,0,0-.89.89v2.27a.89.89,0,0,1-.89.89h-3a.89.89,0,0,0-.89.89V46.32a.89.89,0,0,1-.89.89H50.74a.89.89,0,0,0-.89.89v6.54a.89.89,0,0,1-.89.89h-.9a.89.89,0,0,1-.89-.89V53.51a.89.89,0,0,0-.89-.89h-.81a.89.89,0,0,1-.89-.89V50.19a.89.89,0,0,0-.89-.89H38.9a.89.89,0,0,1-.89-.89V47.5a.89.89,0,0,0-.89-.89H21.71a.89.89,0,0,0-.63.26L16.95,51a.89.89,0,0,1-.63.26H15.07a.89.89,0,0,0-.89.89v3a.89.89,0,0,1-.89.89h-.51a.89.89,0,0,1-.89-.89v-.52a.89.89,0,0,0-.89-.89h-.65a.89.89,0,0,1-.89-.89A.89.89,0,0,0,8.57,52H3.94a.89.89,0,0,0-.89.89v6.31Z"/><line class="cls-3" x1="61" y1="59.17" x2="3" y2="59.17"/><path class="cls-4" d="M11.44,20.08H52.56a2.5,2.5,0,0,1,2.5,2.5V54.16a0,0,0,0,1,0,0H8.94a0,0,0,0,1,0,0V22.58A2.5,2.5,0,0,1,11.44,20.08Z"/><path class="cls-5" d="M14.38,20.08H11.44a2.5,2.5,0,0,0-2.5,2.5V54.16h2.94V22.58A2.5,2.5,0,0,1,14.38,20.08Z"/><path class="cls-5" d="M52.56,20.08H11.44a2.5,2.5,0,0,0-2.5,2.5v2A2.51,2.51,0,0,1,11.49,22H52.62a2.49,2.49,0,0,1,2.44,2.5v-2A2.5,2.5,0,0,0,52.56,20.08Z"/><path class="cls-6" d="M52.56,20.08H11.44a2.5,2.5,0,0,0-2.5,2.5v1.33a2.5,2.5,0,0,1,2.5-2.5H52.56a2.5,2.5,0,0,1,2.5,2.5V22.58A2.5,2.5,0,0,0,52.56,20.08Z"/><path class="cls-6" d="M11.44,22h.5a2.5,2.5,0,0,1,2.44-2H11.44a2.5,2.5,0,0,0-2.5,2.5v2A2.5,2.5,0,0,1,11.44,22Z"/><path class="cls-3" d="M11.44,20.08H52.56a2.5,2.5,0,0,1,2.5,2.5V54.16a0,0,0,0,1,0,0H8.94a0,0,0,0,1,0,0V22.58A2.5,2.5,0,0,1,11.44,20.08Z"/><path class="cls-7" d="M51.68,54.06H12.32V24.5a.58.58,0,0,1,.58-.58H51.1a.58.58,0,0,1,.58.58Z"/><path class="cls-7" d="M51.68,54.06V24.5a.58.58,0,0,0-.58-.58H27.45l-5.16,2.13L27.87,40.2,37.36,46a5,5,0,0,1,2.39,4.28v3.77Z"/><path class="cls-7" d="M51.68,54.06V24.5a.58.58,0,0,0-.58-.58H27.45l-5.16,2.13L27.87,40.2,37.36,46a5,5,0,0,1,2.39,4.28v3.77Z"/><path class="cls-8" d="M49.84,53.76H14.15V26.2a.52.52,0,0,1,.52-.52H49.32a.52.52,0,0,1,.52.52Z"/><path class="cls-7" d="M49.32,25.68H14l-.42,6.74L24.76,43.6,35,53.76H49.84V26.2A.52.52,0,0,0,49.32,25.68Z"/><path class="cls-9" d="M12.32,53V24.5a.58.58,0,0,1,.58-.58H51.1a.58.58,0,0,1,.58.58V53"/><path class="cls-10" d="M4.09,54.16H59.91a.95.95,0,0,1,.95.95v1.22A2.84,2.84,0,0,1,58,59.17H6a2.84,2.84,0,0,1-2.84-2.84V55.11a.95.95,0,0,1,.95-.95Z"/><path class="cls-4" d="M5.63,58.31V56.45a.31.31,0,0,1,.31-.31H60.86v-1a1,1,0,0,0-.95-.95H4.09a1,1,0,0,0-.95.95v1.22a2.83,2.83,0,0,0,2.63,2.82A2.81,2.81,0,0,1,5.63,58.31Z"/><path class="cls-6" d="M5.63,59.13l.14,0a2.81,2.81,0,0,1-.14-.84Z"/><path class="cls-6" d="M59.91,54.16H4.09a1,1,0,0,0-.95.95v1.22c0,.07,0,.14,0,.2a.94.94,0,0,1,.93-.85H59.91a.93.93,0,0,1,.79.45h.16v-1A1,1,0,0,0,59.91,54.16Z"/><path class="cls-3" d="M4.09,54.16H59.91a.95.95,0,0,1,.95.95v1.22A2.84,2.84,0,0,1,58,59.17H6a2.84,2.84,0,0,1-2.84-2.84V55.11a.95.95,0,0,1,.95-.95Z"/><path class="cls-11" d="M26,54.16l.8,1a1.44,1.44,0,0,0,1.12.54H36.1a1.44,1.44,0,0,0,1.12-.54l.8-1Z"/><circle class="cls-12" cx="32" cy="22.26" r="0.01"/></svg>